<svg width="22" height="22" viewBox="0 0 22 22" fill="none" xmlns="http://www.w3.org/2000/svg">
<path d="M21 10.376L11.5445 19.2938C10.3861 20.3862 8.81499 21 7.1768 21C5.53861 21 3.96752 20.3862 2.80914 19.2938C1.65076 18.2013 1 16.7195 1 15.1745C1 13.6295 1.65076 12.1478 2.80914 11.0553L12.2647 2.13749C13.0369 1.40916 14.0844 1 15.1765 1C16.2686 1 17.316 1.40916 18.0882 2.13749C18.8605 2.86582 19.2944 3.85365 19.2944 4.88366C19.2944 5.91367 18.8605 6.90151 18.0882 7.62982L8.6224 16.5475C8.23627 16.9118 7.71258 17.1164 7.16652 17.1164C6.62045 17.1164 6.09675 16.9118 5.71062 16.5475C5.32451 16.1834 5.10758 15.6895 5.10758 15.1745C5.10758 14.6595 5.32451 14.1655 5.71062 13.8014L14.4459 5.57264" stroke="#F9B959" stroke-width="2" stroke-linecap="round" stroke-linejoin="round"/>
</svg>
