<svg width="656" height="821" viewBox="0 0 656 821" fill="none" xmlns="http://www.w3.org/2000/svg">
<g opacity="0.3">
<g filter="url(#filter0_f_2_536)">
<path d="M320.537 256.453C393.032 178.227 499.825 116.307 504.948 218.581C511.426 347.922 377.423 532.803 304.929 611.029C232.434 689.255 299.586 514.675 301.956 445.466C304.325 376.256 248.042 334.679 320.537 256.453Z" fill="#4D20FF"/>
</g>
<g filter="url(#filter1_f_2_536)">
<ellipse cx="135.401" cy="191.432" rx="135.401" ry="191.432" transform="matrix(-0.0388745 -0.999244 0.654532 -0.756034 156.067 752.571)" fill="#FFD90F"/>
</g>
<g filter="url(#filter2_f_2_536)">
<path d="M299.477 305.027C346.848 253.911 416.362 221.3 419.166 303.998C422.712 408.584 334.946 535.322 287.576 586.438C240.205 637.554 284.599 508.444 286.484 453.408C288.368 398.372 252.106 356.143 299.477 305.027Z" fill="#20E4FF"/>
</g>
</g>
<defs>
<filter id="filter0_f_2_536" x="121.364" y="14.9933" width="533.811" height="765.799" filterUnits="userSpaceOnUse" color-interpolation-filters="sRGB">
<feFlood flood-opacity="0" result="BackgroundImageFix"/>
<feBlend mode="normal" in="SourceGraphic" in2="BackgroundImageFix" result="shape"/>
<feGaussianBlur stdDeviation="75" result="effect1_foregroundBlur_2_536"/>
</filter>
<filter id="filter1_f_2_536" x="0.691162" y="124.421" width="550.822" height="696.245" filterUnits="userSpaceOnUse" color-interpolation-filters="sRGB">
<feFlood flood-opacity="0" result="BackgroundImageFix"/>
<feBlend mode="normal" in="SourceGraphic" in2="BackgroundImageFix" result="shape"/>
<feGaussianBlur stdDeviation="75" result="effect1_foregroundBlur_2_536"/>
</filter>
<filter id="filter2_f_2_536" x="115.8" y="103.562" width="453.47" height="644.612" filterUnits="userSpaceOnUse" color-interpolation-filters="sRGB">
<feFlood flood-opacity="0" result="BackgroundImageFix"/>
<feBlend mode="normal" in="SourceGraphic" in2="BackgroundImageFix" result="shape"/>
<feGaussianBlur stdDeviation="75" result="effect1_foregroundBlur_2_536"/>
</filter>
</defs>
</svg>
