<svg width="72" height="58" viewBox="0 0 72 58" fill="none" xmlns="http://www.w3.org/2000/svg">
<rect opacity="0.1" width="72" height="58" rx="29" fill="url(#paint0_linear_7615_1407)"/>
<path fill-rule="evenodd" clip-rule="evenodd" d="M36 9C34.9923 9 34.1754 9.81404 34.1754 10.8182V12.6364H32.3509C29.3663 12.6364 26.9845 13.734 25.3612 15.4987C23.7647 17.2341 23 19.5063 23 21.7273C23 23.9483 23.7647 26.2204 25.3612 27.9558C25.6608 28.2816 25.9864 28.5847 26.3368 28.8624C27.8844 30.0884 29.9173 30.8182 32.3509 30.8182H34.1754V41.7273H32.3509C30.8456 41.7273 29.8379 41.3575 29.1437 40.8962C28.438 40.4275 27.9448 39.7895 27.5969 39.096C27.2454 38.3955 27.0605 37.6729 26.9664 37.1102C26.9197 36.8309 26.8847 36.5476 26.8772 36.2642C26.8724 35.2644 26.0572 34.4545 25.0526 34.4545C24.0449 34.4545 23.2281 35.2685 23.2281 36.2727C23.2281 36.3949 23.2324 36.5122 23.247 36.7147C23.2647 36.962 23.2992 37.3033 23.3669 37.708C23.5009 38.5089 23.7722 39.6045 24.333 40.7222C24.8973 41.8469 25.7725 43.0271 27.1195 43.922C28.4779 44.8244 30.2071 45.3636 32.3509 45.3636H34.1754V47.1818C34.1754 48.186 34.9923 49 36 49C37.0077 49 37.8246 48.186 37.8246 47.1818V45.3636H39.6491C42.6337 45.3636 45.0155 44.266 46.6388 42.5013C48.2353 40.7658 49 38.4938 49 36.2727C49 34.0516 48.2353 31.7796 46.6388 30.0442C45.0155 28.2795 42.6337 27.1818 39.6491 27.1818H37.8246V16.2727H39.6491C41.1544 16.2727 42.1621 16.6425 42.8563 17.1037C43.5621 17.5725 44.0553 18.2106 44.4032 18.904C44.7546 19.6045 44.9394 20.3271 45.0336 20.8898C45.0803 21.1691 45.1153 21.4523 45.1228 21.7357C45.1277 22.7358 45.9428 23.5455 46.9474 23.5455C47.9432 23.5455 48.7719 22.717 48.7719 21.7254C48.7717 21.6039 48.7675 21.4867 48.753 21.2852C48.7353 21.038 48.7008 20.6968 48.6331 20.292C48.4992 19.4911 48.2278 18.3955 47.667 17.2778C47.1026 16.153 46.2274 14.9729 44.8805 14.0781C43.5221 13.1757 41.793 12.6364 39.6491 12.6364H37.8246V10.8182C37.8246 9.81404 37.0077 9 36 9ZM34.1754 16.2727H32.3509C30.318 16.2727 28.9366 16.9933 28.0511 17.9559C27.1388 18.9477 26.6491 20.3119 26.6491 21.7273C26.6491 23.1426 27.1388 24.5069 28.0511 25.4987C28.9366 26.4613 30.318 27.1818 32.3509 27.1818H34.1754V16.2727ZM37.8246 30.8182V41.7273H39.6491C41.682 41.7273 43.0634 41.0067 43.9489 40.0442C44.8612 39.0524 45.3509 37.688 45.3509 36.2727C45.3509 34.8575 44.8612 33.4931 43.9489 32.5013C43.0634 31.5387 41.682 30.8182 39.6491 30.8182H37.8246Z" fill="white"/>
<defs>
<linearGradient id="paint0_linear_7615_1407" x1="35.9248" y1="0" x2="35.9248" y2="58" gradientUnits="userSpaceOnUse">
<stop stop-color="white"/>
<stop offset="1" stop-color="white" stop-opacity="0.3"/>
</linearGradient>
</defs>
</svg>
