<svg width="19" height="30" viewBox="0 0 19 30" fill="none" xmlns="http://www.w3.org/2000/svg">
<path fill-rule="evenodd" clip-rule="evenodd" d="M9.5 0C8.7636 0 8.16667 0.610527 8.16667 1.36364V2.72727H6.83333C4.65227 2.72727 2.91173 3.55049 1.72547 4.87402C0.55884 6.17561 0 7.8797 0 9.54545C0 11.2112 0.55884 12.9153 1.72547 14.2169C1.94447 14.4612 2.18236 14.6885 2.43843 14.8968C3.5694 15.8163 5.05493 16.3636 6.83333 16.3636H8.16667V24.5455H6.83333C5.73332 24.5455 4.99695 24.2681 4.4896 23.9221C3.97392 23.5706 3.61348 23.0921 3.35924 22.572C3.10237 22.0466 2.96731 21.5047 2.89852 21.0826C2.86439 20.8732 2.83881 20.6607 2.83332 20.4481C2.82981 19.6983 2.23412 19.0909 1.5 19.0909C0.763613 19.0909 0.166667 19.7014 0.166667 20.4545C0.166707 20.5462 0.169867 20.6341 0.180467 20.786C0.193414 20.9715 0.218667 21.2275 0.268147 21.531C0.366027 22.1317 0.56428 22.9534 0.974093 23.7916C1.38652 24.6352 2.02608 25.5203 3.0104 26.1915C4.00307 26.8683 5.26669 27.2727 6.83333 27.2727H8.16667V28.6364C8.16667 29.3895 8.7636 30 9.5 30C10.2364 30 10.8333 29.3895 10.8333 28.6364V27.2727H12.1667C14.3477 27.2727 16.0883 26.4495 17.2745 25.126C18.4412 23.8244 19 22.1204 19 20.4545C19 18.7887 18.4412 17.0847 17.2745 15.7831C16.0883 14.4596 14.3477 13.6364 12.1667 13.6364H10.8333V5.45455H12.1667C13.2667 5.45455 14.0031 5.73188 14.5104 6.0778C15.0261 6.4294 15.3865 6.90796 15.6408 7.42801C15.8976 7.95341 16.0327 8.49531 16.1015 8.91736C16.1356 9.12686 16.1612 9.33926 16.1667 9.5518C16.1703 10.3018 16.7659 10.9091 17.5 10.9091C18.2277 10.9091 18.8333 10.2878 18.8333 9.54406C18.8332 9.45289 18.8301 9.36505 18.8195 9.21393C18.8065 9.02853 18.7813 8.77257 18.7319 8.469C18.634 7.86833 18.4357 7.04659 18.0259 6.20835C17.6135 5.36476 16.9739 4.4797 15.9896 3.80857C14.9969 3.13175 13.7333 2.72727 12.1667 2.72727H10.8333V1.36364C10.8333 0.610527 10.2364 0 9.5 0ZM8.16667 5.45455H6.83333C5.34773 5.45455 4.33827 5.99497 3.6912 6.71689C3.02449 7.46076 2.66667 8.48393 2.66667 9.54545C2.66667 10.607 3.02449 11.6302 3.6912 12.374C4.33827 13.096 5.34773 13.6364 6.83333 13.6364H8.16667V5.45455ZM10.8333 16.3636V24.5455H12.1667C13.6523 24.5455 14.6617 24.005 15.3088 23.2831C15.9755 22.5393 16.3333 21.516 16.3333 20.4545C16.3333 19.3931 15.9755 18.3698 15.3088 17.626C14.6617 16.904 13.6523 16.3636 12.1667 16.3636H10.8333Z" fill="#A1E6F6"/>
</svg>
