<svg width="32" height="27" viewBox="0 0 32 27" fill="none" xmlns="http://www.w3.org/2000/svg">
<path d="M24.5333 25.9616L23.8372 26.7484C24.0397 26.9183 24.3002 27.0078 24.567 26.9995L24.5333 25.9616ZM22.2581 22.4055C21.8931 21.9555 21.2223 21.8786 20.7599 22.234C20.2975 22.5894 20.2187 23.2423 20.5837 23.6926L22.2581 22.4055ZM23.1087 21.5553L22.7375 20.5816C22.7234 20.5868 22.7093 20.5922 22.6955 20.5978L23.1087 21.5553ZM19.4009 22.6259L19.2218 21.602L19.2044 21.6051L19.4009 22.6259ZM12.7781 22.601L12.5759 23.6205L12.5824 23.6218L12.7781 22.601ZM7.15232 20.6842L6.55925 21.5472C6.58266 21.5625 6.60668 21.5769 6.63123 21.5901L7.15232 20.6842ZM6.92228 20.5596L7.51443 19.6958C7.47748 19.6717 7.43904 19.6501 7.39932 19.6308L6.92228 20.5596ZM6.82003 20.485L7.57427 19.7506C7.50421 19.6825 7.42473 19.6241 7.33811 19.5772L6.82003 20.485ZM11.4162 23.6426C11.7812 23.1923 11.7022 22.5393 11.2397 22.1839C10.7773 21.8288 10.1066 21.9056 9.74161 22.3559L11.4162 23.6426ZM7.46667 25.9616L7.4329 26.9995C7.70447 27.008 7.96907 26.9151 8.17272 26.7401L7.46667 25.9616ZM1.06667 21.2815H0C0 21.3372 0.0045779 21.3926 0.0136896 21.4475L1.06667 21.2815ZM4.74882 3.65258L4.10882 2.82182C3.94547 2.9411 3.82074 3.10349 3.7494 3.28973L4.74882 3.65258ZM11.9341 1.03867L12.996 0.940201C12.9447 0.415885 12.4984 0.0119886 11.9575 0.000461778L11.9341 1.03867ZM11.128 3.75122C11.1839 4.32214 11.7046 4.74091 12.291 4.68653C12.8775 4.63216 13.3076 4.12523 13.2518 3.55428L11.128 3.75122ZM18.6497 3.62002C18.5747 4.18886 18.9875 4.70923 19.5718 4.7823C20.1561 4.85536 20.6906 4.45344 20.7657 3.88459L18.6497 3.62002ZM20.0657 1.03883L20.0423 0.000627909C19.5147 0.0119055 19.0749 0.397006 19.0077 0.906534L20.0657 1.03883ZM27.251 3.65275L28.2505 3.28989C28.179 3.10366 28.0544 2.94126 27.891 2.82201L27.251 3.65275ZM30.9333 21.2815L31.9863 21.4475C31.9955 21.3926 32 21.3372 32 21.2815H30.9333ZM13.8264 16.203L12.7597 16.1859V16.203H13.8264ZM24.5333 25.9616C25.2294 25.1749 25.2294 25.1749 25.2294 25.1749C25.2294 25.1747 25.2297 25.1749 25.2294 25.1749C25.2292 25.1747 25.2288 25.1743 25.2282 25.1739C25.2273 25.173 25.2258 25.1718 25.2237 25.1699C25.2196 25.1666 25.2132 25.1612 25.2049 25.1541C25.1883 25.1402 25.1635 25.1192 25.1315 25.092C25.0673 25.0378 24.9745 24.9587 24.8606 24.8609C24.6323 24.6648 24.3209 24.3942 23.9863 24.0951C23.2934 23.476 22.5801 22.8024 22.2581 22.4055L20.5837 23.6926C21.029 24.2415 21.8718 25.0245 22.5434 25.625C22.8911 25.9359 23.2137 26.2161 23.4492 26.4183C23.5671 26.5195 23.6636 26.6015 23.7308 26.6584C23.7643 26.6871 23.7905 26.7093 23.8086 26.7245C23.8176 26.732 23.8246 26.738 23.8295 26.7419C23.8319 26.744 23.8338 26.7455 23.8351 26.7467C23.8357 26.7471 23.8368 26.7479 23.8372 26.7484C23.837 26.7482 23.8374 26.7484 23.8372 26.7484C23.8372 26.7484 23.8372 26.7484 24.5333 25.9616ZM25.4626 19.2194C24.4817 19.8482 23.5567 20.2856 22.7375 20.5816L23.4797 22.5289C24.4503 22.1781 25.52 21.6695 26.6359 20.954L25.4626 19.2194ZM22.6955 20.5978C21.4867 21.0923 20.3377 21.4169 19.2218 21.602L19.58 23.6496C20.8676 23.4361 22.1734 23.0641 23.5217 22.5127L22.6955 20.5978ZM19.2044 21.6051C16.903 22.0253 14.7882 21.91 12.9738 21.5802L12.5824 23.6218C14.6034 23.9892 16.989 24.1225 19.5975 23.6465L19.2044 21.6051ZM12.9803 21.5814C11.6004 21.322 10.4106 20.9444 9.40693 20.5631L8.63042 22.4976C9.72328 22.9127 11.0404 23.3321 12.5759 23.6205L12.9803 21.5814ZM9.40693 20.5631C8.84802 20.3502 8.25732 20.0962 7.67341 19.778L6.63123 21.5901C7.32617 21.969 8.01293 22.2622 8.63042 22.4976L9.40693 20.5631ZM7.74541 19.821C7.64314 19.7544 7.54633 19.7085 7.51462 19.6931C7.46931 19.6711 7.48919 19.6794 7.51443 19.6958L6.33013 21.4234C6.43213 21.4896 6.52875 21.5353 6.56013 21.5505C6.60512 21.5725 6.58496 21.564 6.55925 21.5472L7.74541 19.821ZM7.39932 19.6308C7.44062 19.6507 7.4845 19.6777 7.52683 19.7105C7.56326 19.7388 7.58893 19.765 7.57427 19.7506L6.06579 21.2192C6.11509 21.2674 6.23819 21.3876 6.44527 21.4884L7.39932 19.6308ZM7.33811 19.5772C7.12693 19.463 6.96514 19.3672 6.85905 19.302C6.80604 19.2694 6.76704 19.2445 6.74287 19.2289C6.73077 19.221 6.72241 19.2154 6.71785 19.2125C6.71556 19.2108 6.71424 19.21 6.71388 19.2098C6.71401 19.2098 6.71499 19.2104 6.71516 19.2106C6.71522 19.2108 6.71571 19.211 6.10404 20.0618C5.49239 20.9125 5.49248 20.9127 5.49254 20.9127C5.49278 20.9129 5.4935 20.9133 5.49378 20.9135C5.49429 20.9139 5.49489 20.9143 5.49553 20.9147C5.49683 20.9156 5.49839 20.9166 5.5002 20.9179C5.50381 20.9203 5.50842 20.9233 5.51403 20.927C5.52525 20.9345 5.54046 20.9446 5.55953 20.9569C5.5977 20.9816 5.65139 21.0159 5.71985 21.058C5.85668 21.1422 6.05289 21.2581 6.30195 21.3928L7.33811 19.5772ZM9.74161 22.3559C9.41602 22.7576 8.69818 23.4459 8.00582 24.0775C7.67081 24.3832 7.35874 24.6602 7.13026 24.8611C7.01613 24.9614 6.92316 25.0424 6.85897 25.0981C6.82688 25.1261 6.80201 25.1475 6.78528 25.162C6.77692 25.1691 6.7706 25.1747 6.76646 25.1782C6.76437 25.1801 6.76284 25.1813 6.76188 25.1822C6.76139 25.1826 6.76209 25.182 6.76188 25.1822C6.76177 25.1824 6.76064 25.1832 6.7606 25.1832C6.76062 25.1832 6.76062 25.1832 7.46667 25.9616C8.17272 26.7401 8.17267 26.7401 8.17272 26.7401C8.17308 26.7398 8.17423 26.7388 8.17487 26.7382C8.17615 26.7371 8.17798 26.7355 8.18037 26.7334C8.18515 26.7293 8.19209 26.7232 8.20111 26.7155C8.21912 26.7 8.24538 26.6773 8.27891 26.6483C8.34596 26.5899 8.4422 26.506 8.55994 26.4026C8.79516 26.1957 9.11735 25.9097 9.46451 25.593C10.1365 24.9799 10.9748 24.1871 11.4162 23.6426L9.74161 22.3559ZM7.50044 24.9238C5.0137 24.847 3.70724 23.8409 2.99763 22.9291C2.62948 22.456 2.40553 21.9852 2.27462 21.634C2.20956 21.4595 2.16873 21.3179 2.14511 21.2252C2.13332 21.1791 2.12591 21.1455 2.12196 21.1264C2.11999 21.1168 2.11888 21.111 2.11853 21.1091C2.11834 21.1081 2.11836 21.1083 2.11853 21.1091C2.11863 21.1098 2.1188 21.1108 2.11898 21.1118C2.11907 21.1123 2.11917 21.1129 2.11928 21.1135C2.11925 21.1135 2.11934 21.1139 2.11928 21.1135C2.11937 21.1141 2.11964 21.1158 1.06667 21.2815C0.0136896 21.4475 0.0135847 21.4468 0.0136896 21.4475C0.0137286 21.4477 0.0140438 21.4495 0.0141222 21.45C0.0142794 21.451 0.0144497 21.452 0.0146333 21.4531C0.0150006 21.4551 0.0154213 21.4576 0.0158976 21.4603C0.0168502 21.4657 0.0180254 21.4722 0.0194403 21.4799C0.0222697 21.495 0.0260604 21.5145 0.0309498 21.538C0.0407236 21.5852 0.0549188 21.6485 0.074646 21.7258C0.114039 21.8803 0.175863 22.0921 0.269286 22.3426C0.455373 22.8417 0.771804 23.5082 1.29724 24.1834C2.37481 25.5681 4.26837 26.9021 7.4329 26.9995L7.50044 24.9238ZM2.13333 21.2815C2.13333 17.4056 3.02733 13.0989 3.93929 9.72539C4.39317 8.04635 4.84715 6.61417 5.1872 5.60299C5.35716 5.09761 5.49845 4.69804 5.59678 4.42605C5.64593 4.29007 5.68433 4.18604 5.71019 4.11667C5.72311 4.08201 5.73289 4.056 5.73931 4.03899C5.74253 4.0305 5.7449 4.02427 5.74639 4.02032C5.74714 4.01835 5.74769 4.01696 5.74799 4.01613C5.74797 4.01617 5.74827 4.01542 4.74882 3.65258C3.7494 3.28973 3.74948 3.28954 3.7494 3.28973C3.74935 3.28985 3.7495 3.28948 3.7494 3.28973C3.74923 3.29018 3.74861 3.29178 3.74833 3.29253C3.74773 3.29405 3.74694 3.29614 3.74592 3.29882C3.74389 3.30418 3.74097 3.31187 3.73722 3.32179C3.72971 3.34167 3.71881 3.37062 3.70477 3.40832C3.67667 3.48369 3.63597 3.59401 3.58445 3.73653C3.48139 4.02159 3.33502 4.43564 3.15977 4.95674C2.80943 5.99847 2.34285 7.47057 1.87621 9.19679C0.947085 12.6338 0 17.1416 0 21.2815H2.13333ZM5.38884 4.48335C7.09436 3.23801 8.75236 2.63673 9.97517 2.34625C10.5867 2.20097 11.0877 2.13386 11.4282 2.10298C11.5983 2.08755 11.7279 2.08119 11.8106 2.07862C11.8519 2.07733 11.8814 2.077 11.8984 2.07694C11.9069 2.07689 11.9123 2.07691 11.9143 2.07694C11.914 2.07694 11.9128 2.07691 11.9123 2.07689C11.9121 2.07689 11.9124 2.07689 11.9123 2.07689C11.9119 2.07687 11.9108 2.07687 11.9341 1.03867C11.9575 0.000461707 11.958 0.000461778 11.9575 0.000461778C11.9573 0.000461778 11.956 0.000420183 11.9557 0.000420183C11.955 0.000399414 11.9543 0.000399358 11.9535 0.000378589C11.9519 0.00035782 11.9501 0.000316416 11.9482 0.000295647C11.9442 0.000229186 11.9393 0.000166859 11.9336 0.000117013C11.9222 1.73215e-05 11.9075 -4.0821e-05 11.8894 3.39478e-05C11.8533 0.000183485 11.804 0.000856331 11.7423 0.00278786C11.619 0.00663014 11.4461 0.0154362 11.2303 0.0350215C10.7989 0.0741504 10.194 0.156417 9.46944 0.32853C8.02012 0.67284 6.08546 1.37851 4.10882 2.82182L5.38884 4.48335ZM10.8723 1.13711L11.128 3.75122L13.2518 3.55428L12.996 0.940201L10.8723 1.13711ZM20.7657 3.88459L21.1236 1.17113L19.0077 0.906534L18.6497 3.62002L20.7657 3.88459ZM20.0657 1.03883C20.0891 2.07704 20.0887 2.07704 20.0883 2.07706C20.0882 2.07706 20.0885 2.07706 20.0883 2.07706C20.0878 2.07708 20.0867 2.07708 20.0863 2.0771C20.0884 2.07708 20.093 2.07706 20.1015 2.0771C20.1184 2.07716 20.148 2.0775 20.1893 2.07878C20.272 2.08136 20.4016 2.08769 20.5717 2.10313C20.9122 2.13401 21.4131 2.20109 22.0247 2.34635C23.2474 2.63683 24.9054 3.23809 26.611 4.48349L27.891 2.82201C25.9145 1.37862 23.9797 0.672924 22.5303 0.328634C21.8059 0.156521 21.2009 0.0742752 20.7695 0.035167C20.5536 0.0156025 20.3807 0.00677548 20.2575 0.00293319C20.1958 0.00102243 20.1465 0.000357951 20.1104 0.000202183C20.0923 0.000129491 20.0775 0.000187648 20.0661 0.000295647C20.0604 0.000337185 20.0556 0.000399471 20.0516 0.000461778C20.0496 0.000482547 20.0478 0.000523951 20.0463 0.00054472C20.0455 0.000565489 20.0448 0.000586314 20.0441 0.000586314C20.0438 0.000586314 20.0443 0.000586314 20.0441 0.000586314C20.0437 0.000607083 20.0423 0.000627806 20.0657 1.03883ZM27.251 3.65275C26.2515 4.01561 26.2515 4.01552 26.2515 4.01546C26.2519 4.01629 26.2526 4.01854 26.2534 4.02051C26.2549 4.02445 26.2573 4.03071 26.2605 4.0392C26.2669 4.05619 26.2767 4.08219 26.2897 4.11688C26.3155 4.18622 26.3539 4.29026 26.403 4.42623C26.5013 4.6982 26.6428 5.09778 26.8126 5.60313C27.1526 6.61434 27.6066 8.04647 28.0606 9.72549C28.9726 13.099 29.8667 17.4056 29.8667 21.2815H32C32 17.1416 31.0528 12.6338 30.1237 9.19685C29.657 7.47065 29.1904 5.9986 28.8401 4.95686C28.6647 4.43577 28.5184 4.02171 28.4154 3.73668C28.3639 3.59416 28.3232 3.48383 28.295 3.40846C28.281 3.37077 28.2701 3.34182 28.2626 3.32194C28.2588 3.31201 28.256 3.30435 28.2539 3.29899C28.2528 3.29631 28.2522 3.29419 28.2515 3.29268C28.2513 3.29193 28.2505 3.29035 28.2505 3.28989C28.2502 3.28966 28.2505 3.29 28.2505 3.28989C28.2502 3.28969 28.2505 3.28989 27.251 3.65275ZM30.9333 21.2815C29.8803 21.1158 29.8805 21.1152 29.8805 21.1145C29.8805 21.1143 29.8805 21.115 29.8805 21.1145C29.8805 21.1139 29.881 21.1123 29.881 21.1118C29.8812 21.1108 29.8814 21.11 29.8814 21.1093C29.8816 21.1083 29.8816 21.1085 29.8814 21.1093C29.8812 21.1112 29.8801 21.1168 29.878 21.1264C29.8741 21.1455 29.8667 21.1791 29.8549 21.2252C29.8313 21.3179 29.7905 21.4595 29.7254 21.634C29.5945 21.9852 29.3705 22.456 29.0022 22.9291C28.2927 23.8409 26.9862 24.847 24.4996 24.9238L24.567 26.9995C27.7316 26.9021 29.6252 25.5681 30.7027 24.1834C31.2282 23.5082 31.5445 22.8419 31.7308 22.3426C31.8242 22.0921 31.8859 21.8803 31.9253 21.7258C31.9452 21.6485 31.9593 21.5852 31.9691 21.538C31.974 21.5145 31.9778 21.495 31.9806 21.4799C31.9819 21.4722 31.9831 21.4657 31.984 21.4603C31.9846 21.4576 31.9851 21.4551 31.9853 21.4531C31.9855 21.452 31.9857 21.451 31.9859 21.45C31.9859 21.4495 31.9863 21.4477 31.9863 21.4475C31.9863 21.4468 31.9863 21.4475 30.9333 21.2815ZM11.2182 12.4014C9.08228 12.4014 7.54349 14.202 7.54349 16.203H9.67682C9.67682 15.1671 10.4391 14.4783 11.2182 14.4783V12.4014ZM7.54349 16.203C7.54349 18.211 9.11424 20.0048 11.2182 20.0048V17.9279C10.4582 17.9279 9.67682 17.2323 9.67682 16.203H7.54349ZM11.2182 20.0048C13.3542 20.0048 14.893 18.2042 14.893 16.203H12.7597C12.7597 17.2391 11.9974 17.9279 11.2182 17.9279V20.0048ZM14.8929 16.2201C14.9273 14.1892 13.339 12.4014 11.2182 12.4014V14.4783C12.0123 14.4783 12.7767 15.1798 12.7597 16.1859L14.8929 16.2201ZM20.5516 12.4014C18.4157 12.4014 16.8766 14.2018 16.8766 16.203H19.0099C19.0099 15.1672 19.7722 14.4783 20.5516 14.4783V12.4014ZM16.8766 16.203C16.8766 18.2112 18.4479 20.0048 20.5516 20.0048V17.9279C19.7914 17.9279 19.0099 17.2321 19.0099 16.203H16.8766ZM20.5516 20.0048C22.6876 20.0048 24.2263 18.2042 24.2263 16.203H22.093C22.093 17.2392 21.3306 17.9279 20.5516 17.9279V20.0048ZM24.2263 16.203C24.2263 14.202 22.6876 12.4014 20.5516 12.4014V14.4783C21.3307 14.4783 22.093 15.1671 22.093 16.203H24.2263ZM7.97739 7.14262C11.0559 5.50807 13.5631 4.74543 16.005 4.74425C18.4463 4.74306 20.9497 5.50294 24.0207 7.14158L25.046 5.3203C21.7975 3.58689 18.9332 2.66593 16.0039 2.66734C13.0753 2.66875 10.2089 3.59212 6.95595 5.31924L7.97739 7.14262Z" fill="white"/>
</svg>
