<svg width="72" height="72" viewBox="0 0 72 72" fill="none" xmlns="http://www.w3.org/2000/svg">
<rect opacity="0.1" width="72" height="72" rx="10" fill="#A1E6F6"/>
<path d="M44.5333 48.9616L43.8372 49.7484C44.0397 49.9183 44.3002 50.0078 44.567 49.9995L44.5333 48.9616ZM42.2581 45.4055C41.8931 44.9555 41.2223 44.8786 40.7599 45.234C40.2975 45.5894 40.2187 46.2423 40.5837 46.6926L42.2581 45.4055ZM43.1087 44.5553L42.7375 43.5816C42.7234 43.5868 42.7093 43.5922 42.6955 43.5978L43.1087 44.5553ZM39.4009 45.6259L39.2218 44.602L39.2044 44.6051L39.4009 45.6259ZM32.7781 45.601L32.5759 46.6205L32.5824 46.6218L32.7781 45.601ZM27.1523 43.6842L26.5593 44.5472C26.5827 44.5625 26.6067 44.5769 26.6312 44.5901L27.1523 43.6842ZM26.9223 43.5596L27.5144 42.6958C27.4775 42.6717 27.439 42.6501 27.3993 42.6308L26.9223 43.5596ZM26.82 43.485L27.5743 42.7506C27.5042 42.6825 27.4247 42.6241 27.3381 42.5772L26.82 43.485ZM31.4162 46.6426C31.7812 46.1923 31.7022 45.5393 31.2397 45.1839C30.7773 44.8288 30.1066 44.9056 29.7416 45.3559L31.4162 46.6426ZM27.4667 48.9616L27.4329 49.9995C27.7045 50.008 27.9691 49.9151 28.1727 49.7401L27.4667 48.9616ZM21.0667 44.2815H20C20 44.3372 20.0046 44.3926 20.0137 44.4475L21.0667 44.2815ZM24.7488 26.6526L24.1088 25.8218C23.9455 25.9411 23.8207 26.1035 23.7494 26.2897L24.7488 26.6526ZM31.9341 24.0387L32.996 23.9402C32.9447 23.4159 32.4984 23.012 31.9575 23.0005L31.9341 24.0387ZM31.128 26.7512C31.1839 27.3221 31.7046 27.7409 32.291 27.6865C32.8775 27.6322 33.3076 27.1252 33.2518 26.5543L31.128 26.7512ZM38.6497 26.62C38.5747 27.1889 38.9875 27.7092 39.5718 27.7823C40.1561 27.8554 40.6906 27.4534 40.7657 26.8846L38.6497 26.62ZM40.0657 24.0388L40.0423 23.0006C39.5147 23.0119 39.0749 23.397 39.0077 23.9065L40.0657 24.0388ZM47.251 26.6527L48.2505 26.2899C48.179 26.1037 48.0544 25.9413 47.891 25.822L47.251 26.6527ZM50.9333 44.2815L51.9863 44.4475C51.9955 44.3926 52 44.3372 52 44.2815H50.9333ZM33.8264 39.203L32.7597 39.1859V39.203H33.8264ZM44.5333 48.9616C45.2294 48.1749 45.2294 48.1749 45.2294 48.1749C45.2294 48.1747 45.2297 48.1749 45.2294 48.1749C45.2292 48.1747 45.2288 48.1743 45.2282 48.1739C45.2273 48.173 45.2258 48.1718 45.2237 48.1699C45.2196 48.1666 45.2132 48.1612 45.2049 48.1541C45.1883 48.1402 45.1635 48.1192 45.1315 48.092C45.0673 48.0378 44.9745 47.9587 44.8606 47.8609C44.6323 47.6648 44.3209 47.3942 43.9863 47.0951C43.2934 46.476 42.5801 45.8024 42.2581 45.4055L40.5837 46.6926C41.029 47.2415 41.8718 48.0245 42.5434 48.625C42.8911 48.9359 43.2137 49.2161 43.4492 49.4183C43.5671 49.5195 43.6636 49.6015 43.7308 49.6584C43.7643 49.6871 43.7905 49.7093 43.8086 49.7245C43.8176 49.732 43.8246 49.738 43.8295 49.7419C43.8319 49.744 43.8338 49.7455 43.8351 49.7467C43.8357 49.7471 43.8368 49.7479 43.8372 49.7484C43.837 49.7482 43.8374 49.7484 43.8372 49.7484C43.8372 49.7484 43.8372 49.7484 44.5333 48.9616ZM45.4626 42.2194C44.4817 42.8482 43.5567 43.2856 42.7375 43.5816L43.4797 45.5289C44.4503 45.1781 45.52 44.6695 46.6359 43.954L45.4626 42.2194ZM42.6955 43.5978C41.4867 44.0923 40.3377 44.4169 39.2218 44.602L39.58 46.6496C40.8676 46.4361 42.1734 46.0641 43.5217 45.5127L42.6955 43.5978ZM39.2044 44.6051C36.903 45.0253 34.7882 44.91 32.9738 44.5802L32.5824 46.6218C34.6034 46.9892 36.989 47.1225 39.5975 46.6465L39.2044 44.6051ZM32.9803 44.5814C31.6004 44.322 30.4106 43.9444 29.4069 43.5631L28.6304 45.4976C29.7233 45.9127 31.0404 46.3321 32.5759 46.6205L32.9803 44.5814ZM29.4069 43.5631C28.848 43.3502 28.2573 43.0962 27.6734 42.778L26.6312 44.5901C27.3262 44.969 28.0129 45.2622 28.6304 45.4976L29.4069 43.5631ZM27.7454 42.821C27.6431 42.7544 27.5463 42.7085 27.5146 42.6931C27.4693 42.6711 27.4892 42.6794 27.5144 42.6958L26.3301 44.4234C26.4321 44.4896 26.5287 44.5353 26.5601 44.5505C26.6051 44.5725 26.585 44.564 26.5593 44.5472L27.7454 42.821ZM27.3993 42.6308C27.4406 42.6507 27.4845 42.6777 27.5268 42.7105C27.5633 42.7388 27.5889 42.765 27.5743 42.7506L26.0658 44.2192C26.1151 44.2674 26.2382 44.3876 26.4453 44.4884L27.3993 42.6308ZM27.3381 42.5772C27.1269 42.463 26.9651 42.3672 26.8591 42.302C26.806 42.2694 26.767 42.2445 26.7429 42.2289C26.7308 42.221 26.7224 42.2154 26.7178 42.2125C26.7156 42.2108 26.7142 42.21 26.7139 42.2098C26.714 42.2098 26.715 42.2104 26.7152 42.2106C26.7152 42.2108 26.7157 42.211 26.104 43.0618C25.4924 43.9125 25.4925 43.9127 25.4925 43.9127C25.4928 43.9129 25.4935 43.9133 25.4938 43.9135C25.4943 43.9139 25.4949 43.9143 25.4955 43.9147C25.4968 43.9156 25.4984 43.9166 25.5002 43.9179C25.5038 43.9203 25.5084 43.9233 25.514 43.927C25.5252 43.9345 25.5405 43.9446 25.5595 43.9569C25.5977 43.9816 25.6514 44.0159 25.7199 44.058C25.8567 44.1422 26.0529 44.2581 26.302 44.3928L27.3381 42.5772ZM29.7416 45.3559C29.416 45.7576 28.6982 46.4459 28.0058 47.0775C27.6708 47.3832 27.3587 47.6602 27.1303 47.8611C27.0161 47.9614 26.9232 48.0424 26.859 48.0981C26.8269 48.1261 26.802 48.1475 26.7853 48.162C26.7769 48.1691 26.7706 48.1747 26.7665 48.1782C26.7644 48.1801 26.7628 48.1813 26.7619 48.1822C26.7614 48.1826 26.7621 48.182 26.7619 48.1822C26.7618 48.1824 26.7606 48.1832 26.7606 48.1832C26.7606 48.1832 26.7606 48.1832 27.4667 48.9616C28.1727 49.7401 28.1727 49.7401 28.1727 49.7401C28.1731 49.7398 28.1742 49.7388 28.1749 49.7382C28.1761 49.7371 28.178 49.7355 28.1804 49.7334C28.1852 49.7293 28.1921 49.7232 28.2011 49.7155C28.2191 49.7 28.2454 49.6773 28.2789 49.6483C28.346 49.5899 28.4422 49.506 28.5599 49.4026C28.7952 49.1957 29.1174 48.9097 29.4645 48.593C30.1365 47.9799 30.9748 47.1871 31.4162 46.6426L29.7416 45.3559ZM27.5004 47.9238C25.0137 47.847 23.7072 46.8409 22.9976 45.9291C22.6295 45.456 22.4055 44.9852 22.2746 44.634C22.2096 44.4595 22.1687 44.3179 22.1451 44.2252C22.1333 44.1791 22.1259 44.1455 22.122 44.1264C22.12 44.1168 22.1189 44.111 22.1185 44.1091C22.1183 44.1081 22.1184 44.1083 22.1185 44.1091C22.1186 44.1098 22.1188 44.1108 22.119 44.1118C22.1191 44.1123 22.1192 44.1129 22.1193 44.1135C22.1193 44.1135 22.1193 44.1139 22.1193 44.1135C22.1194 44.1141 22.1196 44.1158 21.0667 44.2815C20.0137 44.4475 20.0136 44.4468 20.0137 44.4475C20.0137 44.4477 20.014 44.4495 20.0141 44.45C20.0143 44.451 20.0144 44.452 20.0146 44.4531C20.015 44.4551 20.0154 44.4576 20.0159 44.4603C20.0169 44.4657 20.018 44.4722 20.0194 44.4799C20.0223 44.495 20.0261 44.5145 20.0309 44.538C20.0407 44.5852 20.0549 44.6485 20.0746 44.7258C20.114 44.8803 20.1759 45.0921 20.2693 45.3426C20.4554 45.8417 20.7718 46.5082 21.2972 47.1834C22.3748 48.5681 24.2684 49.9021 27.4329 49.9995L27.5004 47.9238ZM22.1333 44.2815C22.1333 40.4056 23.0273 36.0989 23.9393 32.7254C24.3932 31.0463 24.8471 29.6142 25.1872 28.603C25.3572 28.0976 25.4985 27.698 25.5968 27.426C25.6459 27.2901 25.6843 27.186 25.7102 27.1167C25.7231 27.082 25.7329 27.056 25.7393 27.039C25.7425 27.0305 25.7449 27.0243 25.7464 27.0203C25.7471 27.0183 25.7477 27.017 25.748 27.0161C25.748 27.0162 25.7483 27.0154 24.7488 26.6526C23.7494 26.2897 23.7495 26.2895 23.7494 26.2897C23.7494 26.2899 23.7495 26.2895 23.7494 26.2897C23.7492 26.2902 23.7486 26.2918 23.7483 26.2925C23.7477 26.294 23.7469 26.2961 23.7459 26.2988C23.7439 26.3042 23.741 26.3119 23.7372 26.3218C23.7297 26.3417 23.7188 26.3706 23.7048 26.4083C23.6767 26.4837 23.636 26.594 23.5844 26.7365C23.4814 27.0216 23.335 27.4356 23.1598 27.9567C22.8094 28.9985 22.3428 30.4706 21.8762 32.1968C20.9471 35.6338 20 40.1416 20 44.2815H22.1333ZM25.3888 27.4833C27.0944 26.238 28.7524 25.6367 29.9752 25.3462C30.5867 25.201 31.0877 25.1339 31.4282 25.103C31.5983 25.0875 31.7279 25.0812 31.8106 25.0786C31.8519 25.0773 31.8814 25.077 31.8984 25.0769C31.9069 25.0769 31.9123 25.0769 31.9143 25.0769C31.914 25.0769 31.9128 25.0769 31.9123 25.0769C31.9121 25.0769 31.9124 25.0769 31.9123 25.0769C31.9119 25.0769 31.9108 25.0769 31.9341 24.0387C31.9575 23.0005 31.958 23.0005 31.9575 23.0005C31.9573 23.0005 31.956 23.0004 31.9557 23.0004C31.955 23.0004 31.9543 23.0004 31.9535 23.0004C31.9519 23.0004 31.9501 23.0003 31.9482 23.0003C31.9442 23.0002 31.9393 23.0002 31.9336 23.0001C31.9222 23 31.9075 23 31.8894 23C31.8533 23.0002 31.804 23.0009 31.7423 23.0028C31.619 23.0066 31.4461 23.0154 31.2303 23.035C30.7989 23.0742 30.194 23.1564 29.4694 23.3285C28.0201 23.6728 26.0855 24.3785 24.1088 25.8218L25.3888 27.4833ZM30.8723 24.1371L31.128 26.7512L33.2518 26.5543L32.996 23.9402L30.8723 24.1371ZM40.7657 26.8846L41.1236 24.1711L39.0077 23.9065L38.6497 26.62L40.7657 26.8846ZM40.0657 24.0388C40.0891 25.077 40.0887 25.077 40.0883 25.0771C40.0882 25.0771 40.0885 25.0771 40.0883 25.0771C40.0878 25.0771 40.0867 25.0771 40.0863 25.0771C40.0884 25.0771 40.093 25.0771 40.1015 25.0771C40.1184 25.0772 40.148 25.0775 40.1893 25.0788C40.272 25.0814 40.4016 25.0877 40.5717 25.1031C40.9122 25.134 41.4131 25.2011 42.0247 25.3464C43.2474 25.6368 44.9054 26.2381 46.611 27.4835L47.891 25.822C45.9145 24.3786 43.9797 23.6729 42.5303 23.3286C41.8059 23.1565 41.2009 23.0743 40.7695 23.0352C40.5536 23.0156 40.3807 23.0068 40.2575 23.0029C40.1958 23.001 40.1465 23.0004 40.1104 23.0002C40.0923 23.0001 40.0775 23.0002 40.0661 23.0003C40.0604 23.0003 40.0556 23.0004 40.0516 23.0005C40.0496 23.0005 40.0478 23.0005 40.0463 23.0005C40.0455 23.0006 40.0448 23.0006 40.0441 23.0006C40.0438 23.0006 40.0443 23.0006 40.0441 23.0006C40.0437 23.0006 40.0423 23.0006 40.0657 24.0388ZM47.251 26.6527C46.2515 27.0156 46.2515 27.0155 46.2515 27.0155C46.2519 27.0163 46.2526 27.0185 46.2534 27.0205C46.2549 27.0245 46.2573 27.0307 46.2605 27.0392C46.2669 27.0562 46.2767 27.0822 46.2897 27.1169C46.3155 27.1862 46.3539 27.2903 46.403 27.4262C46.5013 27.6982 46.6428 28.0978 46.8126 28.6031C47.1526 29.6143 47.6066 31.0465 48.0606 32.7255C48.9726 36.099 49.8667 40.4056 49.8667 44.2815H52C52 40.1416 51.0528 35.6338 50.1237 32.1969C49.657 30.4707 49.1904 28.9986 48.8401 27.9569C48.6647 27.4358 48.5184 27.0217 48.4154 26.7367C48.3639 26.5942 48.3232 26.4838 48.295 26.4085C48.281 26.3708 48.2701 26.3418 48.2626 26.3219C48.2588 26.312 48.256 26.3043 48.2539 26.299C48.2528 26.2963 48.2522 26.2942 48.2515 26.2927C48.2513 26.2919 48.2505 26.2903 48.2505 26.2899C48.2502 26.2897 48.2505 26.29 48.2505 26.2899C48.2502 26.2897 48.2505 26.2899 47.251 26.6527ZM50.9333 44.2815C49.8803 44.1158 49.8805 44.1152 49.8805 44.1145C49.8805 44.1143 49.8805 44.115 49.8805 44.1145C49.8805 44.1139 49.881 44.1123 49.881 44.1118C49.8812 44.1108 49.8814 44.11 49.8814 44.1093C49.8816 44.1083 49.8816 44.1085 49.8814 44.1093C49.8812 44.1112 49.8801 44.1168 49.878 44.1264C49.8741 44.1455 49.8667 44.1791 49.8549 44.2252C49.8313 44.3179 49.7905 44.4595 49.7254 44.634C49.5945 44.9852 49.3705 45.456 49.0022 45.9291C48.2927 46.8409 46.9862 47.847 44.4996 47.9238L44.567 49.9995C47.7316 49.9021 49.6252 48.5681 50.7027 47.1834C51.2282 46.5082 51.5445 45.8419 51.7308 45.3426C51.8242 45.0921 51.8859 44.8803 51.9253 44.7258C51.9452 44.6485 51.9593 44.5852 51.9691 44.538C51.974 44.5145 51.9778 44.495 51.9806 44.4799C51.9819 44.4722 51.9831 44.4657 51.984 44.4603C51.9846 44.4576 51.9851 44.4551 51.9853 44.4531C51.9855 44.452 51.9857 44.451 51.9859 44.45C51.9859 44.4495 51.9863 44.4477 51.9863 44.4475C51.9863 44.4468 51.9863 44.4475 50.9333 44.2815ZM31.2182 35.4014C29.0823 35.4014 27.5435 37.202 27.5435 39.203H29.6768C29.6768 38.1671 30.4391 37.4783 31.2182 37.4783V35.4014ZM27.5435 39.203C27.5435 41.211 29.1142 43.0048 31.2182 43.0048V40.9279C30.4582 40.9279 29.6768 40.2323 29.6768 39.203H27.5435ZM31.2182 43.0048C33.3542 43.0048 34.893 41.2042 34.893 39.203H32.7597C32.7597 40.2391 31.9974 40.9279 31.2182 40.9279V43.0048ZM34.8929 39.2201C34.9273 37.1892 33.339 35.4014 31.2182 35.4014V37.4783C32.0123 37.4783 32.7767 38.1798 32.7597 39.1859L34.8929 39.2201ZM40.5516 35.4014C38.4157 35.4014 36.8766 37.2018 36.8766 39.203H39.0099C39.0099 38.1672 39.7722 37.4783 40.5516 37.4783V35.4014ZM36.8766 39.203C36.8766 41.2112 38.4479 43.0048 40.5516 43.0048V40.9279C39.7914 40.9279 39.0099 40.2321 39.0099 39.203H36.8766ZM40.5516 43.0048C42.6876 43.0048 44.2263 41.2042 44.2263 39.203H42.093C42.093 40.2392 41.3306 40.9279 40.5516 40.9279V43.0048ZM44.2263 39.203C44.2263 37.202 42.6876 35.4014 40.5516 35.4014V37.4783C41.3307 37.4783 42.093 38.1671 42.093 39.203H44.2263ZM27.9774 30.1426C31.0559 28.5081 33.5631 27.7454 36.005 27.7442C38.4463 27.7431 40.9497 28.5029 44.0207 30.1416L45.046 28.3203C41.7975 26.5869 38.9332 25.6659 36.0039 25.6673C33.0753 25.6688 30.2089 26.5921 26.9559 28.3192L27.9774 30.1426Z" fill="#A1E6F6"/>
</svg>
