<svg width="551" height="1182" viewBox="0 0 551 1182" fill="none" xmlns="http://www.w3.org/2000/svg">
<g opacity="0.4" filter="url(#filter0_f_2_559)">
<path d="M426.528 540.125C418.193 532.152 411.43 522.278 406.98 510.827C390.694 468.925 411.529 421.782 453.516 405.529C478.57 395.831 505.495 399.324 526.597 412.621C548.411 408.401 571.477 409.996 593.325 418.167C602.986 418.609 612.741 420.598 622.257 424.281C669.403 442.531 692.798 495.467 674.511 542.518C674.09 543.6 673.651 544.67 673.194 545.727C671.689 561.277 667.181 576.8 659.415 591.469C656.413 597.139 653.032 602.48 649.318 607.476C654.069 611.97 658.452 616.992 662.378 622.528C694.694 668.088 683.882 731.165 638.23 763.416C592.577 795.666 529.371 784.876 497.056 739.316C492.745 733.24 489.202 726.851 486.407 720.266C458.82 717.752 432.57 703.273 415.992 678.489C390.145 639.846 396.501 589.138 428.76 557.902C427.59 552.053 426.841 546.111 426.528 540.125Z" fill="url(#paint0_linear_2_559)"/>
<path d="M426.528 540.125C418.193 532.152 411.43 522.278 406.98 510.827C390.694 468.925 411.529 421.782 453.516 405.529C478.57 395.831 505.495 399.324 526.597 412.621C548.411 408.401 571.477 409.996 593.325 418.167C602.986 418.609 612.741 420.598 622.257 424.281C669.403 442.531 692.798 495.467 674.511 542.518C674.09 543.6 673.651 544.67 673.194 545.727C671.689 561.277 667.181 576.8 659.415 591.469C656.413 597.139 653.032 602.48 649.318 607.476C654.069 611.97 658.452 616.992 662.378 622.528C694.694 668.088 683.882 731.165 638.23 763.416C592.577 795.666 529.371 784.876 497.056 739.316C492.745 733.24 489.202 726.851 486.407 720.266C458.82 717.752 432.57 703.273 415.992 678.489C390.145 639.846 396.501 589.138 428.76 557.902C427.59 552.053 426.841 546.111 426.528 540.125Z" fill="black" fill-opacity="0.2"/>
</g>
<defs>
<filter id="filter0_f_2_559" x="0" y="0" width="1081" height="1182" filterUnits="userSpaceOnUse" color-interpolation-filters="sRGB">
<feFlood flood-opacity="0" result="BackgroundImageFix"/>
<feBlend mode="normal" in="SourceGraphic" in2="BackgroundImageFix" result="shape"/>
<feGaussianBlur stdDeviation="200" result="effect1_foregroundBlur_2_559"/>
</filter>
<linearGradient id="paint0_linear_2_559" x1="540.5" y1="400" x2="929.146" y2="480.913" gradientUnits="userSpaceOnUse">
<stop stop-color="#05D2FF"/>
<stop offset="0.609375" stop-color="#253FE0" stop-opacity="0.619792"/>
<stop offset="1" stop-color="#060ED0" stop-opacity="0.28"/>
</linearGradient>
</defs>
</svg>
