<svg width="189" height="20" viewBox="0 0 189 20" fill="none" xmlns="http://www.w3.org/2000/svg">
<path d="M0.199707 16.0625V0.3125H15.2935V1.95312H2.16846V7.20312H14.6372V8.84375H2.16846V16.0625H0.199707ZM29.0234 14.4424C29.0029 14.5244 28.8491 14.7295 28.562 15.0576C28.3569 15.3037 28.0835 15.5225 27.7417 15.7139C27.3999 15.8984 26.9419 16.042 26.3677 16.1445C25.8003 16.2539 25.0518 16.3086 24.1221 16.3086C22.8848 16.3086 21.8286 16.2437 20.9536 16.1138C20.0786 15.9907 19.3643 15.7993 18.8105 15.5396C18.2568 15.2729 17.8501 14.9346 17.5903 14.5244C17.3374 14.1143 17.2109 13.6255 17.2109 13.0581C17.2109 12.4634 17.2793 11.9609 17.416 11.5508C17.5596 11.1338 17.7646 10.7852 18.0312 10.5049C18.3047 10.2246 18.6328 10.0059 19.0156 9.84863C19.3984 9.69141 19.8325 9.57178 20.3179 9.48975C20.8101 9.40771 21.3467 9.35645 21.9277 9.33594C22.5088 9.31543 23.1274 9.30518 23.7837 9.30518C24.7202 9.30518 25.5029 9.34619 26.1318 9.42822C26.7607 9.50342 27.2734 9.60254 27.6699 9.72559C28.0732 9.8418 28.3774 9.96826 28.5825 10.105C28.7876 10.2417 28.9346 10.3682 29.0234 10.4844C29.0234 9.71875 28.9893 9.06592 28.9209 8.52588C28.8594 7.98584 28.7534 7.53467 28.603 7.17236C28.4595 6.81006 28.2715 6.52295 28.0391 6.31104C27.8066 6.09229 27.5195 5.92822 27.1777 5.81885C26.8428 5.70947 26.4497 5.64111 25.9985 5.61377C25.5474 5.57959 25.0312 5.5625 24.4502 5.5625C23.5479 5.5625 22.7993 5.58643 22.2046 5.63428C21.6099 5.67529 21.1382 5.76074 20.7896 5.89062C20.4409 6.02051 20.1948 6.20166 20.0513 6.43408C19.9077 6.65967 19.8359 6.95703 19.8359 7.32617H17.8672C17.8672 6.7041 17.9766 6.17773 18.1953 5.74707C18.4209 5.31641 18.79 4.96777 19.3027 4.70117C19.8223 4.42773 20.5024 4.22949 21.3433 4.10645C22.1841 3.9834 23.2197 3.92188 24.4502 3.92188C25.6533 3.92188 26.6719 4.021 27.5059 4.21924C28.3398 4.41748 29.0132 4.76611 29.5259 5.26514C30.0454 5.76416 30.418 6.4375 30.6436 7.28516C30.876 8.12598 30.9922 9.19238 30.9922 10.4844V16.0625H29.0234V14.4424ZM24.4502 14.75C25.3184 14.75 26.043 14.709 26.624 14.627C27.2119 14.5449 27.6836 14.4219 28.0391 14.2578C28.3945 14.0938 28.6475 13.8887 28.7979 13.6426C28.9482 13.3965 29.0234 13.1094 29.0234 12.7812C29.0234 12.4531 28.9346 12.1763 28.7568 11.9507C28.5859 11.7183 28.2954 11.5303 27.8853 11.3867C27.4819 11.2432 26.9453 11.1406 26.2754 11.0791C25.6055 11.0107 24.7783 10.9766 23.7939 10.9766C22.8096 10.9766 22.0132 10.9937 21.4048 11.0278C20.8032 11.062 20.3384 11.1406 20.0103 11.2637C19.6821 11.3867 19.46 11.5679 19.3438 11.8071C19.2344 12.0464 19.1797 12.3711 19.1797 12.7812C19.1797 13.1914 19.2378 13.5264 19.354 13.7861C19.4771 14.0391 19.7231 14.2373 20.0923 14.3809C20.4614 14.5244 20.9912 14.6235 21.6816 14.6782C22.3789 14.7261 23.3018 14.75 24.4502 14.75ZM40.5181 10.6792C39.5884 10.6792 38.7715 10.6655 38.0674 10.6382C37.3633 10.6108 36.7549 10.5562 36.2422 10.4741C35.7363 10.3853 35.3125 10.2622 34.9707 10.105C34.6357 9.94775 34.3691 9.73926 34.1709 9.47949C33.9727 9.21289 33.8325 8.88818 33.7505 8.50537C33.6685 8.11572 33.6274 7.69531 33.6274 7.24414C33.6274 6.62891 33.7573 6.11279 34.0171 5.6958C34.2769 5.27197 34.6938 4.93018 35.2681 4.67041C35.8423 4.40381 36.5874 4.2124 37.5034 4.09619C38.4194 3.97998 39.5337 3.92188 40.8462 3.92188C42.145 3.92188 43.2148 3.99023 44.0557 4.12695C44.9033 4.26367 45.5732 4.47559 46.0654 4.7627C46.5645 5.04297 46.9131 5.39844 47.1113 5.8291C47.3096 6.25977 47.4087 6.77246 47.4087 7.36719H45.4399C45.4399 6.99805 45.3682 6.69727 45.2246 6.46484C45.0879 6.23242 44.8452 6.05127 44.4966 5.92139C44.1479 5.78467 43.6763 5.69238 43.0815 5.64453C42.4937 5.58984 41.7485 5.5625 40.8462 5.5625C39.8618 5.5625 39.0347 5.57617 38.3647 5.60352C37.6948 5.63086 37.1548 5.69922 36.7446 5.80859C36.3345 5.91797 36.0405 6.08545 35.8628 6.31104C35.6851 6.53662 35.5962 6.84766 35.5962 7.24414C35.5962 7.47656 35.6099 7.70557 35.6372 7.93115C35.6714 8.1499 35.7432 8.33105 35.8525 8.47461C35.9619 8.61816 36.1226 8.72754 36.3345 8.80273C36.5464 8.87793 36.8335 8.93604 37.1958 8.97705C37.5649 9.01123 38.0195 9.03174 38.5596 9.03857C39.0996 9.03857 39.7524 9.03857 40.5181 9.03857C41.4478 9.03857 42.2612 9.05908 42.9585 9.1001C43.6626 9.14111 44.271 9.21289 44.7837 9.31543C45.2964 9.41797 45.7202 9.5752 46.0552 9.78711C46.3901 9.99902 46.6567 10.2314 46.855 10.4844C47.0601 10.7305 47.2036 11.0244 47.2856 11.3662C47.3677 11.7012 47.4087 12.0908 47.4087 12.5352C47.4087 12.9795 47.3677 13.3794 47.2856 13.7349C47.2036 14.0835 47.0601 14.3945 46.855 14.668C46.6499 14.9346 46.3696 15.167 46.0142 15.3652C45.6655 15.5566 45.2246 15.7139 44.6914 15.8369C44.1582 15.9531 43.519 16.0386 42.7739 16.0933C42.0356 16.1548 41.1743 16.1855 40.1899 16.1855C38.9595 16.1855 37.9238 16.124 37.083 16.001C36.249 15.8779 35.5757 15.6831 35.063 15.4165C34.5503 15.1431 34.1812 14.791 33.9556 14.3604C33.7368 13.9297 33.6274 13.4033 33.6274 12.7812H35.5962C35.5962 13.1914 35.6646 13.5264 35.8013 13.7861C35.9448 14.0391 36.1909 14.2373 36.5396 14.3809C36.8882 14.5244 37.3564 14.6235 37.9443 14.6782C38.5391 14.7261 39.2876 14.75 40.1899 14.75C41.0103 14.75 41.7075 14.7329 42.2817 14.6987C42.8628 14.6577 43.3481 14.5962 43.7378 14.5142C44.1274 14.4321 44.4351 14.333 44.6606 14.2168C44.8862 14.1006 45.0571 13.9604 45.1733 13.7964C45.2896 13.6323 45.3613 13.4512 45.3887 13.2529C45.4229 13.0479 45.4399 12.8223 45.4399 12.5762C45.4399 12.3506 45.4229 12.1523 45.3887 11.9814C45.3613 11.8037 45.293 11.6294 45.1836 11.4585C45.0742 11.2808 44.9136 11.1475 44.7017 11.0586C44.4897 10.9697 44.1992 10.8979 43.8301 10.8433C43.4678 10.7817 43.0166 10.7407 42.4766 10.7202C41.9365 10.6929 41.2837 10.6792 40.5181 10.6792ZM61.5181 10.8125C61.5181 11.8174 61.436 12.6582 61.272 13.335C61.1079 14.0049 60.8311 14.5415 60.4414 14.9448C60.0586 15.3481 59.5527 15.6353 58.9238 15.8062C58.2949 15.9771 57.519 16.0625 56.5962 16.0625C55.7007 16.0625 54.9487 15.9941 54.3403 15.8574C53.7319 15.7207 53.2397 15.4883 52.8638 15.1602C52.4878 14.832 52.2178 14.3945 52.0537 13.8477C51.8896 13.3008 51.8076 12.6172 51.8076 11.7969V5.87012H49.3774V4.25H51.8076V1.02002H53.7764V4.25H61.1899V5.87012H53.7764V11.7969C53.7764 12.4531 53.8242 12.959 53.9199 13.3145C54.0225 13.6699 54.1831 13.9297 54.4019 14.0938C54.6206 14.2578 54.9077 14.3535 55.2632 14.3809C55.6255 14.4082 56.0664 14.4219 56.5859 14.4219C56.9961 14.4219 57.3618 14.415 57.6831 14.4014C58.0112 14.3877 58.2949 14.3467 58.5342 14.2783C58.7803 14.2031 58.9888 14.0938 59.1597 13.9502C59.3306 13.7998 59.4673 13.5913 59.5698 13.3247C59.6792 13.0581 59.7578 12.7231 59.8057 12.3198C59.8535 11.9097 59.8774 11.4072 59.8774 10.8125H61.5181ZM80.498 14.4424C80.4775 14.5244 80.3237 14.7295 80.0366 15.0576C79.8315 15.3037 79.5581 15.5225 79.2163 15.7139C78.8745 15.8984 78.4165 16.042 77.8423 16.1445C77.2749 16.2539 76.5264 16.3086 75.5967 16.3086C74.3594 16.3086 73.3032 16.2437 72.4282 16.1138C71.5532 15.9907 70.8389 15.7993 70.2852 15.5396C69.7314 15.2729 69.3247 14.9346 69.0649 14.5244C68.812 14.1143 68.6855 13.6255 68.6855 13.0581C68.6855 12.4634 68.7539 11.9609 68.8906 11.5508C69.0342 11.1338 69.2393 10.7852 69.5059 10.5049C69.7793 10.2246 70.1074 10.0059 70.4902 9.84863C70.873 9.69141 71.3071 9.57178 71.7925 9.48975C72.2847 9.40771 72.8213 9.35645 73.4023 9.33594C73.9834 9.31543 74.6021 9.30518 75.2583 9.30518C76.1948 9.30518 76.9775 9.34619 77.6064 9.42822C78.2354 9.50342 78.748 9.60254 79.1445 9.72559C79.5479 9.8418 79.8521 9.96826 80.0571 10.105C80.2622 10.2417 80.4092 10.3682 80.498 10.4844C80.498 9.71875 80.4639 9.06592 80.3955 8.52588C80.334 7.98584 80.228 7.53467 80.0776 7.17236C79.9341 6.81006 79.7461 6.52295 79.5137 6.31104C79.2812 6.09229 78.9941 5.92822 78.6523 5.81885C78.3174 5.70947 77.9243 5.64111 77.4731 5.61377C77.022 5.57959 76.5059 5.5625 75.9248 5.5625C75.0225 5.5625 74.2739 5.58643 73.6792 5.63428C73.0845 5.67529 72.6128 5.76074 72.2642 5.89062C71.9155 6.02051 71.6694 6.20166 71.5259 6.43408C71.3823 6.65967 71.3105 6.95703 71.3105 7.32617H69.3418C69.3418 6.7041 69.4512 6.17773 69.6699 5.74707C69.8955 5.31641 70.2646 4.96777 70.7773 4.70117C71.2969 4.42773 71.9771 4.22949 72.8179 4.10645C73.6587 3.9834 74.6943 3.92188 75.9248 3.92188C77.1279 3.92188 78.1465 4.021 78.9805 4.21924C79.8145 4.41748 80.4878 4.76611 81.0005 5.26514C81.52 5.76416 81.8926 6.4375 82.1182 7.28516C82.3506 8.12598 82.4668 9.19238 82.4668 10.4844V16.0625H80.498V14.4424ZM75.9248 14.75C76.793 14.75 77.5176 14.709 78.0986 14.627C78.6865 14.5449 79.1582 14.4219 79.5137 14.2578C79.8691 14.0938 80.1221 13.8887 80.2725 13.6426C80.4229 13.3965 80.498 13.1094 80.498 12.7812C80.498 12.4531 80.4092 12.1763 80.2314 11.9507C80.0605 11.7183 79.77 11.5303 79.3599 11.3867C78.9565 11.2432 78.4199 11.1406 77.75 11.0791C77.0801 11.0107 76.2529 10.9766 75.2686 10.9766C74.2842 10.9766 73.4878 10.9937 72.8794 11.0278C72.2778 11.062 71.813 11.1406 71.4849 11.2637C71.1567 11.3867 70.9346 11.5679 70.8184 11.8071C70.709 12.0464 70.6543 12.3711 70.6543 12.7812C70.6543 13.1914 70.7124 13.5264 70.8286 13.7861C70.9517 14.0391 71.1978 14.2373 71.5669 14.3809C71.936 14.5244 72.4658 14.6235 73.1562 14.6782C73.8535 14.7261 74.7764 14.75 75.9248 14.75ZM96.9146 16.0625V9.5C96.9146 8.76855 96.8599 8.15332 96.7505 7.6543C96.6411 7.14844 96.4224 6.7417 96.0942 6.43408C95.7661 6.12646 95.3013 5.9043 94.6997 5.76758C94.0981 5.63086 93.3052 5.5625 92.3208 5.5625C91.2544 5.5625 90.3794 5.64111 89.6958 5.79834C89.019 5.95557 88.4858 6.17773 88.0962 6.46484C87.7065 6.75195 87.4365 7.09717 87.2861 7.50049C87.1426 7.90381 87.0708 8.35156 87.0708 8.84375V16.0625H85.1021V4.25H87.0708V6.21875C87.2144 5.88379 87.4194 5.59668 87.686 5.35742C87.9526 5.11133 88.2534 4.90283 88.5884 4.73193C88.9233 4.56104 89.2856 4.42432 89.6753 4.32178C90.0649 4.2124 90.4546 4.13037 90.8442 4.07568C91.2339 4.01416 91.6099 3.97314 91.9722 3.95264C92.3413 3.93213 92.6763 3.92188 92.9771 3.92188C93.8521 3.92188 94.604 3.97656 95.2329 4.08594C95.8687 4.19531 96.4053 4.35596 96.8428 4.56787C97.2871 4.77979 97.6426 5.04297 97.9092 5.35742C98.1758 5.67188 98.3809 6.0376 98.5244 6.45459C98.6748 6.86475 98.7739 7.32617 98.8218 7.83887C98.8696 8.34473 98.8936 8.89844 98.8936 9.5L98.8833 16.0625H96.9146ZM108.419 16.2881C107.107 16.2881 105.993 16.1924 105.077 16.001C104.161 15.8096 103.416 15.4814 102.841 15.0166C102.267 14.5518 101.85 13.9263 101.59 13.1401C101.331 12.354 101.201 11.3662 101.201 10.1768C101.201 8.94629 101.331 7.92773 101.59 7.12109C101.85 6.31445 102.267 5.67529 102.841 5.20361C103.416 4.73193 104.161 4.40039 105.077 4.20898C105.993 4.01758 107.107 3.92188 108.419 3.92188C109.349 3.92188 110.128 3.96973 110.757 4.06543C111.386 4.16113 111.899 4.28076 112.295 4.42432C112.699 4.56787 113.003 4.7251 113.208 4.896C113.42 5.06006 113.574 5.21387 113.669 5.35742V0.3125H115.638V16.0625H113.669V14.3091C113.669 14.3091 113.505 14.5039 113.177 14.8936C112.89 15.1738 112.572 15.3994 112.224 15.5703C111.875 15.7412 111.386 15.9053 110.757 16.0625C110.128 16.2129 109.349 16.2881 108.419 16.2881ZM108.419 14.75C109.076 14.75 109.66 14.7363 110.173 14.709C110.686 14.6748 111.137 14.6064 111.526 14.5039C111.916 14.4014 112.244 14.251 112.511 14.0527C112.784 13.8477 113.006 13.5776 113.177 13.2427C113.348 12.9077 113.471 12.4941 113.546 12.002C113.628 11.5029 113.669 10.9048 113.669 10.2075C113.669 9.48291 113.628 8.86768 113.546 8.36182C113.471 7.84912 113.348 7.42188 113.177 7.08008C113.006 6.73145 112.784 6.45801 112.511 6.25977C112.244 6.06152 111.916 5.91113 111.526 5.80859C111.137 5.69922 110.686 5.63086 110.173 5.60352C109.66 5.57617 109.076 5.5625 108.419 5.5625C107.654 5.5625 106.991 5.58643 106.43 5.63428C105.876 5.68213 105.405 5.76758 105.015 5.89062C104.625 6.01367 104.308 6.18457 104.062 6.40332C103.822 6.62207 103.634 6.90234 103.498 7.24414C103.368 7.58594 103.279 7.99951 103.231 8.48486C103.19 8.96338 103.169 9.52734 103.169 10.1768C103.169 10.8193 103.19 11.3799 103.231 11.8584C103.279 12.3301 103.368 12.7368 103.498 13.0786C103.634 13.4136 103.822 13.6904 104.062 13.9092C104.308 14.1279 104.625 14.2988 105.015 14.4219C105.405 14.5449 105.876 14.6304 106.43 14.6782C106.991 14.7261 107.654 14.75 108.419 14.75ZM123.513 16.0625V0.3125H139.263V1.95312H125.482V7.20312H138.607V8.84375H125.482V14.4219H139.263V16.0625H123.513ZM152.993 14.4424C152.973 14.5244 152.819 14.7295 152.532 15.0576C152.327 15.3037 152.053 15.5225 151.711 15.7139C151.37 15.8984 150.912 16.042 150.337 16.1445C149.77 16.2539 149.021 16.3086 148.092 16.3086C146.854 16.3086 145.798 16.2437 144.923 16.1138C144.048 15.9907 143.334 15.7993 142.78 15.5396C142.227 15.2729 141.82 14.9346 141.56 14.5244C141.307 14.1143 141.181 13.6255 141.181 13.0581C141.181 12.4634 141.249 11.9609 141.386 11.5508C141.529 11.1338 141.734 10.7852 142.001 10.5049C142.274 10.2246 142.603 10.0059 142.985 9.84863C143.368 9.69141 143.802 9.57178 144.288 9.48975C144.78 9.40771 145.316 9.35645 145.897 9.33594C146.479 9.31543 147.097 9.30518 147.753 9.30518C148.69 9.30518 149.473 9.34619 150.102 9.42822C150.73 9.50342 151.243 9.60254 151.64 9.72559C152.043 9.8418 152.347 9.96826 152.552 10.105C152.757 10.2417 152.904 10.3682 152.993 10.4844C152.993 9.71875 152.959 9.06592 152.891 8.52588C152.829 7.98584 152.723 7.53467 152.573 7.17236C152.429 6.81006 152.241 6.52295 152.009 6.31104C151.776 6.09229 151.489 5.92822 151.147 5.81885C150.812 5.70947 150.419 5.64111 149.968 5.61377C149.517 5.57959 149.001 5.5625 148.42 5.5625C147.518 5.5625 146.769 5.58643 146.174 5.63428C145.58 5.67529 145.108 5.76074 144.759 5.89062C144.411 6.02051 144.165 6.20166 144.021 6.43408C143.877 6.65967 143.806 6.95703 143.806 7.32617H141.837C141.837 6.7041 141.946 6.17773 142.165 5.74707C142.391 5.31641 142.76 4.96777 143.272 4.70117C143.792 4.42773 144.472 4.22949 145.313 4.10645C146.154 3.9834 147.189 3.92188 148.42 3.92188C149.623 3.92188 150.642 4.021 151.476 4.21924C152.31 4.41748 152.983 4.76611 153.496 5.26514C154.015 5.76416 154.388 6.4375 154.613 7.28516C154.846 8.12598 154.962 9.19238 154.962 10.4844V16.0625H152.993V14.4424ZM148.42 14.75C149.288 14.75 150.013 14.709 150.594 14.627C151.182 14.5449 151.653 14.4219 152.009 14.2578C152.364 14.0938 152.617 13.8887 152.768 13.6426C152.918 13.3965 152.993 13.1094 152.993 12.7812C152.993 12.4531 152.904 12.1763 152.727 11.9507C152.556 11.7183 152.265 11.5303 151.855 11.3867C151.452 11.2432 150.915 11.1406 150.245 11.0791C149.575 11.0107 148.748 10.9766 147.764 10.9766C146.779 10.9766 145.983 10.9937 145.375 11.0278C144.773 11.062 144.308 11.1406 143.98 11.2637C143.652 11.3867 143.43 11.5679 143.313 11.8071C143.204 12.0464 143.149 12.3711 143.149 12.7812C143.149 13.1914 143.208 13.5264 143.324 13.7861C143.447 14.0391 143.693 14.2373 144.062 14.3809C144.431 14.5244 144.961 14.6235 145.651 14.6782C146.349 14.7261 147.271 14.75 148.42 14.75ZM164.488 10.6792C163.558 10.6792 162.741 10.6655 162.037 10.6382C161.333 10.6108 160.725 10.5562 160.212 10.4741C159.706 10.3853 159.282 10.2622 158.94 10.105C158.605 9.94775 158.339 9.73926 158.141 9.47949C157.942 9.21289 157.802 8.88818 157.72 8.50537C157.638 8.11572 157.597 7.69531 157.597 7.24414C157.597 6.62891 157.727 6.11279 157.987 5.6958C158.247 5.27197 158.664 4.93018 159.238 4.67041C159.812 4.40381 160.557 4.2124 161.473 4.09619C162.389 3.97998 163.503 3.92188 164.816 3.92188C166.115 3.92188 167.185 3.99023 168.025 4.12695C168.873 4.26367 169.543 4.47559 170.035 4.7627C170.534 5.04297 170.883 5.39844 171.081 5.8291C171.279 6.25977 171.378 6.77246 171.378 7.36719H169.41C169.41 6.99805 169.338 6.69727 169.194 6.46484C169.058 6.23242 168.815 6.05127 168.466 5.92139C168.118 5.78467 167.646 5.69238 167.051 5.64453C166.463 5.58984 165.718 5.5625 164.816 5.5625C163.832 5.5625 163.004 5.57617 162.334 5.60352C161.665 5.63086 161.125 5.69922 160.714 5.80859C160.304 5.91797 160.01 6.08545 159.833 6.31104C159.655 6.53662 159.566 6.84766 159.566 7.24414C159.566 7.47656 159.58 7.70557 159.607 7.93115C159.641 8.1499 159.713 8.33105 159.822 8.47461C159.932 8.61816 160.092 8.72754 160.304 8.80273C160.516 8.87793 160.803 8.93604 161.166 8.97705C161.535 9.01123 161.989 9.03174 162.529 9.03857C163.069 9.03857 163.722 9.03857 164.488 9.03857C165.417 9.03857 166.231 9.05908 166.928 9.1001C167.632 9.14111 168.241 9.21289 168.753 9.31543C169.266 9.41797 169.69 9.5752 170.025 9.78711C170.36 9.99902 170.626 10.2314 170.825 10.4844C171.03 10.7305 171.173 11.0244 171.255 11.3662C171.337 11.7012 171.378 12.0908 171.378 12.5352C171.378 12.9795 171.337 13.3794 171.255 13.7349C171.173 14.0835 171.03 14.3945 170.825 14.668C170.62 14.9346 170.339 15.167 169.984 15.3652C169.635 15.5566 169.194 15.7139 168.661 15.8369C168.128 15.9531 167.489 16.0386 166.744 16.0933C166.005 16.1548 165.144 16.1855 164.16 16.1855C162.929 16.1855 161.894 16.124 161.053 16.001C160.219 15.8779 159.545 15.6831 159.033 15.4165C158.52 15.1431 158.151 14.791 157.925 14.3604C157.707 13.9297 157.597 13.4033 157.597 12.7812H159.566C159.566 13.1914 159.634 13.5264 159.771 13.7861C159.915 14.0391 160.161 14.2373 160.509 14.3809C160.858 14.5244 161.326 14.6235 161.914 14.6782C162.509 14.7261 163.257 14.75 164.16 14.75C164.98 14.75 165.677 14.7329 166.251 14.6987C166.833 14.6577 167.318 14.5962 167.708 14.5142C168.097 14.4321 168.405 14.333 168.63 14.2168C168.856 14.1006 169.027 13.9604 169.143 13.7964C169.259 13.6323 169.331 13.4512 169.358 13.2529C169.393 13.0479 169.41 12.8223 169.41 12.5762C169.41 12.3506 169.393 12.1523 169.358 11.9814C169.331 11.8037 169.263 11.6294 169.153 11.4585C169.044 11.2808 168.883 11.1475 168.671 11.0586C168.459 10.9697 168.169 10.8979 167.8 10.8433C167.438 10.7817 166.986 10.7407 166.446 10.7202C165.906 10.6929 165.253 10.6792 164.488 10.6792ZM179.582 16.0625L173.347 4.25H175.644L180.894 14.75L185.816 4.25H188.113L182.207 16.0625L181.878 16.7188C181.714 17.0469 181.55 17.3545 181.386 17.6416C181.229 17.9355 181.048 18.2021 180.843 18.4414C180.638 18.6875 180.395 18.9062 180.115 19.0977C179.834 19.2891 179.489 19.4497 179.079 19.5796C178.676 19.7163 178.194 19.8188 177.633 19.8872C177.073 19.9624 176.41 20 175.644 20V18.3594C176.3 18.3594 176.854 18.332 177.305 18.2773C177.756 18.2295 178.132 18.1543 178.433 18.0518C178.741 17.9561 178.987 17.8398 179.171 17.7031C179.356 17.5664 179.51 17.4126 179.633 17.2417C179.756 17.0708 179.858 16.8862 179.94 16.688C180.029 16.4897 180.128 16.2812 180.238 16.0625H179.582Z" fill="#E6E6E6"/>
</svg>
