<svg width="408" height="254" viewBox="0 0 408 254" fill="none" xmlns="http://www.w3.org/2000/svg">
<path d="M138.336 32.1662C101.827 32.1662 65.4432 32.1662 28.8085 32.1662C32.9487 20.873 33.7015 20.2456 44.7421 20.2456C111.989 20.2456 179.111 20.2456 246.358 20.1201C252.38 20.1201 257.399 21.5004 261.414 26.1432C266.934 32.4172 266.934 38.9422 261.665 47.3493C242.218 77.9666 222.772 108.584 203.325 139.076C179.989 175.841 156.528 212.482 133.192 249.247C131.059 252.635 128.927 253.514 125.288 253.514C85.3915 253.388 45.6203 253.388 5.72367 253.388C3.84175 253.388 1.20707 253.765 0.454298 252.886C-1.05124 250.879 1.58345 249.247 2.58714 247.616C46.3731 178.476 90.41 109.462 134.196 40.3224C135.827 37.9383 138.085 35.9306 138.336 32.1662Z" fill="url(#paint0_linear_499_85)"/>
<path d="M211.776 143.129C222.436 126.387 232.343 110.526 242.375 94.6644C251.53 80.1878 260.434 65.5853 269.965 51.3605C275.608 42.9263 277.238 34.7438 272.347 25.5544C267.08 15.9872 258.803 11.7072 248.269 11.7072C207.638 11.5813 166.88 11.7072 126.249 11.7072C99.5369 11.7072 72.8253 11.7072 46.1137 11.7072C44.7342 11.7072 43.3547 11.5813 41.8499 11.4554C44.7342 3.14709 49.3743 0 58.529 0C163.244 0.37765 267.958 0.251782 372.673 0.251782C393.114 0.251782 408.414 16.8684 407.16 37.2615C406.909 41.7933 405.279 45.6957 402.896 49.4722C383.959 79.4325 364.898 109.393 346.087 139.479C344.456 142.122 342.826 143.255 339.691 143.255C297.303 143.129 255.167 143.129 211.776 143.129Z" fill="url(#paint1_linear_499_85)"/>
<defs>
<linearGradient id="paint0_linear_499_85" x1="292.825" y1="20.1201" x2="-23.4066" y2="79.8754" gradientUnits="userSpaceOnUse">
<stop stop-color="#62CFF4"/>
<stop offset="1" stop-color="#2C67F2"/>
</linearGradient>
<linearGradient id="paint1_linear_499_85" x1="444.707" y1="-8.26747e-06" x2="62.6486" y2="161.815" gradientUnits="userSpaceOnUse">
<stop stop-color="#62CFF4"/>
<stop offset="1" stop-color="#2C67F2"/>
</linearGradient>
</defs>
</svg>
