<svg width="65" height="54" viewBox="0 0 65 54" fill="none" xmlns="http://www.w3.org/2000/svg">
<path d="M40.3036 14.8823C33.8201 14.8823 27.3367 14.8823 20.8532 14.8823C18.939 14.8823 17.3748 15.5392 16.3456 17.2224C14.6167 20.0757 16.4691 23.8322 19.8035 24.1812C20.4416 24.2428 21.1002 24.2633 21.7588 24.2633C30.3623 24.2633 38.9658 24.2838 47.5692 24.2633C49.4628 24.2633 50.9859 24.8586 52.0562 26.4597C52.5913 27.2603 52.8177 28.1224 52.8177 29.0667C52.8177 30.7705 52.8383 32.4948 52.8177 34.1985C52.7972 37.1545 50.8007 39.1662 47.8574 39.1662C38.8834 39.1867 29.8889 39.1867 20.9149 39.1662C19.4536 39.1662 18.1363 39.4741 17.0866 40.562C16.2016 41.4652 15.7488 42.5121 15.7488 43.7848C15.7282 45.7965 15.9134 47.8287 15.6458 49.8198C15.3165 52.1805 13.4847 53.8637 11.1177 53.9458C8.99771 54.0074 6.85714 54.0279 4.73715 53.9458C1.99968 53.8432 0.0855139 51.7905 0.0237666 48.9782C-0.0173983 47.4387 0.00318412 45.8991 0.0237666 44.3596C0.044349 41.0752 2.02026 39.0635 5.33404 39.0019C7.12471 38.9609 8.8948 39.0019 10.6855 39.0019C13.6699 39.0019 15.4606 37.4213 15.7076 34.4859C15.8105 33.1927 15.8517 31.879 15.5635 30.6063C15.1313 28.6562 13.3406 27.1782 11.2618 27.1166C9.26529 27.055 7.28937 27.0961 5.29287 27.0756C2.04085 27.055 0.044349 25.0844 0.0237666 21.8206C0.0237666 20.3221 0.00318412 18.803 0.0237666 17.3045C0.0649315 14.1844 2.06143 12.1727 5.16938 12.1317C7.0218 12.1111 8.87422 12.1317 10.7266 12.1111C13.7317 12.0906 15.6458 10.2226 15.7282 7.18456C15.7488 6.30189 15.7282 5.39869 15.7693 4.51601C15.8723 2.15537 17.7041 0.266855 20.0711 0.041054C20.3386 0.0205267 20.6268 0 20.8944 0C33.779 0 46.6842 0 59.5688 0C61.7299 0 63.6029 0.718454 64.2822 2.77119C65.2495 5.82976 65.229 9.07308 64.2822 12.1317C63.6853 14.0407 61.9358 14.8823 59.8775 14.8823C53.3323 14.8823 46.8283 14.8823 40.3036 14.8823Z" fill="white"/>
</svg>
