<svg width="22" height="22" viewBox="0 0 22 22" fill="none" xmlns="http://www.w3.org/2000/svg">
<path d="M18.846 21.4567L11.0116 13.6233L3.17528 21.4567C2.82696 21.7931 2.3605 21.9792 1.87625 21.975C1.39201 21.9708 0.928886 21.7766 0.586461 21.4342C0.244036 21.0918 0.0498182 20.6287 0.0456102 20.1445C0.0414023 19.6603 0.227493 19.1939 0.563916 18.8456L8.40028 11.0102L0.563916 3.17492C0.387521 3.00458 0.246786 2.80083 0.149993 2.57553C0.0532 2.35023 0.0022006 2.10789 6.96433e-05 1.86269C-0.00206131 1.6175 0.0447307 1.37435 0.137593 1.1474C0.230456 0.920458 0.367512 0.714269 0.54092 0.540882C0.714328 0.367495 0.920628 0.230371 1.1476 0.13752C1.37458 0.044669 1.61772 -0.00206098 1.86295 6.9714e-05C2.10818 0.0022004 2.35049 0.0531654 2.57582 0.149946C2.80114 0.246727 3.00492 0.387389 3.17528 0.563762L11.0116 8.39724L18.846 0.563762C19.0175 0.39219 19.2211 0.256062 19.4452 0.163162C19.6693 0.0702609 19.9094 0.0224158 20.152 0.02233C20.3946 0.0222442 20.6349 0.0699403 20.859 0.162683C21.0832 0.255425 21.2869 0.39141 21.4585 0.562861C21.6301 0.734312 21.7662 0.937858 21.8591 1.16192C21.952 1.38597 21.9999 1.62614 22 1.86869C22.0001 2.11125 21.9523 2.35143 21.8595 2.57556C21.7668 2.79968 21.6308 3.00335 21.4594 3.17492L13.623 11.0121L21.4594 18.8474C21.8057 19.1939 22.0002 19.6638 22 20.1536C21.9998 20.6435 21.805 21.1132 21.4585 21.4595C21.1119 21.8058 20.6419 22.0002 20.152 22C19.6621 21.9998 19.1923 21.8051 18.846 21.4586V21.4567Z" fill="url(#paint0_linear_4101_7872)"/>
<defs>
<linearGradient id="paint0_linear_4101_7872" x1="2.61236e-07" y1="19.25" x2="18.2875" y2="2.475" gradientUnits="userSpaceOnUse">
<stop stop-color="#02AAB0"/>
<stop offset="1" stop-color="#00CDAC"/>
</linearGradient>
</defs>
</svg>
