<svg width="39" height="39" viewBox="0 0 39 39" fill="none" xmlns="http://www.w3.org/2000/svg">
<rect opacity="0.1" width="39" height="39" rx="5" fill="url(#paint0_linear_4101_7021)"/>
<path d="M21.0371 29.5462C20.755 29.5462 20.4844 29.4341 20.2849 29.2346C20.0855 29.0351 19.9734 28.7646 19.9734 28.4825V21.0371C19.9734 20.755 20.0855 20.4845 20.2849 20.285C20.4844 20.0855 20.755 19.9734 21.0371 19.9734H28.4825C28.7646 19.9734 29.0352 20.0855 29.2347 20.285C29.4342 20.4845 29.5462 20.755 29.5462 21.0371V28.4825C29.5462 28.7646 29.4342 29.0351 29.2347 29.2346C29.0352 29.4341 28.7646 29.5462 28.4825 29.5462H21.0371ZM22.1007 27.4189H27.4189V22.1007H22.1007V27.4189ZM9.33707 29.5462C9.05498 29.5462 8.78439 29.4341 8.58492 29.2346C8.38545 29.0351 8.27344 28.7646 8.27344 28.4825V21.0371C8.27344 20.755 8.38545 20.4845 8.58492 20.285C8.78439 20.0855 9.05498 19.9734 9.33707 19.9734H16.7825C17.0646 19.9734 17.3352 20.0855 17.5347 20.285C17.7342 20.4845 17.8462 20.755 17.8462 21.0371V28.4825C17.8462 28.7646 17.7342 29.0351 17.5347 29.2346C17.3352 29.4341 17.0646 29.5462 16.7825 29.5462H9.33707ZM10.4007 27.4189H15.7189V22.1007H10.4007V27.4189ZM21.0371 17.8462C20.755 17.8462 20.4844 17.7341 20.2849 17.5346C20.0855 17.3351 19.9734 17.0646 19.9734 16.7825V9.33707C19.9734 9.05498 20.0855 8.78446 20.2849 8.58498C20.4844 8.38551 20.755 8.27344 21.0371 8.27344H28.4825C28.7646 8.27344 29.0352 8.38551 29.2347 8.58498C29.4342 8.78446 29.5462 9.05498 29.5462 9.33707V16.7825C29.5462 17.0646 29.4342 17.3351 29.2347 17.5346C29.0352 17.7341 28.7646 17.8462 28.4825 17.8462H21.0371ZM22.1007 15.7189H27.4189V10.4007H22.1007V15.7189ZM9.33707 17.8462C9.05498 17.8462 8.78439 17.7341 8.58492 17.5346C8.38545 17.3351 8.27344 17.0646 8.27344 16.7825V9.33707C8.27344 9.05498 8.38545 8.78446 8.58492 8.58498C8.78439 8.38551 9.05498 8.27344 9.33707 8.27344H16.7825C17.0646 8.27344 17.3352 8.38551 17.5347 8.58498C17.7342 8.78446 17.8462 9.05498 17.8462 9.33707V16.7825C17.8462 17.0646 17.7342 17.3351 17.5347 17.5346C17.3352 17.7341 17.0646 17.8462 16.7825 17.8462H9.33707ZM10.4007 15.7189H15.7189V10.4007H10.4007V15.7189Z" fill="white"/>
<defs>
<linearGradient id="paint0_linear_4101_7021" x1="-1.5282e-08" y1="19.9333" x2="39" y2="19.9333" gradientUnits="userSpaceOnUse">
<stop stop-color="white"/>
<stop offset="1" stop-color="white" stop-opacity="0.5"/>
</linearGradient>
</defs>
</svg>
