<svg width="15" height="10" viewBox="0 0 15 10" fill="none" xmlns="http://www.w3.org/2000/svg">
<path d="M0.770472 0H13.3392C13.764 0.00229649 14.1096 0.350215 14.1096 0.775065V9.04013C14.1096 9.46613 13.7606 9.81519 13.3346 9.81519H0.770472C0.34677 9.8129 0 9.46498 0 9.04013V0.775065C0 0.350215 0.345621 0.00229649 0.770472 0Z" fill="#FF9933"/>
<path d="M0 3.26953H14.1096V6.54203H0V3.26953Z" fill="white"/>
<path d="M0 6.54297H14.1096V9.03925C14.1096 9.46525 13.7606 9.81432 13.3346 9.81432H0.770472C0.34677 9.81202 0 9.4641 0 9.03925V6.54297Z" fill="#128807"/>
<path d="M8.368 4.90665C8.368 4.18326 7.78239 3.59766 7.059 3.59766C6.3356 3.59766 5.75 4.18326 5.75 4.90665C5.75 5.6289 6.3356 6.21565 7.059 6.21565C7.78239 6.21565 8.368 5.63005 8.368 4.90665Z" fill="#000088"/>
<path d="M8.20366 4.90652C8.20366 4.27384 7.69154 3.76172 7.05886 3.76172C6.42618 3.76172 5.91406 4.27384 5.91406 4.90652C5.91406 5.5392 6.42618 6.05132 7.05886 6.05132C7.69154 6.05132 8.20366 5.5392 8.20366 4.90652Z" fill="white"/>
<path d="M7.28513 4.90934C7.28513 4.78303 7.18293 4.67969 7.05663 4.67969C6.93032 4.67969 6.82812 4.78188 6.82812 4.90934C6.82812 5.03564 6.93032 5.13784 7.05663 5.13784C7.18293 5.13784 7.28513 5.03564 7.28513 4.90934Z" fill="#000088"/>
<path d="M8.24707 5.06489C8.25167 5.03389 8.2287 5.00518 8.1977 5.00059C8.1667 4.99599 8.13799 5.01896 8.1334 5.04996C8.12881 5.08096 8.15177 5.10967 8.18277 5.11426C8.21492 5.11771 8.24363 5.09589 8.24707 5.06489Z" fill="#000088"/>
<path d="M7.05467 6.05296L7.09371 5.36631L7.05467 5.03906L7.01562 5.36631L7.05467 6.05296Z" fill="#000088"/>
<path d="M8.16485 5.36822C8.17748 5.33952 8.16255 5.30507 8.13385 5.29359C8.10514 5.28096 8.07069 5.29588 8.05921 5.32459C8.04658 5.3533 8.06151 5.38774 8.09021 5.39922C8.12007 5.41071 8.15337 5.39693 8.16485 5.36822Z" fill="black"/>
<path d="M6.75781 6.01461L6.97368 5.36126L7.02076 5.03516L6.8979 5.34174L6.75781 6.01461Z" fill="black"/>
<path d="M8.00905 5.63934C8.02857 5.61408 8.02398 5.57849 7.99872 5.55897C7.97346 5.53945 7.93786 5.54404 7.91834 5.5693C7.89882 5.59456 7.90341 5.63016 7.92867 5.64968C7.95394 5.6692 7.98953 5.66346 8.00905 5.63934Z" fill="black"/>
<path d="M6.48438 5.90184L6.86215 5.32657L6.9919 5.02344L6.7944 5.28639L6.48438 5.90184Z" fill="black"/>
<path d="M7.78778 5.86452C7.81304 5.845 7.81763 5.8094 7.79811 5.78414C7.77859 5.75888 7.743 5.75429 7.71774 5.77381C7.69248 5.79333 7.68788 5.82893 7.7074 5.85419C7.72692 5.8783 7.76367 5.88404 7.78778 5.86452Z" fill="black"/>
<path d="M6.25 5.7165L6.76327 5.25835L6.9665 5L6.70815 5.20324L6.25 5.7165Z" fill="black"/>
<path d="M7.51666 6.02032C7.54537 6.00769 7.56029 5.97439 7.54766 5.94568C7.53503 5.91698 7.50173 5.90205 7.47303 5.91468C7.44432 5.92616 7.42939 5.96061 7.44202 5.98932C7.45351 6.01802 7.4868 6.0318 7.51666 6.02032Z" fill="black"/>
<path d="M6.0625 5.48018L6.67796 5.17015L6.94091 4.97266L6.63777 5.10241L6.0625 5.48018Z" fill="black"/>
<path d="M7.2131 6.09841C7.2441 6.09382 7.26592 6.06511 7.26247 6.03411C7.25788 6.0031 7.22917 5.98129 7.19817 5.98473C7.16717 5.98933 7.14535 6.01803 7.1488 6.04903C7.15224 6.08118 7.18095 6.103 7.2131 6.09841Z" fill="black"/>
<path d="M5.95312 5.20321L6.62714 5.06312L6.93258 4.94141L6.60648 4.98734L5.95312 5.20321Z" fill="black"/>
<path d="M6.89348 6.09864C6.92448 6.10323 6.95319 6.08026 6.95778 6.04926C6.96238 6.01826 6.93941 5.98955 6.90841 5.98496C6.87741 5.98037 6.8487 6.00333 6.84411 6.03434C6.84066 6.06649 6.86248 6.09519 6.89348 6.09864Z" fill="black"/>
<path d="M5.91406 4.90623L6.60071 4.94527L6.92796 4.90623L6.60071 4.86719L5.91406 4.90623Z" fill="black"/>
<path d="M6.59755 6.02032C6.62625 6.03295 6.6607 6.01802 6.67218 5.98932C6.68367 5.96061 6.66989 5.92616 6.64118 5.91468C6.61248 5.90205 6.57803 5.91698 6.56655 5.94568C6.55506 5.97439 6.56884 6.00769 6.59755 6.02032Z" fill="black"/>
<path d="M5.95312 4.60938L6.60648 4.82525L6.93258 4.87232L6.62714 4.74946L5.95312 4.60938Z" fill="black"/>
<path d="M6.31846 5.86452C6.34372 5.88404 6.37932 5.87945 6.39884 5.85419C6.41836 5.82893 6.41377 5.79333 6.38851 5.77381C6.36324 5.75429 6.32765 5.75888 6.30813 5.78414C6.28976 5.8094 6.29435 5.845 6.31846 5.86452Z" fill="black"/>
<path d="M6.0625 4.33594L6.63777 4.71371L6.94091 4.84346L6.67796 4.64596L6.0625 4.33594Z" fill="black"/>
<path d="M6.1055 5.63934C6.12502 5.6646 6.16061 5.6692 6.18587 5.64968C6.21113 5.63016 6.21573 5.59456 6.19621 5.5693C6.17669 5.54404 6.14109 5.53945 6.11583 5.55897C6.09172 5.57734 6.08598 5.61408 6.1055 5.63934Z" fill="black"/>
<path d="M6.25 4.09766L6.70815 4.61092L6.9665 4.81531L6.76327 4.55581L6.25 4.09766Z" fill="black"/>
<path d="M5.94155 5.36822C5.95418 5.39693 5.98748 5.41186 6.01618 5.39922C6.04489 5.38659 6.05981 5.3533 6.04718 5.32459C6.03455 5.29588 6.00125 5.28096 5.97255 5.29359C5.94384 5.30507 5.93006 5.33837 5.94155 5.36822Z" fill="black"/>
<path d="M6.48438 3.91406L6.7944 4.52952L6.9919 4.79247L6.86215 4.49048L6.48438 3.91406Z" fill="black"/>
<path d="M5.85999 5.06466C5.86458 5.09566 5.89328 5.11748 5.92429 5.11403C5.95529 5.10944 5.97711 5.08073 5.97366 5.04973C5.96907 5.01873 5.94036 4.99691 5.90936 5.00036C5.87721 5.0038 5.85539 5.03251 5.85999 5.06466Z" fill="black"/>
<path d="M6.75781 3.80078L6.8979 4.4748L7.02076 4.78023L6.97368 4.45413L6.75781 3.80078Z" fill="black"/>
<path d="M5.85996 4.74895C5.85537 4.77995 5.87833 4.80866 5.90934 4.81325C5.94034 4.81785 5.96904 4.79488 5.97364 4.76388C5.97823 4.73288 5.95526 4.70417 5.92426 4.69958C5.89211 4.69613 5.86341 4.71795 5.85996 4.74895Z" fill="black"/>
<path d="M7.05467 3.76172L7.01562 4.44837L7.05467 4.77562L7.09371 4.44837L7.05467 3.76172Z" fill="black"/>
<path d="M5.94202 4.44911C5.92939 4.47782 5.94432 4.51226 5.97303 4.52375C6.00173 4.53523 6.03618 4.52145 6.04766 4.49274C6.06029 4.46404 6.04537 4.42959 6.01666 4.41811C5.98681 4.40663 5.95351 4.4204 5.94202 4.44911Z" fill="black"/>
<path d="M7.34889 3.80078L7.13302 4.45413L7.08594 4.78023L7.2088 4.4748L7.34889 3.80078Z" fill="black"/>
<path d="M6.09803 4.17867C6.07851 4.20394 6.0831 4.23953 6.10836 4.25905C6.13362 4.27857 6.16922 4.27398 6.18874 4.24872C6.20826 4.22346 6.20367 4.18786 6.17841 4.16834C6.15314 4.14882 6.11755 4.15341 6.09803 4.17867Z" fill="black"/>
<path d="M7.63252 3.91406L7.25475 4.49048L7.125 4.79247L7.3225 4.52952L7.63252 3.91406Z" fill="black"/>
<path d="M6.3193 3.95301C6.29404 3.97253 6.28945 4.00813 6.30897 4.03339C6.32849 4.05865 6.36408 4.06324 6.38934 4.04372C6.4146 4.0242 6.4192 3.98861 6.39968 3.96334C6.38016 3.93808 6.34341 3.93464 6.3193 3.95301Z" fill="black"/>
<path d="M7.86494 4.09766L7.35168 4.55581L7.14844 4.81531L7.40679 4.61092L7.86494 4.09766Z" fill="black"/>
<path d="M6.59755 3.79765C6.56884 3.81028 6.55506 3.84358 6.56655 3.87229C6.57918 3.90099 6.61248 3.91592 6.64118 3.90329C6.66989 3.89066 6.68481 3.85736 6.67218 3.82865C6.6607 3.7988 6.6274 3.78502 6.59755 3.79765Z" fill="black"/>
<path d="M8.04247 4.33594L7.42701 4.64596L7.16406 4.84346L7.4672 4.71371L8.04247 4.33594Z" fill="black"/>
<path d="M6.89348 3.71543C6.86248 3.72002 6.84066 3.74873 6.84411 3.77973C6.8487 3.81073 6.87741 3.83255 6.90841 3.82911C6.93941 3.82451 6.96238 3.79581 6.95778 3.7648C6.95434 3.7338 6.92563 3.71084 6.89348 3.71543Z" fill="black"/>
<path d="M8.15914 4.60938L7.48512 4.74946L7.17969 4.87232L7.50579 4.82525L8.15914 4.60938Z" fill="black"/>
<path d="M7.21333 3.71543C7.18232 3.71084 7.15362 3.7338 7.14902 3.7648C7.14443 3.79581 7.1674 3.82451 7.1984 3.82911C7.2294 3.8337 7.25811 3.81073 7.2627 3.77973C7.26614 3.74873 7.24433 3.71887 7.21333 3.71543Z" fill="black"/>
<path d="M8.2014 4.90623L7.51475 4.86719L7.1875 4.90623L7.51475 4.94527L8.2014 4.90623Z" fill="black"/>
<path d="M7.51666 3.79749C7.48795 3.78486 7.45351 3.79979 7.44202 3.8285C7.42939 3.8572 7.44432 3.89165 7.47303 3.90313C7.50173 3.91461 7.53618 3.90083 7.54766 3.87213C7.55914 3.84227 7.54537 3.80897 7.51666 3.79749Z" fill="black"/>
<path d="M8.15914 5.20321L7.50579 4.98734L7.17969 4.94141L7.48512 5.06312L8.15914 5.20321Z" fill="black"/>
<path d="M7.78778 3.9535C7.76252 3.93398 7.72692 3.93857 7.7074 3.96383C7.68788 3.98909 7.69248 4.02469 7.71774 4.04421C7.743 4.06373 7.77859 4.05914 7.79811 4.03387C7.81763 4.00861 7.81304 3.97302 7.78778 3.9535Z" fill="black"/>
<path d="M8.04247 5.48018L7.4672 5.10241L7.16406 4.97266L7.42701 5.17015L8.04247 5.48018Z" fill="black"/>
<path d="M8.00905 4.17867C7.98953 4.15341 7.95394 4.14882 7.92867 4.16834C7.90341 4.18786 7.89882 4.22346 7.91834 4.24872C7.93786 4.27398 7.97346 4.27857 7.99872 4.25905C8.02283 4.23953 8.02857 4.20279 8.00905 4.17867Z" fill="black"/>
<path d="M7.86494 5.7165L7.40679 5.20324L7.14844 5L7.35168 5.25835L7.86494 5.7165Z" fill="black"/>
<path d="M8.16485 4.44568C8.15222 4.41698 8.11892 4.40205 8.09021 4.41468C8.06151 4.42731 8.04658 4.46061 8.05921 4.48932C8.07184 4.51802 8.10514 4.5318 8.13385 4.52032C8.16255 4.50884 8.17633 4.47554 8.16485 4.44568Z" fill="black"/>
<path d="M7.63252 5.90184L7.3225 5.28639L7.125 5.02344L7.25475 5.32657L7.63252 5.90184Z" fill="black"/>
<path d="M8.24685 4.74895C8.24225 4.71795 8.21355 4.69613 8.18254 4.69958C8.15154 4.70417 8.12973 4.73288 8.13317 4.76388C8.13776 4.79488 8.16647 4.8167 8.19747 4.81325C8.22962 4.80981 8.25144 4.7811 8.24685 4.74895Z" fill="black"/>
<path d="M7.34889 6.01461L7.2088 5.34174L7.08594 5.03516L7.13302 5.36126L7.34889 6.01461Z" fill="black"/>
</svg>
