<svg width="72" height="72" viewBox="0 0 72 72" fill="none" xmlns="http://www.w3.org/2000/svg">
<rect opacity="0.1" width="72" height="72" rx="10" fill="#A1E6F6"/>
<path d="M29.664 23.4004C24.7759 23.4004 20.7998 26.9613 20.7998 31.3359V42.6693C20.7998 47.0428 24.7796 50.6004 29.6689 50.6004H42.3356C47.2237 50.6004 51.1998 47.0395 51.1998 42.6648V31.3315C51.1998 26.958 47.22 23.4004 42.3307 23.4004H29.664ZM44.8665 27.9337C45.5657 27.9337 46.1331 28.4415 46.1331 29.0671C46.1331 29.6927 45.5657 30.2004 44.8665 30.2004C44.1673 30.2004 43.5998 29.6927 43.5998 29.0671C43.5998 28.4415 44.1673 27.9337 44.8665 27.9337ZM35.9998 30.2004C40.1912 30.2004 43.5998 33.2502 43.5998 37.0004C43.5998 40.7506 40.1912 43.8004 35.9998 43.8004C31.8084 43.8004 28.3998 40.7506 28.3998 37.0004C28.3998 33.2502 31.8084 30.2004 35.9998 30.2004ZM35.9998 32.4671C33.2016 32.4671 30.9331 34.4967 30.9331 37.0004C30.9331 39.5041 33.2016 41.5337 35.9998 41.5337C38.798 41.5337 41.0665 39.5041 41.0665 37.0004C41.0665 34.4967 38.798 32.4671 35.9998 32.4671Z" fill="#A1E6F6"/>
</svg>
