<svg width="109" height="19" viewBox="0 0 109 19" fill="none" xmlns="http://www.w3.org/2000/svg">
<path fill-rule="evenodd" clip-rule="evenodd" d="M0 18.7331H3.96065V0H0V18.7331Z" fill="white"/>
<path fill-rule="evenodd" clip-rule="evenodd" d="M18.3554 11.2941V18.7338H14.582V11.9365C14.582 10.1165 13.5917 9.07281 12.0397 9.07281C10.996 9.07281 9.95227 9.6618 9.41708 10.5716V18.7338H5.64355V5.594H9.41708V7.14608C10.1394 6.02202 11.5312 5.32617 13.0031 5.32617C16.3213 5.32617 18.3554 7.60103 18.3554 11.2941Z" fill="white"/>
<path fill-rule="evenodd" clip-rule="evenodd" d="M19.7754 17.3421L20.8993 14.7196C22.1304 15.6293 23.736 16.1111 25.3418 16.1111C26.5191 16.1111 27.2685 15.6561 27.2685 15.0406C27.2419 13.0336 20.1768 14.5322 20.1234 9.68831C20.0964 7.22621 22.2909 5.32617 25.3953 5.32617C27.2419 5.32617 29.0885 5.78124 30.3998 6.82493L29.3292 9.55463C28.3124 8.77853 26.6531 8.18966 25.2347 8.18966C24.2712 8.18966 23.629 8.64461 23.629 9.23336C23.6558 11.1335 30.7743 10.0898 30.8545 14.7998C30.8545 17.235 28.7137 19.0013 25.6629 19.0013C23.4151 19.0013 21.3542 18.4661 19.7754 17.3421Z" fill="white"/>
<path fill-rule="evenodd" clip-rule="evenodd" d="M41.4005 18.5674C40.9188 18.8083 40.1695 18.9421 39.4736 18.9421C36.396 18.9421 34.2282 16.9886 34.2282 13.5897V9.17403H31.793V5.58799H34.2282V2.13574H38.0018V5.58799H41.24V9.17403H38.0018V13.4025C38.0018 14.6334 38.9384 15.4097 40.0356 15.4097C40.4103 15.4097 40.9188 15.3292 41.2132 15.2222L41.4005 18.5674Z" fill="white"/>
<path fill-rule="evenodd" clip-rule="evenodd" d="M52.3985 13.7828V10.5713C51.8365 9.60786 50.6589 8.88543 49.3476 8.88543C47.5011 8.88543 46.0827 10.277 46.0827 12.1504C46.0827 14.0236 47.5011 15.4151 49.3476 15.4151C50.6589 15.4151 51.8365 14.7195 52.3985 13.7828ZM56.1719 5.59376V18.7335H52.3985V17.1815C51.7561 18.2521 50.1772 19.0011 48.5178 19.0011C45.0925 19.0011 42.3896 15.9505 42.3896 12.1504C42.3896 8.35024 45.0925 5.32617 48.5178 5.32617C50.1505 5.32617 51.7561 6.07549 52.3985 7.14588V5.59376H56.1719Z" fill="white"/>
<path fill-rule="evenodd" clip-rule="evenodd" d="M66.2883 5.56698L66.0741 9.09959C65.5655 8.91212 64.9234 8.80519 64.3879 8.80519C63.5316 8.80519 62.1667 9.50111 61.5246 10.7854V18.7338H57.751V5.59376H61.5246V7.14588C62.1667 6.02194 63.5848 5.32617 64.6823 5.32617C65.3513 5.32617 65.8868 5.40652 66.2883 5.56698Z" fill="white"/>
<path fill-rule="evenodd" clip-rule="evenodd" d="M75.8645 10.6518C75.7041 9.34053 74.5002 8.37701 73.1083 8.37701C71.5292 8.37701 70.4856 9.23348 70.138 10.6518H75.8645ZM79.5308 13.0605H70.0841C70.4324 14.8535 71.6626 15.7899 73.456 15.7899C74.6336 15.7899 75.8645 15.2547 76.3198 14.452L79.2633 16.245C78.2999 17.9846 76.1056 19.0015 73.3758 19.0015C69.5222 19.0015 66.4717 16.0041 66.4717 12.097C66.4717 8.27002 69.469 5.32617 73.2956 5.32617C76.8548 5.32617 79.6379 8.08267 79.6379 11.5885C79.6379 12.0433 79.6115 12.552 79.5308 13.0605Z" fill="white"/>
<path fill-rule="evenodd" clip-rule="evenodd" d="M101.265 10.5716V18.7339H97.4648V11.3477C97.4648 9.76879 96.5816 8.80533 95.1903 8.80533C94.2538 8.80533 93.2899 9.39396 92.8351 10.1969V18.7339H89.0617V11.3477C89.0617 9.76879 88.1252 8.80533 86.8674 8.80533C85.77 8.80533 84.8605 9.42095 84.4589 10.2772V18.7339H80.6855V5.594H84.4589V7.09253C85.0741 6.23618 86.3319 5.32617 88.2054 5.32617C89.8647 5.32617 91.0693 5.86159 91.8717 7.17289C92.6747 6.23618 94.1461 5.32617 95.8862 5.32617C99.017 5.32617 101.265 7.4138 101.265 10.5716Z" fill="white"/>
<path fill-rule="evenodd" clip-rule="evenodd" d="M103.402 16.5888C103.402 15.2507 104.473 14.207 105.838 14.207C107.23 14.207 108.3 15.2507 108.3 16.5888C108.3 17.927 107.23 18.9974 105.838 18.9974C104.473 18.9974 103.402 17.927 103.402 16.5888Z" fill="white"/>
</svg>
