<svg width="1200" height="600" viewBox="0 0 1200 600" fill="none" xmlns="http://www.w3.org/2000/svg">
<g clip-path="url(#clip0_211_743)">
<rect opacity="0.4" width="1200" height="600" fill="url(#paint0_radial_211_743)"/>
<mask id="mask0_211_743" style="mask-type:alpha" maskUnits="userSpaceOnUse" x="164" y="-66" width="872" height="732">
<rect x="164" y="-65.5298" width="872" height="731" fill="url(#paint1_radial_211_743)"/>
</mask>
<g mask="url(#mask0_211_743)">
</g>
<g opacity="0.7">
<path opacity="0.11" d="M392.358 483.201C392.903 482.848 393.057 482.12 392.704 481.576C392.351 481.032 391.623 480.877 391.079 481.23C390.535 481.583 390.38 482.311 390.733 482.855C391.086 483.4 391.814 483.555 392.358 483.201Z" fill="white"/>
<path d="M399.072 486.543C399.481 486.278 399.597 485.732 399.332 485.324C399.067 484.916 398.521 484.8 398.113 485.065C397.705 485.33 397.589 485.875 397.854 486.283C398.119 486.692 398.664 486.808 399.072 486.543Z" fill="white"/>
<path d="M408.62 465.649C409.028 465.384 409.144 464.838 408.879 464.43C408.614 464.022 408.069 463.906 407.661 464.171C407.252 464.436 407.136 464.981 407.401 465.389C407.666 465.798 408.212 465.914 408.62 465.649Z" fill="white"/>
<path d="M366.105 491.836C366.513 491.571 366.629 491.025 366.364 490.617C366.099 490.209 365.554 490.093 365.146 490.358C364.738 490.623 364.621 491.168 364.886 491.576C365.151 491.985 365.697 492.101 366.105 491.836Z" fill="white"/>
<path opacity="0.11" d="M349.39 519.485C349.934 519.132 350.089 518.405 349.736 517.86C349.383 517.316 348.655 517.161 348.111 517.514C347.566 517.867 347.411 518.595 347.765 519.139C348.118 519.684 348.846 519.839 349.39 519.485Z" fill="white"/>
<path d="M333 514.72C333.272 514.543 333.349 514.18 333.173 513.908C332.997 513.636 332.633 513.559 332.361 513.735C332.089 513.912 332.012 514.275 332.188 514.547C332.365 514.819 332.728 514.896 333 514.72Z" fill="white"/>
<path d="M403.343 503.373C403.615 503.197 403.693 502.833 403.516 502.561C403.34 502.289 402.976 502.212 402.704 502.388C402.432 502.565 402.355 502.928 402.531 503.2C402.708 503.472 403.071 503.55 403.343 503.373Z" fill="white"/>
<path d="M510.742 433.68C511.014 433.504 511.091 433.14 510.915 432.868C510.738 432.596 510.375 432.519 510.103 432.696C509.831 432.872 509.753 433.236 509.93 433.508C510.106 433.779 510.47 433.857 510.742 433.68Z" fill="white"/>
<path d="M547.171 372.231C547.443 372.054 547.52 371.691 547.344 371.419C547.168 371.147 546.804 371.069 546.532 371.246C546.26 371.422 546.183 371.786 546.359 372.058C546.536 372.33 546.899 372.407 547.171 372.231Z" fill="white"/>
<path d="M589.726 395.724C589.998 395.547 590.075 395.184 589.899 394.912C589.722 394.64 589.359 394.563 589.087 394.739C588.815 394.916 588.738 395.279 588.914 395.551C589.091 395.823 589.454 395.9 589.726 395.724Z" fill="white"/>
<path d="M231.304 597.517C231.576 597.341 231.653 596.977 231.477 596.705C231.3 596.433 230.937 596.356 230.665 596.533C230.393 596.709 230.316 597.073 230.492 597.344C230.669 597.616 231.032 597.694 231.304 597.517Z" fill="white"/>
<path opacity="0.11" d="M206.655 575.709C206.927 575.532 207.005 575.169 206.828 574.897C206.652 574.625 206.288 574.547 206.016 574.724C205.744 574.9 205.667 575.264 205.843 575.536C206.02 575.808 206.383 575.885 206.655 575.709Z" fill="white"/>
<path opacity="0.11" d="M192.828 600.786C193.1 600.609 193.178 600.246 193.001 599.974C192.825 599.702 192.461 599.625 192.189 599.801C191.917 599.978 191.84 600.341 192.016 600.613C192.193 600.885 192.556 600.962 192.828 600.786Z" fill="white"/>
<path opacity="0.11" d="M332.718 524.002C332.989 523.825 333.067 523.462 332.89 523.19C332.714 522.918 332.35 522.84 332.078 523.017C331.807 523.193 331.729 523.557 331.906 523.829C332.082 524.101 332.446 524.178 332.718 524.002Z" fill="white"/>
<path opacity="0.11" d="M413.875 521.748C414.147 521.571 414.225 521.208 414.048 520.936C413.872 520.664 413.508 520.586 413.236 520.763C412.964 520.939 412.887 521.303 413.063 521.575C413.24 521.847 413.603 521.924 413.875 521.748Z" fill="white"/>
<path opacity="0.11" d="M505.257 455.44C505.529 455.263 505.606 454.9 505.43 454.628C505.253 454.356 504.89 454.278 504.618 454.455C504.346 454.631 504.269 454.995 504.445 455.267C504.622 455.539 504.985 455.616 505.257 455.44Z" fill="white"/>
<path opacity="0.3" d="M245.976 570.494C246.248 570.318 246.325 569.954 246.149 569.682C245.972 569.41 245.609 569.333 245.337 569.51C245.065 569.686 244.987 570.05 245.164 570.322C245.34 570.593 245.704 570.671 245.976 570.494Z" fill="white"/>
<path d="M342.015 470.362C342.287 470.186 342.364 469.822 342.188 469.55C342.011 469.278 341.648 469.201 341.376 469.377C341.104 469.554 341.026 469.917 341.203 470.189C341.379 470.461 341.743 470.539 342.015 470.362Z" fill="white"/>
<path d="M417.241 420.145C417.513 419.969 417.591 419.605 417.414 419.333C417.238 419.061 416.874 418.984 416.602 419.16C416.33 419.337 416.253 419.7 416.43 419.972C416.606 420.244 416.97 420.322 417.241 420.145Z" fill="white"/>
<path d="M337.929 537.424C338.201 537.248 338.279 536.884 338.102 536.612C337.926 536.34 337.562 536.263 337.29 536.439C337.018 536.616 336.941 536.979 337.117 537.251C337.294 537.523 337.657 537.6 337.929 537.424Z" fill="white"/>
<path opacity="0.3" d="M303.445 559.804C303.717 559.628 303.794 559.264 303.618 558.992C303.441 558.72 303.078 558.643 302.806 558.82C302.534 558.996 302.456 559.36 302.633 559.632C302.809 559.903 303.173 559.981 303.445 559.804Z" fill="white"/>
<path opacity="0.11" d="M243.234 555.473C243.505 555.296 243.583 554.933 243.406 554.661C243.23 554.389 242.866 554.312 242.594 554.488C242.323 554.665 242.245 555.028 242.422 555.3C242.598 555.572 242.962 555.649 243.234 555.473Z" fill="white"/>
<path opacity="0.3" d="M358.561 476.43C358.833 476.254 358.911 475.89 358.734 475.618C358.558 475.346 358.194 475.269 357.922 475.446C357.65 475.622 357.573 475.986 357.749 476.258C357.926 476.529 358.289 476.607 358.561 476.43Z" fill="white"/>
<path opacity="0.3" d="M352.382 541.349C352.654 541.173 352.731 540.809 352.555 540.537C352.378 540.265 352.015 540.188 351.743 540.365C351.471 540.541 351.393 540.905 351.57 541.176C351.746 541.448 352.11 541.526 352.382 541.349Z" fill="white"/>
<path opacity="0.3" d="M295.968 584.958C296.24 584.781 296.317 584.418 296.141 584.146C295.964 583.874 295.601 583.796 295.329 583.973C295.057 584.149 294.98 584.513 295.156 584.785C295.333 585.057 295.696 585.134 295.968 584.958Z" fill="white"/>
<path opacity="0.3" d="M260.265 561.224C260.537 561.048 260.615 560.684 260.438 560.412C260.262 560.14 259.898 560.063 259.626 560.24C259.354 560.416 259.277 560.78 259.453 561.052C259.63 561.323 259.993 561.401 260.265 561.224Z" fill="white"/>
<path opacity="0.3" d="M565.718 360.897C565.99 360.72 566.068 360.357 565.891 360.085C565.715 359.813 565.351 359.735 565.079 359.912C564.807 360.088 564.73 360.452 564.906 360.724C565.083 360.996 565.446 361.073 565.718 360.897Z" fill="white"/>
<path opacity="0.11" d="M473.296 392.167C473.568 391.991 473.645 391.627 473.469 391.355C473.292 391.083 472.929 391.006 472.657 391.182C472.385 391.359 472.308 391.722 472.484 391.994C472.661 392.266 473.024 392.344 473.296 392.167Z" fill="white"/>
<path opacity="0.11" d="M566.164 390.708C566.436 390.532 566.514 390.168 566.337 389.896C566.161 389.624 565.797 389.547 565.525 389.723C565.253 389.9 565.176 390.263 565.352 390.535C565.529 390.807 565.892 390.885 566.164 390.708Z" fill="white"/>
<path opacity="0.3" d="M444.405 476.028C444.949 475.675 445.104 474.947 444.751 474.403C444.397 473.858 443.67 473.703 443.125 474.057C442.581 474.41 442.426 475.138 442.779 475.682C443.133 476.226 443.86 476.381 444.405 476.028Z" fill="white"/>
<path opacity="0.11" d="M463.882 442.387C464.427 442.034 464.582 441.306 464.228 440.762C463.875 440.217 463.147 440.062 462.603 440.416C462.059 440.769 461.904 441.496 462.257 442.041C462.61 442.585 463.338 442.74 463.882 442.387Z" fill="white"/>
<path d="M452.448 425.305C452.856 425.04 452.973 424.494 452.708 424.086C452.443 423.678 451.897 423.562 451.489 423.827C451.081 424.091 450.965 424.637 451.23 425.045C451.494 425.453 452.04 425.569 452.448 425.305Z" fill="white"/>
<path d="M452.027 499.09C452.435 498.825 452.551 498.28 452.286 497.872C452.021 497.463 451.476 497.347 451.068 497.612C450.659 497.877 450.543 498.423 450.808 498.831C451.073 499.239 451.619 499.355 452.027 499.09Z" fill="white"/>
<path d="M621.972 402.803C622.38 402.538 622.496 401.993 622.231 401.585C621.967 401.176 621.421 401.06 621.013 401.325C620.605 401.59 620.489 402.136 620.753 402.544C621.018 402.952 621.564 403.068 621.972 402.803Z" fill="white"/>
<path d="M296.815 601.911C297.224 601.646 297.34 601.1 297.075 600.692C296.81 600.284 296.264 600.168 295.856 600.433C295.448 600.697 295.332 601.243 295.597 601.651C295.862 602.059 296.407 602.175 296.815 601.911Z" fill="white"/>
<path d="M435.198 450.502C435.606 450.238 435.723 449.692 435.458 449.284C435.193 448.876 434.647 448.759 434.239 449.024C433.831 449.289 433.715 449.835 433.98 450.243C434.245 450.651 434.79 450.767 435.198 450.502Z" fill="white"/>
<path d="M373.136 542.584C373.544 542.319 373.66 541.773 373.395 541.365C373.13 540.957 372.585 540.841 372.177 541.106C371.768 541.371 371.652 541.916 371.917 542.325C372.182 542.733 372.728 542.849 373.136 542.584Z" fill="white"/>
<path d="M511.027 483.205C511.435 482.94 511.551 482.394 511.287 481.986C511.022 481.578 510.476 481.462 510.068 481.727C509.66 481.992 509.544 482.537 509.808 482.946C510.073 483.354 510.619 483.47 511.027 483.205Z" fill="white"/>
<path d="M619.831 364.985C620.239 364.72 620.355 364.175 620.09 363.767C619.825 363.359 619.28 363.242 618.872 363.507C618.463 363.772 618.347 364.318 618.612 364.726C618.877 365.134 619.423 365.25 619.831 364.985Z" fill="white"/>
<path opacity="0.3" d="M493.413 399.421C493.957 399.068 494.112 398.341 493.759 397.796C493.405 397.252 492.678 397.097 492.133 397.45C491.589 397.803 491.434 398.531 491.787 399.075C492.141 399.62 492.868 399.775 493.413 399.421Z" fill="white"/>
<path d="M470.71 364.446C471.254 364.093 471.409 363.365 471.056 362.821C470.702 362.276 469.975 362.121 469.43 362.475C468.886 362.828 468.731 363.556 469.084 364.1C469.438 364.644 470.165 364.799 470.71 364.446Z" fill="white"/>
<path d="M525.816 393.795C526.224 393.53 526.34 392.984 526.075 392.576C525.81 392.168 525.264 392.052 524.856 392.317C524.448 392.582 524.332 393.127 524.597 393.535C524.862 393.944 525.407 394.06 525.816 393.795Z" fill="white"/>
<path opacity="0.3" d="M537.241 359.077C537.785 358.724 537.94 357.996 537.587 357.452C537.234 356.908 536.506 356.753 535.962 357.106C535.417 357.459 535.263 358.187 535.616 358.731C535.969 359.276 536.697 359.43 537.241 359.077Z" fill="white"/>
<path opacity="0.3" d="M608.71 362.404C609.255 362.051 609.41 361.323 609.056 360.779C608.703 360.234 607.975 360.079 607.431 360.433C606.887 360.786 606.732 361.514 607.085 362.058C607.438 362.602 608.166 362.757 608.71 362.404Z" fill="white"/>
<path opacity="0.3" d="M551.709 400.793C552.254 400.439 552.409 399.712 552.055 399.167C551.702 398.623 550.975 398.468 550.43 398.821C549.886 399.175 549.731 399.902 550.084 400.447C550.437 400.991 551.165 401.146 551.709 400.793Z" fill="white"/>
<path opacity="0.3" d="M274.374 592.672C274.918 592.319 275.073 591.591 274.72 591.047C274.366 590.502 273.639 590.347 273.094 590.701C272.55 591.054 272.395 591.782 272.748 592.326C273.102 592.87 273.829 593.025 274.374 592.672Z" fill="white"/>
<path opacity="0.3" d="M216.882 591.474C217.426 591.121 217.581 590.393 217.228 589.849C216.875 589.305 216.147 589.15 215.603 589.503C215.058 589.856 214.903 590.584 215.257 591.128C215.61 591.673 216.337 591.827 216.882 591.474Z" fill="white"/>
<path opacity="0.11" d="M578.92 360.733C579.465 360.379 579.62 359.652 579.266 359.107C578.913 358.563 578.186 358.408 577.641 358.761C577.097 359.114 576.942 359.842 577.295 360.387C577.648 360.931 578.376 361.086 578.92 360.733Z" fill="white"/>
<path opacity="0.3" d="M276.46 529.009C277.004 528.656 277.159 527.928 276.806 527.384C276.453 526.839 275.725 526.684 275.181 527.038C274.636 527.391 274.481 528.119 274.835 528.663C275.188 529.207 275.916 529.362 276.46 529.009Z" fill="white"/>
<path opacity="0.11" d="M256.765 527.788C257.31 527.435 257.464 526.707 257.111 526.163C256.758 525.619 256.03 525.464 255.486 525.817C254.942 526.17 254.787 526.898 255.14 527.442C255.493 527.987 256.221 528.141 256.765 527.788Z" fill="white"/>
<path opacity="0.3" d="M273.287 561.874C273.832 561.52 273.987 560.793 273.633 560.248C273.28 559.704 272.553 559.549 272.008 559.902C271.464 560.256 271.309 560.983 271.662 561.528C272.015 562.072 272.743 562.227 273.287 561.874Z" fill="white"/>
<path d="M303.752 541.401C304.161 541.136 304.277 540.59 304.012 540.182C303.747 539.774 303.201 539.658 302.793 539.923C302.385 540.188 302.269 540.733 302.534 541.141C302.799 541.549 303.344 541.666 303.752 541.401Z" fill="white"/>
<path opacity="0.11" d="M465.092 222.203C465.637 221.85 465.792 221.122 465.438 220.578C465.085 220.034 464.357 219.879 463.813 220.232C463.269 220.585 463.114 221.313 463.467 221.857C463.82 222.402 464.548 222.556 465.092 222.203Z" fill="white"/>
<path d="M471.808 225.545C472.216 225.28 472.332 224.735 472.068 224.327C471.803 223.919 471.257 223.802 470.849 224.067C470.441 224.332 470.325 224.878 470.589 225.286C470.854 225.694 471.4 225.81 471.808 225.545Z" fill="white"/>
<path d="M481.355 204.651C481.763 204.386 481.879 203.84 481.614 203.432C481.349 203.024 480.804 202.908 480.396 203.173C479.987 203.438 479.871 203.983 480.136 204.391C480.401 204.8 480.947 204.916 481.355 204.651Z" fill="white"/>
<path d="M438.839 230.838C439.247 230.573 439.363 230.027 439.098 229.619C438.833 229.211 438.288 229.095 437.88 229.36C437.471 229.625 437.355 230.17 437.62 230.578C437.885 230.987 438.431 231.103 438.839 230.838Z" fill="white"/>
<path opacity="0.11" d="M422.124 258.487C422.669 258.134 422.824 257.406 422.47 256.862C422.117 256.317 421.389 256.162 420.845 256.516C420.301 256.869 420.146 257.597 420.499 258.141C420.852 258.685 421.58 258.84 422.124 258.487Z" fill="white"/>
<path d="M405.734 253.723C406.006 253.546 406.083 253.183 405.907 252.911C405.73 252.639 405.367 252.562 405.095 252.738C404.823 252.915 404.746 253.278 404.922 253.55C405.099 253.822 405.462 253.899 405.734 253.723Z" fill="white"/>
<path d="M476.077 242.376C476.349 242.2 476.427 241.836 476.25 241.564C476.074 241.292 475.71 241.215 475.438 241.391C475.166 241.568 475.089 241.931 475.265 242.203C475.442 242.475 475.805 242.553 476.077 242.376Z" fill="white"/>
<path d="M583.476 172.684C583.748 172.507 583.825 172.144 583.649 171.872C583.472 171.6 583.109 171.523 582.837 171.699C582.565 171.875 582.487 172.239 582.664 172.511C582.84 172.783 583.204 172.86 583.476 172.684Z" fill="white"/>
<path d="M619.906 111.233C620.178 111.057 620.255 110.693 620.079 110.421C619.902 110.149 619.539 110.072 619.267 110.248C618.995 110.425 618.917 110.788 619.094 111.06C619.27 111.332 619.634 111.41 619.906 111.233Z" fill="white"/>
<path d="M662.46 134.728C662.732 134.552 662.809 134.188 662.633 133.916C662.456 133.644 662.093 133.567 661.821 133.743C661.549 133.92 661.471 134.283 661.648 134.555C661.824 134.827 662.188 134.905 662.46 134.728Z" fill="white"/>
<path d="M304.039 336.519C304.311 336.343 304.388 335.979 304.212 335.707C304.035 335.435 303.672 335.358 303.4 335.534C303.128 335.711 303.051 336.074 303.227 336.346C303.404 336.618 303.767 336.696 304.039 336.519Z" fill="white"/>
<path opacity="0.11" d="M279.39 314.711C279.662 314.535 279.739 314.171 279.563 313.899C279.386 313.627 279.023 313.55 278.751 313.726C278.479 313.903 278.401 314.266 278.578 314.538C278.754 314.81 279.118 314.888 279.39 314.711Z" fill="white"/>
<path opacity="0.11" d="M265.562 339.788C265.833 339.612 265.911 339.248 265.734 338.976C265.558 338.704 265.194 338.627 264.922 338.803C264.651 338.98 264.573 339.344 264.75 339.615C264.926 339.887 265.29 339.965 265.562 339.788Z" fill="white"/>
<path opacity="0.11" d="M301 358.797C301.271 358.621 301.349 358.257 301.172 357.985C300.996 357.713 300.632 357.636 300.36 357.812C300.088 357.989 300.011 358.352 300.188 358.624C300.364 358.896 300.728 358.974 301 358.797Z" fill="white"/>
<path opacity="0.11" d="M405.453 263.003C405.725 262.827 405.802 262.463 405.625 262.191C405.449 261.919 405.086 261.842 404.814 262.018C404.542 262.195 404.464 262.558 404.641 262.83C404.817 263.102 405.181 263.18 405.453 263.003Z" fill="white"/>
<path opacity="0.11" d="M486.609 260.75C486.881 260.574 486.958 260.21 486.782 259.938C486.605 259.666 486.242 259.589 485.97 259.765C485.698 259.942 485.62 260.305 485.797 260.577C485.973 260.849 486.337 260.927 486.609 260.75Z" fill="white"/>
<path opacity="0.11" d="M577.992 194.442C578.264 194.265 578.341 193.902 578.165 193.63C577.988 193.358 577.625 193.28 577.353 193.457C577.081 193.633 577.003 193.997 577.18 194.269C577.356 194.541 577.72 194.618 577.992 194.442Z" fill="white"/>
<path opacity="0.3" d="M318.71 309.496C318.982 309.32 319.059 308.956 318.882 308.684C318.706 308.412 318.342 308.335 318.071 308.512C317.799 308.688 317.721 309.052 317.898 309.323C318.074 309.595 318.438 309.673 318.71 309.496Z" fill="white"/>
<path d="M414.75 209.364C415.022 209.188 415.099 208.824 414.923 208.552C414.746 208.28 414.383 208.203 414.111 208.379C413.839 208.556 413.762 208.919 413.938 209.191C414.115 209.463 414.478 209.54 414.75 209.364Z" fill="white"/>
<path d="M489.976 159.146C490.248 158.97 490.325 158.606 490.149 158.334C489.972 158.062 489.609 157.985 489.337 158.161C489.065 158.338 488.987 158.701 489.164 158.973C489.34 159.245 489.704 159.323 489.976 159.146Z" fill="white"/>
<path d="M410.664 276.426C410.936 276.25 411.013 275.886 410.837 275.615C410.66 275.343 410.297 275.265 410.025 275.442C409.753 275.618 409.676 275.982 409.852 276.254C410.028 276.526 410.392 276.603 410.664 276.426Z" fill="white"/>
<path opacity="0.3" d="M376.179 298.806C376.451 298.629 376.528 298.266 376.352 297.994C376.175 297.722 375.812 297.645 375.54 297.821C375.268 297.998 375.191 298.361 375.367 298.633C375.544 298.905 375.907 298.982 376.179 298.806Z" fill="white"/>
<path opacity="0.11" d="M315.967 294.476C316.239 294.299 316.317 293.936 316.14 293.664C315.964 293.392 315.6 293.315 315.328 293.491C315.056 293.667 314.979 294.031 315.155 294.303C315.332 294.575 315.695 294.652 315.967 294.476Z" fill="white"/>
<path opacity="0.3" d="M431.296 215.432C431.568 215.255 431.645 214.892 431.469 214.62C431.292 214.348 430.929 214.271 430.657 214.447C430.385 214.624 430.307 214.987 430.484 215.259C430.66 215.531 431.024 215.608 431.296 215.432Z" fill="white"/>
<path opacity="0.3" d="M425.117 280.351C425.389 280.175 425.466 279.811 425.29 279.539C425.113 279.267 424.75 279.19 424.478 279.366C424.206 279.543 424.128 279.906 424.305 280.178C424.481 280.45 424.845 280.528 425.117 280.351Z" fill="white"/>
<path opacity="0.3" d="M368.703 323.961C368.975 323.784 369.052 323.421 368.875 323.149C368.699 322.877 368.336 322.799 368.064 322.976C367.792 323.152 367.714 323.516 367.891 323.788C368.067 324.06 368.431 324.137 368.703 323.961Z" fill="white"/>
<path opacity="0.3" d="M332.999 300.227C333.271 300.051 333.349 299.687 333.172 299.415C332.996 299.143 332.632 299.066 332.36 299.242C332.088 299.419 332.011 299.782 332.187 300.054C332.364 300.326 332.727 300.404 332.999 300.227Z" fill="white"/>
<path opacity="0.3" d="M638.453 99.8986C638.725 99.7222 638.802 99.3586 638.626 99.0867C638.449 98.8148 638.086 98.7374 637.814 98.9138C637.542 99.0903 637.464 99.4539 637.641 99.7258C637.817 99.9977 638.181 100.075 638.453 99.8986Z" fill="white"/>
<path opacity="0.11" d="M546.031 131.171C546.303 130.995 546.38 130.631 546.204 130.359C546.027 130.087 545.664 130.01 545.392 130.186C545.12 130.363 545.042 130.726 545.219 130.998C545.395 131.27 545.759 131.348 546.031 131.171Z" fill="white"/>
<path opacity="0.11" d="M638.898 129.712C639.17 129.535 639.247 129.172 639.071 128.9C638.894 128.628 638.531 128.55 638.259 128.727C637.987 128.903 637.909 129.267 638.086 129.539C638.262 129.811 638.626 129.888 638.898 129.712Z" fill="white"/>
<path opacity="0.3" d="M517.14 215.031C517.684 214.678 517.839 213.95 517.486 213.406C517.133 212.861 516.405 212.706 515.861 213.06C515.316 213.413 515.161 214.141 515.515 214.685C515.868 215.229 516.595 215.384 517.14 215.031Z" fill="white"/>
<path opacity="0.11" d="M536.616 181.389C537.16 181.036 537.315 180.308 536.962 179.764C536.608 179.22 535.881 179.065 535.336 179.418C534.792 179.771 534.637 180.499 534.99 181.043C535.344 181.588 536.071 181.743 536.616 181.389Z" fill="white"/>
<path d="M525.183 164.307C525.591 164.042 525.707 163.496 525.442 163.088C525.177 162.68 524.632 162.564 524.224 162.829C523.815 163.093 523.699 163.639 523.964 164.047C524.229 164.455 524.775 164.571 525.183 164.307Z" fill="white"/>
<path d="M524.761 238.091C525.169 237.826 525.285 237.281 525.02 236.873C524.756 236.464 524.21 236.348 523.802 236.613C523.394 236.878 523.278 237.424 523.542 237.832C523.807 238.24 524.353 238.356 524.761 238.091Z" fill="white"/>
<path d="M694.706 141.806C695.114 141.541 695.23 140.995 694.965 140.587C694.7 140.179 694.155 140.063 693.747 140.328C693.339 140.592 693.222 141.138 693.487 141.546C693.752 141.954 694.298 142.07 694.706 141.806Z" fill="white"/>
<path d="M369.55 340.913C369.958 340.648 370.074 340.103 369.809 339.694C369.544 339.286 368.999 339.17 368.591 339.435C368.182 339.7 368.066 340.245 368.331 340.654C368.596 341.062 369.142 341.178 369.55 340.913Z" fill="white"/>
<path d="M296.683 372.101C297.091 371.836 297.207 371.291 296.942 370.882C296.677 370.474 296.132 370.358 295.724 370.623C295.316 370.888 295.199 371.433 295.464 371.842C295.729 372.25 296.275 372.366 296.683 372.101Z" fill="white"/>
<path d="M275.518 357.83C275.927 357.566 276.043 357.02 275.778 356.612C275.513 356.204 274.967 356.088 274.559 356.352C274.151 356.617 274.035 357.163 274.3 357.571C274.565 357.979 275.11 358.095 275.518 357.83Z" fill="white"/>
<path d="M507.933 189.505C508.341 189.24 508.457 188.694 508.192 188.286C507.927 187.878 507.382 187.762 506.974 188.027C506.565 188.292 506.449 188.837 506.714 189.245C506.979 189.654 507.525 189.77 507.933 189.505Z" fill="white"/>
<path d="M445.87 281.585C446.278 281.32 446.394 280.775 446.13 280.367C445.865 279.959 445.319 279.842 444.911 280.107C444.503 280.372 444.387 280.918 444.651 281.326C444.916 281.734 445.462 281.85 445.87 281.585Z" fill="white"/>
<path d="M583.761 222.206C584.169 221.941 584.285 221.396 584.02 220.987C583.755 220.579 583.21 220.463 582.802 220.728C582.394 220.993 582.277 221.538 582.542 221.947C582.807 222.355 583.353 222.471 583.761 222.206Z" fill="white"/>
<path d="M692.566 103.987C692.974 103.722 693.09 103.177 692.825 102.769C692.56 102.36 692.015 102.244 691.607 102.509C691.198 102.774 691.082 103.32 691.347 103.728C691.612 104.136 692.158 104.252 692.566 103.987Z" fill="white"/>
<path d="M686.808 69.2216C687.216 68.9567 687.332 68.4111 687.067 68.003C686.802 67.5948 686.257 67.4787 685.849 67.7436C685.44 68.0084 685.324 68.554 685.589 68.9622C685.854 69.3703 686.4 69.4865 686.808 69.2216Z" fill="white"/>
<path opacity="0.3" d="M566.147 138.422C566.691 138.069 566.846 137.342 566.493 136.797C566.139 136.253 565.412 136.098 564.867 136.451C564.323 136.804 564.168 137.532 564.521 138.076C564.875 138.621 565.602 138.776 566.147 138.422Z" fill="white"/>
<path d="M543.444 103.448C543.988 103.095 544.143 102.367 543.79 101.823C543.436 101.278 542.709 101.123 542.164 101.477C541.62 101.83 541.465 102.557 541.818 103.102C542.172 103.646 542.899 103.801 543.444 103.448Z" fill="white"/>
<path d="M598.55 132.797C598.958 132.532 599.074 131.987 598.809 131.579C598.544 131.171 597.999 131.054 597.591 131.319C597.182 131.584 597.066 132.13 597.331 132.538C597.596 132.946 598.142 133.062 598.55 132.797Z" fill="white"/>
<path opacity="0.3" d="M609.976 98.0787C610.52 97.7255 610.675 96.9978 610.322 96.4534C609.969 95.9091 609.241 95.7542 608.697 96.1074C608.152 96.4607 607.997 97.1884 608.351 97.7327C608.704 98.2771 609.431 98.432 609.976 98.0787Z" fill="white"/>
<path opacity="0.3" d="M681.444 101.406C681.988 101.053 682.143 100.325 681.79 99.7811C681.437 99.2367 680.709 99.0818 680.165 99.4351C679.62 99.7883 679.465 100.516 679.819 101.06C680.172 101.605 680.9 101.76 681.444 101.406Z" fill="white"/>
<path opacity="0.3" d="M624.444 139.795C624.988 139.442 625.143 138.714 624.79 138.17C624.437 137.625 623.709 137.47 623.165 137.824C622.62 138.177 622.465 138.905 622.819 139.449C623.172 139.993 623.9 140.148 624.444 139.795Z" fill="white"/>
<path opacity="0.3" d="M347.108 331.674C347.652 331.321 347.807 330.593 347.454 330.049C347.101 329.504 346.373 329.349 345.829 329.703C345.284 330.056 345.129 330.784 345.483 331.328C345.836 331.872 346.564 332.027 347.108 331.674Z" fill="white"/>
<path opacity="0.3" d="M289.616 330.477C290.16 330.124 290.315 329.396 289.962 328.852C289.608 328.308 288.881 328.153 288.336 328.506C287.792 328.859 287.637 329.587 287.99 330.131C288.344 330.675 289.071 330.83 289.616 330.477Z" fill="white"/>
<path opacity="0.11" d="M651.655 99.7349C652.199 99.3817 652.354 98.654 652.001 98.1097C651.648 97.5653 650.92 97.4104 650.376 97.7637C649.831 98.1169 649.676 98.8446 650.03 99.389C650.383 99.9333 651.111 100.088 651.655 99.7349Z" fill="white"/>
<path opacity="0.3" d="M349.194 268.012C349.738 267.659 349.893 266.931 349.54 266.387C349.186 265.843 348.459 265.688 347.914 266.041C347.37 266.394 347.215 267.122 347.568 267.666C347.922 268.211 348.649 268.366 349.194 268.012Z" fill="white"/>
<path opacity="0.11" d="M329.499 266.79C330.043 266.436 330.198 265.709 329.845 265.164C329.491 264.62 328.764 264.465 328.219 264.818C327.675 265.172 327.52 265.899 327.873 266.444C328.227 266.988 328.954 267.143 329.499 266.79Z" fill="white"/>
<path opacity="0.3" d="M346.022 300.876C346.567 300.522 346.722 299.795 346.368 299.25C346.015 298.706 345.287 298.551 344.743 298.904C344.199 299.258 344.044 299.985 344.397 300.53C344.75 301.074 345.478 301.229 346.022 300.876Z" fill="white"/>
<path d="M376.488 280.403C376.896 280.138 377.012 279.592 376.747 279.184C376.482 278.776 375.936 278.66 375.528 278.925C375.12 279.19 375.004 279.735 375.269 280.143C375.534 280.551 376.079 280.668 376.488 280.403Z" fill="white"/>
<path opacity="0.11" d="M774.226 131.284C774.77 130.931 774.925 130.203 774.572 129.659C774.219 129.114 773.491 128.959 772.947 129.313C772.402 129.666 772.247 130.393 772.601 130.938C772.954 131.482 773.682 131.637 774.226 131.284Z" fill="white"/>
<path d="M780.941 134.625C781.349 134.361 781.465 133.815 781.2 133.407C780.935 132.999 780.39 132.882 779.982 133.147C779.574 133.412 779.457 133.958 779.722 134.366C779.987 134.774 780.533 134.89 780.941 134.625Z" fill="white"/>
<path d="M790.488 113.731C790.896 113.466 791.012 112.921 790.747 112.513C790.482 112.105 789.937 111.988 789.529 112.253C789.121 112.518 789.004 113.064 789.269 113.472C789.534 113.88 790.08 113.996 790.488 113.731Z" fill="white"/>
<path d="M747.972 139.918C748.38 139.653 748.496 139.107 748.231 138.699C747.966 138.291 747.421 138.175 747.013 138.44C746.604 138.705 746.488 139.25 746.753 139.658C747.018 140.067 747.564 140.183 747.972 139.918Z" fill="white"/>
<path opacity="0.11" d="M731.257 167.567C731.801 167.214 731.956 166.486 731.603 165.942C731.25 165.397 730.522 165.242 729.978 165.596C729.433 165.949 729.278 166.677 729.632 167.221C729.985 167.765 730.712 167.92 731.257 167.567Z" fill="white"/>
<path d="M714.867 162.803C715.139 162.626 715.216 162.263 715.04 161.991C714.863 161.719 714.5 161.642 714.228 161.818C713.956 161.995 713.878 162.358 714.055 162.63C714.231 162.902 714.595 162.979 714.867 162.803Z" fill="white"/>
<path d="M785.21 151.456C785.482 151.28 785.559 150.916 785.383 150.644C785.206 150.372 784.843 150.295 784.571 150.471C784.299 150.648 784.221 151.011 784.398 151.283C784.574 151.555 784.938 151.633 785.21 151.456Z" fill="white"/>
<path d="M892.609 81.7634C892.881 81.5869 892.958 81.2234 892.782 80.9515C892.605 80.6795 892.242 80.6021 891.97 80.7786C891.698 80.9551 891.62 81.3186 891.797 81.5905C891.973 81.8625 892.337 81.9399 892.609 81.7634Z" fill="white"/>
<path d="M929.039 20.3132C929.311 20.1367 929.388 19.7732 929.212 19.5012C929.035 19.2293 928.672 19.1519 928.4 19.3284C928.128 19.5049 928.05 19.8684 928.227 20.1403C928.403 20.4123 928.767 20.4897 929.039 20.3132Z" fill="white"/>
<path d="M971.593 43.8068C971.865 43.6303 971.942 43.2668 971.766 42.9949C971.589 42.723 971.226 42.6456 970.954 42.822C970.682 42.9985 970.604 43.3621 970.781 43.634C970.957 43.9059 971.321 43.9833 971.593 43.8068Z" fill="white"/>
<path d="M613.171 245.599C613.443 245.423 613.52 245.059 613.344 244.787C613.167 244.515 612.804 244.438 612.532 244.615C612.26 244.791 612.182 245.155 612.359 245.426C612.535 245.698 612.899 245.776 613.171 245.599Z" fill="white"/>
<path opacity="0.11" d="M588.523 223.792C588.795 223.615 588.872 223.252 588.696 222.98C588.519 222.708 588.156 222.63 587.884 222.807C587.612 222.983 587.534 223.347 587.711 223.619C587.887 223.891 588.251 223.968 588.523 223.792Z" fill="white"/>
<path opacity="0.11" d="M574.695 248.869C574.967 248.692 575.045 248.329 574.868 248.057C574.692 247.785 574.328 247.708 574.056 247.884C573.784 248.061 573.707 248.424 573.883 248.696C574.06 248.968 574.423 249.045 574.695 248.869Z" fill="white"/>
<path opacity="0.11" d="M610.132 267.878C610.404 267.701 610.482 267.338 610.305 267.066C610.129 266.794 609.765 266.716 609.493 266.893C609.221 267.069 609.144 267.433 609.32 267.705C609.497 267.977 609.86 268.054 610.132 267.878Z" fill="white"/>
<path opacity="0.11" d="M714.585 172.084C714.857 171.907 714.934 171.544 714.758 171.272C714.581 171 714.218 170.922 713.946 171.099C713.674 171.275 713.596 171.639 713.773 171.911C713.949 172.183 714.313 172.26 714.585 172.084Z" fill="white"/>
<path opacity="0.11" d="M795.734 169.83C796.006 169.654 796.083 169.29 795.907 169.018C795.73 168.746 795.367 168.669 795.095 168.846C794.823 169.022 794.745 169.385 794.922 169.657C795.098 169.929 795.462 170.007 795.734 169.83Z" fill="white"/>
<path opacity="0.11" d="M887.125 103.522C887.397 103.346 887.474 102.982 887.298 102.71C887.121 102.438 886.758 102.361 886.486 102.537C886.214 102.714 886.136 103.077 886.313 103.349C886.489 103.621 886.853 103.699 887.125 103.522Z" fill="white"/>
<path opacity="0.3" d="M627.843 218.576C628.115 218.4 628.192 218.036 628.016 217.764C627.839 217.493 627.476 217.415 627.204 217.592C626.932 217.768 626.854 218.132 627.031 218.404C627.207 218.675 627.571 218.753 627.843 218.576Z" fill="white"/>
<path d="M723.882 118.445C724.154 118.269 724.231 117.905 724.055 117.633C723.878 117.361 723.515 117.284 723.243 117.46C722.971 117.637 722.893 118 723.07 118.272C723.246 118.544 723.61 118.621 723.882 118.445Z" fill="white"/>
<path d="M799.109 68.2273C799.381 68.0508 799.458 67.6873 799.282 67.4153C799.105 67.1434 798.742 67.066 798.47 67.2425C798.198 67.419 798.12 67.7825 798.297 68.0544C798.473 68.3264 798.837 68.4038 799.109 68.2273Z" fill="white"/>
<path d="M719.796 185.508C720.068 185.331 720.145 184.968 719.969 184.696C719.792 184.424 719.429 184.346 719.157 184.523C718.885 184.699 718.807 185.063 718.984 185.335C719.16 185.607 719.524 185.684 719.796 185.508Z" fill="white"/>
<path opacity="0.3" d="M685.312 207.886C685.584 207.71 685.661 207.346 685.485 207.075C685.308 206.803 684.945 206.725 684.673 206.902C684.401 207.078 684.323 207.442 684.5 207.714C684.676 207.986 685.04 208.063 685.312 207.886Z" fill="white"/>
<path opacity="0.11" d="M625.101 203.556C625.373 203.379 625.45 203.016 625.274 202.744C625.097 202.472 624.734 202.395 624.462 202.571C624.19 202.748 624.112 203.111 624.289 203.383C624.465 203.655 624.829 203.732 625.101 203.556Z" fill="white"/>
<path opacity="0.3" d="M740.429 124.512C740.701 124.336 740.778 123.972 740.602 123.7C740.425 123.429 740.062 123.351 739.79 123.528C739.518 123.704 739.44 124.068 739.617 124.34C739.793 124.612 740.157 124.689 740.429 124.512Z" fill="white"/>
<path opacity="0.3" d="M734.25 189.432C734.522 189.255 734.599 188.892 734.423 188.62C734.246 188.348 733.883 188.271 733.611 188.447C733.339 188.624 733.261 188.987 733.438 189.259C733.614 189.531 733.978 189.608 734.25 189.432Z" fill="white"/>
<path opacity="0.3" d="M677.835 233.041C678.107 232.864 678.184 232.501 678.008 232.229C677.831 231.957 677.468 231.879 677.196 232.056C676.924 232.232 676.846 232.596 677.023 232.868C677.199 233.14 677.563 233.217 677.835 233.041Z" fill="white"/>
<path opacity="0.3" d="M642.132 209.307C642.404 209.131 642.481 208.767 642.305 208.495C642.128 208.223 641.765 208.146 641.493 208.323C641.221 208.499 641.143 208.863 641.32 209.134C641.496 209.406 641.86 209.484 642.132 209.307Z" fill="white"/>
<path opacity="0.3" d="M947.585 8.97968C947.857 8.8032 947.934 8.43969 947.758 8.16775C947.581 7.8958 947.218 7.8184 946.946 7.99488C946.674 8.17137 946.596 8.53491 946.773 8.80685C946.949 9.0788 947.313 9.15616 947.585 8.97968Z" fill="white"/>
<path opacity="0.11" d="M855.164 40.2507C855.436 40.0742 855.513 39.7107 855.337 39.4388C855.16 39.1668 854.797 39.0894 854.525 39.2659C854.253 39.4424 854.175 39.8059 854.352 40.0779C854.528 40.3498 854.892 40.4272 855.164 40.2507Z" fill="white"/>
<path opacity="0.11" d="M948.031 38.7912C948.303 38.6148 948.38 38.2513 948.204 37.9793C948.027 37.7074 947.664 37.63 947.392 37.8064C947.12 37.9829 947.042 38.3464 947.219 38.6184C947.395 38.8903 947.759 38.9677 948.031 38.7912Z" fill="white"/>
<path opacity="0.3" d="M826.272 124.111C826.816 123.758 826.971 123.03 826.618 122.486C826.265 121.942 825.537 121.787 824.993 122.14C824.448 122.493 824.293 123.221 824.647 123.765C825 124.31 825.728 124.465 826.272 124.111Z" fill="white"/>
<path opacity="0.11" d="M845.749 90.4698C846.293 90.1166 846.448 89.3889 846.095 88.8446C845.742 88.3002 845.014 88.1453 844.47 88.4985C843.925 88.8518 843.77 89.5795 844.124 90.1238C844.477 90.6682 845.205 90.8231 845.749 90.4698Z" fill="white"/>
<path d="M834.316 73.3871C834.724 73.1223 834.84 72.5767 834.575 72.1685C834.31 71.7604 833.765 71.6442 833.357 71.9091C832.949 72.174 832.832 72.7195 833.097 73.1277C833.362 73.5358 833.908 73.652 834.316 73.3871Z" fill="white"/>
<path d="M833.894 147.172C834.302 146.907 834.418 146.361 834.153 145.953C833.888 145.545 833.343 145.429 832.935 145.694C832.527 145.959 832.41 146.504 832.675 146.912C832.94 147.321 833.486 147.437 833.894 147.172Z" fill="white"/>
<path d="M1003.84 50.8862C1004.25 50.6213 1004.36 50.0757 1004.1 49.6675C1003.83 49.2594 1003.29 49.1432 1002.88 49.4081C1002.47 49.673 1002.36 50.2186 1002.62 50.6267C1002.89 51.0349 1003.43 51.151 1003.84 50.8862Z" fill="white"/>
<path d="M678.683 249.994C679.091 249.729 679.207 249.183 678.942 248.775C678.677 248.367 678.132 248.251 677.724 248.516C677.316 248.78 677.199 249.326 677.464 249.734C677.729 250.142 678.275 250.258 678.683 249.994Z" fill="white"/>
<path d="M605.816 281.182C606.224 280.917 606.34 280.371 606.075 279.963C605.81 279.555 605.264 279.439 604.856 279.704C604.448 279.968 604.332 280.514 604.597 280.922C604.862 281.33 605.407 281.446 605.816 281.182Z" fill="white"/>
<path d="M584.652 266.912C585.06 266.647 585.176 266.101 584.912 265.693C584.647 265.285 584.101 265.169 583.693 265.433C583.285 265.698 583.169 266.244 583.433 266.652C583.698 267.06 584.244 267.176 584.652 266.912Z" fill="white"/>
<path d="M817.066 98.5849C817.474 98.32 817.59 97.7744 817.325 97.3663C817.06 96.9581 816.515 96.842 816.107 97.1068C815.699 97.3717 815.582 97.9173 815.847 98.3255C816.112 98.7336 816.658 98.8498 817.066 98.5849Z" fill="white"/>
<path d="M755.003 190.666C755.411 190.401 755.527 189.855 755.262 189.447C754.997 189.039 754.452 188.923 754.044 189.188C753.636 189.453 753.519 189.998 753.784 190.406C754.049 190.815 754.595 190.931 755.003 190.666Z" fill="white"/>
<path d="M892.894 131.287C893.302 131.022 893.418 130.476 893.153 130.068C892.888 129.66 892.343 129.544 891.935 129.809C891.527 130.073 891.41 130.619 891.675 131.027C891.94 131.435 892.486 131.551 892.894 131.287Z" fill="white"/>
<path d="M1001.7 13.0678C1002.11 12.8029 1002.22 12.2573 1001.96 11.8492C1001.69 11.441 1001.15 11.3249 1000.74 11.5898C1000.33 11.8546 1000.21 12.4002 1000.48 12.8084C1000.74 13.2165 1001.29 13.3327 1001.7 13.0678Z" fill="white"/>
<path opacity="0.3" d="M875.272 47.5035C875.816 47.1502 875.971 46.4226 875.618 45.8782C875.265 45.3339 874.537 45.1789 873.993 45.5322C873.448 45.8855 873.293 46.6132 873.647 47.1575C874 47.7019 874.728 47.8567 875.272 47.5035Z" fill="white"/>
<path d="M852.577 12.5289C853.121 12.1756 853.276 11.448 852.923 10.9036C852.57 10.3593 851.842 10.2044 851.298 10.5576C850.753 10.9109 850.598 11.6385 850.952 12.1829C851.305 12.7273 852.032 12.8822 852.577 12.5289Z" fill="white"/>
<path d="M907.683 41.8778C908.091 41.613 908.207 41.0674 907.942 40.6592C907.677 40.2511 907.132 40.1349 906.724 40.3998C906.316 40.6647 906.199 41.2103 906.464 41.6184C906.729 42.0266 907.275 42.1427 907.683 41.8778Z" fill="white"/>
<path opacity="0.3" d="M919.108 7.16026C919.652 6.80699 919.807 6.07934 919.454 5.53498C919.101 4.99063 918.373 4.83571 917.829 5.18898C917.284 5.54224 917.129 6.2699 917.483 6.81426C917.836 7.35861 918.564 7.51352 919.108 7.16026Z" fill="white"/>
<path opacity="0.3" d="M990.578 10.4869C991.122 10.1337 991.277 9.40599 990.924 8.86164C990.57 8.31728 989.843 8.16237 989.298 8.51564C988.754 8.8689 988.599 9.59656 988.952 10.1409C989.306 10.6853 990.033 10.8402 990.578 10.4869Z" fill="white"/>
<path opacity="0.3" d="M933.577 48.8756C934.121 48.5223 934.276 47.7947 933.923 47.2503C933.57 46.706 932.842 46.551 932.298 46.9043C931.753 47.2576 931.598 47.9852 931.952 48.5296C932.305 49.0739 933.033 49.2289 933.577 48.8756Z" fill="white"/>
<path opacity="0.3" d="M656.241 240.755C656.785 240.402 656.94 239.674 656.587 239.13C656.234 238.585 655.506 238.43 654.962 238.784C654.417 239.137 654.262 239.865 654.616 240.409C654.969 240.953 655.697 241.108 656.241 240.755Z" fill="white"/>
<path opacity="0.3" d="M598.749 239.558C599.293 239.205 599.448 238.477 599.095 237.933C598.742 237.389 598.014 237.234 597.47 237.587C596.925 237.94 596.77 238.668 597.124 239.212C597.477 239.757 598.205 239.911 598.749 239.558Z" fill="white"/>
<path opacity="0.11" d="M960.788 8.81554C961.332 8.46227 961.487 7.73461 961.134 7.19026C960.781 6.6459 960.053 6.49099 959.509 6.84425C958.964 7.19752 958.809 7.92518 959.163 8.46953C959.516 9.01388 960.244 9.1688 960.788 8.81554Z" fill="white"/>
<path opacity="0.3" d="M658.327 177.092C658.871 176.739 659.026 176.011 658.673 175.467C658.32 174.922 657.592 174.767 657.048 175.121C656.503 175.474 656.348 176.202 656.702 176.746C657.055 177.29 657.783 177.445 658.327 177.092Z" fill="white"/>
<path opacity="0.11" d="M638.632 175.871C639.176 175.518 639.331 174.79 638.978 174.246C638.625 173.702 637.897 173.547 637.353 173.9C636.808 174.253 636.653 174.981 637.007 175.525C637.36 176.07 638.088 176.224 638.632 175.871Z" fill="white"/>
<path opacity="0.3" d="M655.155 209.956C655.699 209.602 655.854 208.875 655.501 208.33C655.148 207.786 654.42 207.631 653.876 207.984C653.331 208.338 653.176 209.065 653.53 209.61C653.883 210.154 654.611 210.309 655.155 209.956Z" fill="white"/>
<path d="M685.62 189.483C686.028 189.218 686.144 188.672 685.879 188.264C685.614 187.856 685.069 187.74 684.661 188.005C684.252 188.27 684.136 188.815 684.401 189.223C684.666 189.632 685.212 189.748 685.62 189.483Z" fill="white"/>
</g>
<mask id="path-166-inside-1_211_743" fill="white">
<path d="M-600 1196C-600 732.081 -223.919 356 240 356H960C1423.92 356 1800 732.081 1800 1196C1800 1659.92 1423.92 2036 960 2036H240C-223.919 2036 -600 1659.92 -600 1196Z"/>
</mask>
<path d="M-600 1196C-600 732.081 -223.919 356 240 356H960C1423.92 356 1800 732.081 1800 1196C1800 1659.92 1423.92 2036 960 2036H240C-223.919 2036 -600 1659.92 -600 1196Z" fill="#0A0C19"/>
<path d="M-600 1196C-600 731.529 -223.471 355 241 355H959C1423.47 355 1800 731.529 1800 1196C1800 732.633 1423.92 357 960 357H240C-223.919 357 -600 732.633 -600 1196ZM1800 2036H-600H1800ZM-600 2036V356V2036ZM1800 356V2036V356Z" fill="#233F49" mask="url(#path-166-inside-1_211_743)"/>
</g>
<defs>
<radialGradient id="paint0_radial_211_743" cx="0" cy="0" r="1" gradientUnits="userSpaceOnUse" gradientTransform="translate(600 300) rotate(26.5651) scale(670.82 536.656)">
<stop stop-color="#17173F"/>
<stop offset="0.7" stop-opacity="0"/>
</radialGradient>
<radialGradient id="paint1_radial_211_743" cx="0" cy="0" r="1" gradientUnits="userSpaceOnUse" gradientTransform="translate(600 299.97) rotate(39.9732) scale(568.934 560.198)">
<stop/>
<stop offset="1" stop-opacity="0"/>
</radialGradient>
<clipPath id="clip0_211_743">
<rect width="1200" height="600" fill="white"/>
</clipPath>
</defs>
</svg>
