<svg width="349" height="600" viewBox="0 0 349 600" fill="none" xmlns="http://www.w3.org/2000/svg">
<g clip-path="url(#clip0_211_561)">
<rect opacity="0.4" width="349" height="600" fill="url(#paint0_radial_211_561)"/>
<mask id="mask0_211_561" style="mask-type:alpha" maskUnits="userSpaceOnUse" x="-261" y="-66" width="872" height="732">
<rect x="-261" y="-65.5298" width="872" height="731" fill="url(#paint1_radial_211_561)"/>
</mask>
<g mask="url(#mask0_211_561)">
</g>
<g opacity="0.7">
<path d="M85.7418 433.68C86.0138 433.504 86.0912 433.14 85.9147 432.868C85.7382 432.596 85.3747 432.519 85.1028 432.696C84.8308 432.872 84.7534 433.236 84.9299 433.508C85.1064 433.779 85.4699 433.857 85.7418 433.68Z" fill="white"/>
<path d="M122.171 372.231C122.443 372.054 122.521 371.691 122.344 371.419C122.168 371.147 121.804 371.069 121.532 371.246C121.26 371.422 121.183 371.786 121.359 372.058C121.536 372.33 121.899 372.407 122.171 372.231Z" fill="white"/>
<path d="M164.726 395.724C164.998 395.547 165.076 395.184 164.899 394.912C164.723 394.64 164.359 394.563 164.087 394.739C163.815 394.916 163.738 395.279 163.914 395.551C164.091 395.823 164.454 395.9 164.726 395.724Z" fill="white"/>
<path opacity="0.11" d="M80.257 455.44C80.5289 455.263 80.6063 454.9 80.4298 454.628C80.2533 454.356 79.8898 454.278 79.6179 454.455C79.3459 454.631 79.2685 454.995 79.445 455.267C79.6215 455.539 79.9851 455.616 80.257 455.44Z" fill="white"/>
<path opacity="0.3" d="M140.718 360.897C140.99 360.72 141.067 360.357 140.891 360.085C140.715 359.813 140.351 359.735 140.079 359.912C139.807 360.088 139.73 360.452 139.906 360.724C140.083 360.996 140.446 361.073 140.718 360.897Z" fill="white"/>
<path opacity="0.11" d="M48.296 392.167C48.568 391.991 48.6454 391.627 48.4689 391.355C48.2924 391.083 47.9289 391.006 47.657 391.182C47.385 391.359 47.3076 391.722 47.4841 391.994C47.6606 392.266 48.0241 392.344 48.296 392.167Z" fill="white"/>
<path opacity="0.11" d="M141.164 390.708C141.436 390.532 141.514 390.168 141.337 389.896C141.161 389.624 140.797 389.547 140.525 389.723C140.253 389.9 140.176 390.263 140.352 390.535C140.529 390.807 140.892 390.885 141.164 390.708Z" fill="white"/>
<path opacity="0.3" d="M19.4046 476.028C19.949 475.675 20.1039 474.947 19.7506 474.403C19.3973 473.858 18.6697 473.703 18.1253 474.057C17.5809 474.41 17.4261 475.138 17.7793 475.682C18.1326 476.226 18.8603 476.381 19.4046 476.028Z" fill="white"/>
<path opacity="0.11" d="M38.8824 442.387C39.4267 442.034 39.5816 441.306 39.2284 440.762C38.8751 440.217 38.1474 440.062 37.6031 440.416C37.0587 440.769 36.9038 441.496 37.2571 442.041C37.6103 442.585 38.338 442.74 38.8824 442.387Z" fill="white"/>
<path d="M27.4482 425.305C27.8564 425.04 27.9725 424.494 27.7076 424.086C27.4428 423.678 26.8972 423.562 26.489 423.827C26.0809 424.091 25.9647 424.637 26.2296 425.045C26.4945 425.453 27.0401 425.569 27.4482 425.305Z" fill="white"/>
<path d="M196.972 402.803C197.38 402.538 197.496 401.993 197.231 401.585C196.966 401.176 196.421 401.06 196.013 401.325C195.605 401.59 195.488 402.136 195.753 402.544C196.018 402.952 196.564 403.068 196.972 402.803Z" fill="white"/>
<path d="M10.1982 450.502C10.6064 450.238 10.7225 449.692 10.4577 449.284C10.1928 448.876 9.64715 448.759 9.239 449.024C8.83085 449.289 8.71475 449.835 8.97962 450.243C9.24449 450.651 9.79006 450.767 10.1982 450.502Z" fill="white"/>
<path d="M86.0271 483.205C86.4352 482.94 86.5514 482.394 86.2865 481.986C86.0216 481.578 85.476 481.462 85.0679 481.727C84.6597 481.992 84.5436 482.537 84.8084 482.946C85.0733 483.354 85.6189 483.47 86.0271 483.205Z" fill="white"/>
<path d="M194.831 364.985C195.239 364.72 195.355 364.175 195.09 363.767C194.825 363.359 194.28 363.242 193.872 363.507C193.463 363.772 193.347 364.318 193.612 364.726C193.877 365.134 194.423 365.25 194.831 364.985Z" fill="white"/>
<path opacity="0.3" d="M68.4126 399.421C68.957 399.068 69.1119 398.341 68.7586 397.796C68.4054 397.252 67.6777 397.097 67.1334 397.45C66.589 397.803 66.4341 398.531 66.7873 399.075C67.1406 399.62 67.8683 399.775 68.4126 399.421Z" fill="white"/>
<path d="M45.7098 364.446C46.2541 364.093 46.409 363.365 46.0557 362.821C45.7025 362.276 44.9748 362.121 44.4305 362.475C43.8861 362.828 43.7312 363.556 44.0845 364.1C44.4377 364.644 45.1654 364.799 45.7098 364.446Z" fill="white"/>
<path d="M100.816 393.795C101.224 393.53 101.34 392.984 101.075 392.576C100.81 392.168 100.265 392.052 99.8565 392.317C99.4483 392.582 99.3322 393.127 99.597 393.535C99.8619 393.944 100.408 394.06 100.816 393.795Z" fill="white"/>
<path opacity="0.3" d="M112.241 359.077C112.785 358.724 112.94 357.996 112.587 357.452C112.234 356.908 111.506 356.753 110.962 357.106C110.417 357.459 110.262 358.187 110.616 358.731C110.969 359.276 111.697 359.43 112.241 359.077Z" fill="white"/>
<path opacity="0.3" d="M183.71 362.404C184.255 362.051 184.41 361.323 184.056 360.779C183.703 360.234 182.976 360.079 182.431 360.433C181.887 360.786 181.732 361.514 182.085 362.058C182.438 362.602 183.166 362.757 183.71 362.404Z" fill="white"/>
<path opacity="0.3" d="M126.71 400.793C127.254 400.439 127.409 399.712 127.056 399.167C126.702 398.623 125.975 398.468 125.43 398.821C124.886 399.175 124.731 399.902 125.084 400.447C125.437 400.991 126.165 401.146 126.71 400.793Z" fill="white"/>
<path opacity="0.11" d="M153.92 360.733C154.465 360.379 154.62 359.652 154.266 359.107C153.913 358.563 153.186 358.408 152.641 358.761C152.097 359.114 151.942 359.842 152.295 360.387C152.648 360.931 153.376 361.086 153.92 360.733Z" fill="white"/>
<path opacity="0.11" d="M40.0923 222.203C40.6367 221.85 40.7916 221.122 40.4383 220.578C40.085 220.034 39.3574 219.879 38.813 220.232C38.2687 220.585 38.1138 221.313 38.467 221.857C38.8203 222.402 39.548 222.556 40.0923 222.203Z" fill="white"/>
<path d="M46.8081 225.545C47.2162 225.28 47.3324 224.735 47.0675 224.327C46.8027 223.919 46.257 223.802 45.8489 224.067C45.4407 224.332 45.3246 224.878 45.5895 225.286C45.8543 225.694 46.3999 225.81 46.8081 225.545Z" fill="white"/>
<path d="M56.3547 204.651C56.7629 204.386 56.879 203.84 56.6142 203.432C56.3493 203.024 55.8037 202.908 55.3955 203.173C54.9874 203.438 54.8712 203.983 55.1361 204.391C55.401 204.8 55.9466 204.916 56.3547 204.651Z" fill="white"/>
<path d="M13.8389 230.838C14.247 230.573 14.3631 230.027 14.0983 229.619C13.8334 229.211 13.2878 229.095 12.8797 229.36C12.4715 229.625 12.3554 230.17 12.6202 230.578C12.8851 230.987 13.4307 231.103 13.8389 230.838Z" fill="white"/>
<path d="M51.0776 242.376C51.3495 242.2 51.4269 241.836 51.2504 241.564C51.0739 241.292 50.7104 241.215 50.4384 241.391C50.1665 241.568 50.0891 241.931 50.2656 242.203C50.4421 242.475 50.8056 242.553 51.0776 242.376Z" fill="white"/>
<path d="M158.476 172.684C158.748 172.507 158.825 172.144 158.649 171.872C158.472 171.6 158.109 171.523 157.837 171.699C157.565 171.875 157.487 172.239 157.664 172.511C157.84 172.783 158.204 172.86 158.476 172.684Z" fill="white"/>
<path d="M194.906 111.233C195.178 111.057 195.255 110.693 195.079 110.421C194.902 110.149 194.539 110.072 194.267 110.248C193.995 110.425 193.917 110.788 194.094 111.06C194.27 111.332 194.634 111.41 194.906 111.233Z" fill="white"/>
<path d="M237.46 134.728C237.732 134.552 237.809 134.188 237.633 133.916C237.456 133.644 237.093 133.567 236.821 133.743C236.549 133.92 236.471 134.283 236.648 134.555C236.824 134.827 237.188 134.905 237.46 134.728Z" fill="white"/>
<path opacity="0.11" d="M61.6085 260.75C61.8805 260.574 61.9579 260.21 61.7814 259.938C61.6049 259.666 61.2414 259.589 60.9695 259.765C60.6975 259.942 60.6201 260.305 60.7966 260.577C60.9731 260.849 61.3366 260.927 61.6085 260.75Z" fill="white"/>
<path opacity="0.11" d="M152.992 194.442C153.264 194.265 153.341 193.902 153.165 193.63C152.988 193.358 152.625 193.28 152.353 193.457C152.081 193.633 152.003 193.997 152.18 194.269C152.356 194.541 152.72 194.618 152.992 194.442Z" fill="white"/>
<path d="M64.9757 159.146C65.2477 158.97 65.3251 158.606 65.1486 158.334C64.9721 158.062 64.6086 157.985 64.3366 158.161C64.0647 158.338 63.9873 158.701 64.1638 158.973C64.3403 159.245 64.7038 159.323 64.9757 159.146Z" fill="white"/>
<path opacity="0.3" d="M6.29582 215.432C6.56776 215.255 6.64512 214.892 6.46864 214.62C6.29216 214.348 5.92866 214.271 5.65671 214.447C5.38477 214.624 5.30738 214.987 5.48386 215.259C5.66034 215.531 6.02387 215.608 6.29582 215.432Z" fill="white"/>
<path opacity="0.3" d="M0.11686 280.351C0.388805 280.175 0.466195 279.811 0.289713 279.539C0.113231 279.267 -0.250298 279.19 -0.522243 279.366C-0.794189 279.543 -0.871579 279.906 -0.695097 280.178C-0.518615 280.45 -0.155085 280.528 0.11686 280.351Z" fill="white"/>
<path opacity="0.3" d="M213.453 99.8986C213.725 99.7222 213.802 99.3586 213.626 99.0867C213.449 98.8148 213.086 98.7374 212.814 98.9138C212.542 99.0903 212.464 99.4539 212.641 99.7258C212.817 99.9977 213.181 100.075 213.453 99.8986Z" fill="white"/>
<path opacity="0.11" d="M121.031 131.171C121.303 130.995 121.38 130.631 121.204 130.359C121.027 130.087 120.664 130.01 120.392 130.186C120.12 130.363 120.042 130.726 120.219 130.998C120.395 131.27 120.759 131.348 121.031 131.171Z" fill="white"/>
<path opacity="0.11" d="M213.898 129.712C214.17 129.535 214.247 129.172 214.07 128.9C213.894 128.628 213.53 128.55 213.259 128.727C212.987 128.903 212.909 129.267 213.086 129.539C213.262 129.811 213.626 129.888 213.898 129.712Z" fill="white"/>
<path opacity="0.3" d="M92.1399 215.031C92.6843 214.678 92.8392 213.95 92.4859 213.406C92.1326 212.861 91.405 212.706 90.8606 213.06C90.3163 213.413 90.1614 214.141 90.5147 214.685C90.8679 215.229 91.5956 215.384 92.1399 215.031Z" fill="white"/>
<path opacity="0.11" d="M111.616 181.389C112.16 181.036 112.315 180.308 111.962 179.764C111.608 179.22 110.881 179.065 110.336 179.418C109.792 179.771 109.637 180.499 109.99 181.043C110.344 181.588 111.071 181.743 111.616 181.389Z" fill="white"/>
<path d="M100.183 164.307C100.591 164.042 100.707 163.496 100.442 163.088C100.177 162.68 99.6318 162.564 99.2236 162.829C98.8155 163.093 98.6993 163.639 98.9642 164.047C99.2291 164.455 99.7747 164.571 100.183 164.307Z" fill="white"/>
<path d="M99.761 238.091C100.169 237.826 100.285 237.281 100.02 236.873C99.7555 236.464 99.2099 236.348 98.8018 236.613C98.3936 236.878 98.2775 237.424 98.5423 237.832C98.8072 238.24 99.3528 238.356 99.761 238.091Z" fill="white"/>
<path d="M269.706 141.806C270.114 141.541 270.23 140.995 269.965 140.587C269.7 140.179 269.155 140.063 268.747 140.328C268.338 140.592 268.222 141.138 268.487 141.546C268.752 141.954 269.298 142.07 269.706 141.806Z" fill="white"/>
<path d="M82.9328 189.505C83.341 189.24 83.4572 188.694 83.1923 188.286C82.9274 187.878 82.3818 187.762 81.9736 188.027C81.5655 188.292 81.4493 188.837 81.7142 189.245C81.9791 189.654 82.5247 189.77 82.9328 189.505Z" fill="white"/>
<path d="M20.8701 281.585C21.2782 281.32 21.3944 280.775 21.1295 280.367C20.8646 279.959 20.3191 279.842 19.9109 280.107C19.5028 280.372 19.3866 280.918 19.6515 281.326C19.9163 281.734 20.4619 281.85 20.8701 281.585Z" fill="white"/>
<path d="M158.761 222.206C159.169 221.941 159.285 221.396 159.02 220.987C158.755 220.579 158.21 220.463 157.802 220.728C157.393 220.993 157.277 221.538 157.542 221.947C157.807 222.355 158.353 222.471 158.761 222.206Z" fill="white"/>
<path d="M267.566 103.987C267.974 103.722 268.09 103.177 267.825 102.769C267.56 102.36 267.015 102.244 266.607 102.509C266.199 102.774 266.082 103.32 266.347 103.728C266.612 104.136 267.158 104.252 267.566 103.987Z" fill="white"/>
<path d="M261.808 69.2216C262.216 68.9567 262.332 68.4111 262.067 68.003C261.802 67.5948 261.257 67.4787 260.849 67.7436C260.44 68.0084 260.324 68.554 260.589 68.9622C260.854 69.3703 261.4 69.4865 261.808 69.2216Z" fill="white"/>
<path opacity="0.3" d="M141.147 138.422C141.691 138.069 141.846 137.342 141.493 136.797C141.139 136.253 140.412 136.098 139.867 136.451C139.323 136.804 139.168 137.532 139.521 138.076C139.875 138.621 140.602 138.776 141.147 138.422Z" fill="white"/>
<path d="M118.444 103.448C118.988 103.095 119.143 102.367 118.79 101.823C118.437 101.278 117.709 101.123 117.165 101.477C116.62 101.83 116.465 102.557 116.819 103.102C117.172 103.646 117.9 103.801 118.444 103.448Z" fill="white"/>
<path d="M173.55 132.797C173.958 132.532 174.074 131.987 173.809 131.579C173.544 131.171 172.999 131.054 172.591 131.319C172.182 131.584 172.066 132.13 172.331 132.538C172.596 132.946 173.142 133.062 173.55 132.797Z" fill="white"/>
<path opacity="0.3" d="M184.976 98.0787C185.52 97.7255 185.675 96.9978 185.322 96.4534C184.969 95.9091 184.241 95.7542 183.697 96.1074C183.152 96.4607 182.997 97.1884 183.351 97.7327C183.704 98.2771 184.431 98.432 184.976 98.0787Z" fill="white"/>
<path opacity="0.3" d="M256.444 101.406C256.988 101.053 257.143 100.325 256.79 99.7811C256.437 99.2367 255.709 99.0818 255.165 99.4351C254.62 99.7883 254.465 100.516 254.819 101.06C255.172 101.605 255.9 101.76 256.444 101.406Z" fill="white"/>
<path opacity="0.3" d="M199.444 139.795C199.988 139.442 200.143 138.714 199.79 138.17C199.437 137.625 198.709 137.47 198.165 137.824C197.62 138.177 197.465 138.905 197.819 139.449C198.172 139.993 198.9 140.148 199.444 139.795Z" fill="white"/>
<path opacity="0.11" d="M226.655 99.7349C227.199 99.3817 227.354 98.654 227.001 98.1097C226.648 97.5653 225.92 97.4104 225.376 97.7637C224.831 98.1169 224.676 98.8446 225.03 99.389C225.383 99.9333 226.11 100.088 226.655 99.7349Z" fill="white"/>
<path opacity="0.11" d="M349.226 131.284C349.77 130.931 349.925 130.203 349.572 129.659C349.219 129.114 348.491 128.959 347.947 129.313C347.402 129.666 347.247 130.393 347.601 130.938C347.954 131.482 348.681 131.637 349.226 131.284Z" fill="white"/>
<path d="M322.972 139.918C323.38 139.653 323.496 139.107 323.231 138.699C322.966 138.291 322.421 138.175 322.013 138.44C321.605 138.705 321.488 139.25 321.753 139.658C322.018 140.067 322.564 140.183 322.972 139.918Z" fill="white"/>
<path opacity="0.11" d="M306.257 167.567C306.801 167.214 306.956 166.486 306.603 165.942C306.25 165.397 305.522 165.242 304.978 165.596C304.433 165.949 304.278 166.677 304.632 167.221C304.985 167.765 305.712 167.92 306.257 167.567Z" fill="white"/>
<path d="M289.867 162.803C290.139 162.626 290.216 162.263 290.04 161.991C289.863 161.719 289.5 161.642 289.228 161.818C288.956 161.995 288.878 162.358 289.055 162.63C289.231 162.902 289.595 162.979 289.867 162.803Z" fill="white"/>
<path d="M188.171 245.599C188.443 245.423 188.52 245.059 188.344 244.787C188.167 244.515 187.804 244.438 187.532 244.615C187.26 244.791 187.182 245.155 187.359 245.426C187.535 245.698 187.899 245.776 188.171 245.599Z" fill="white"/>
<path opacity="0.11" d="M163.523 223.792C163.795 223.615 163.872 223.252 163.696 222.98C163.519 222.708 163.156 222.63 162.884 222.807C162.612 222.983 162.534 223.347 162.711 223.619C162.887 223.891 163.251 223.968 163.523 223.792Z" fill="white"/>
<path opacity="0.11" d="M149.695 248.869C149.967 248.692 150.045 248.329 149.868 248.057C149.692 247.785 149.328 247.708 149.056 247.884C148.784 248.061 148.707 248.424 148.883 248.696C149.06 248.968 149.423 249.045 149.695 248.869Z" fill="white"/>
<path opacity="0.11" d="M185.132 267.878C185.404 267.701 185.482 267.338 185.305 267.066C185.129 266.794 184.765 266.716 184.493 266.893C184.221 267.069 184.144 267.433 184.32 267.705C184.497 267.977 184.86 268.054 185.132 267.878Z" fill="white"/>
<path opacity="0.11" d="M289.585 172.084C289.857 171.907 289.934 171.544 289.757 171.272C289.581 171 289.218 170.922 288.946 171.099C288.674 171.275 288.596 171.639 288.773 171.911C288.949 172.183 289.313 172.26 289.585 172.084Z" fill="white"/>
<path opacity="0.3" d="M202.843 218.576C203.115 218.4 203.192 218.036 203.016 217.764C202.839 217.493 202.476 217.415 202.204 217.592C201.932 217.768 201.854 218.132 202.031 218.404C202.207 218.675 202.571 218.753 202.843 218.576Z" fill="white"/>
<path d="M298.882 118.445C299.154 118.269 299.231 117.905 299.055 117.633C298.878 117.361 298.515 117.284 298.243 117.46C297.971 117.637 297.893 118 298.07 118.272C298.246 118.544 298.61 118.621 298.882 118.445Z" fill="white"/>
<path d="M294.796 185.508C295.068 185.331 295.145 184.968 294.969 184.696C294.792 184.424 294.429 184.346 294.157 184.523C293.885 184.699 293.807 185.063 293.984 185.335C294.16 185.607 294.524 185.684 294.796 185.508Z" fill="white"/>
<path opacity="0.3" d="M260.312 207.886C260.584 207.71 260.661 207.346 260.485 207.075C260.308 206.803 259.945 206.725 259.673 206.902C259.401 207.078 259.323 207.442 259.5 207.714C259.676 207.986 260.04 208.063 260.312 207.886Z" fill="white"/>
<path opacity="0.11" d="M200.101 203.556C200.373 203.379 200.45 203.016 200.274 202.744C200.097 202.472 199.734 202.395 199.462 202.571C199.19 202.748 199.112 203.111 199.289 203.383C199.465 203.655 199.829 203.732 200.101 203.556Z" fill="white"/>
<path opacity="0.3" d="M315.429 124.512C315.701 124.336 315.778 123.972 315.602 123.7C315.425 123.429 315.062 123.351 314.79 123.528C314.518 123.704 314.44 124.068 314.617 124.34C314.793 124.612 315.157 124.689 315.429 124.512Z" fill="white"/>
<path opacity="0.3" d="M309.25 189.432C309.522 189.255 309.599 188.892 309.423 188.62C309.246 188.348 308.883 188.271 308.611 188.447C308.339 188.624 308.261 188.987 308.438 189.259C308.614 189.531 308.978 189.608 309.25 189.432Z" fill="white"/>
<path opacity="0.3" d="M252.835 233.041C253.107 232.864 253.184 232.501 253.008 232.229C252.831 231.957 252.468 231.879 252.196 232.056C251.924 232.232 251.846 232.596 252.023 232.868C252.199 233.14 252.563 233.217 252.835 233.041Z" fill="white"/>
<path opacity="0.3" d="M217.132 209.307C217.404 209.131 217.481 208.767 217.305 208.495C217.128 208.223 216.765 208.146 216.493 208.323C216.221 208.499 216.143 208.863 216.32 209.134C216.496 209.406 216.86 209.484 217.132 209.307Z" fill="white"/>
<path d="M253.683 249.994C254.091 249.729 254.207 249.183 253.942 248.775C253.677 248.367 253.132 248.251 252.724 248.516C252.315 248.78 252.199 249.326 252.464 249.734C252.729 250.142 253.275 250.258 253.683 249.994Z" fill="white"/>
<path d="M180.816 281.182C181.224 280.917 181.34 280.371 181.075 279.963C180.81 279.555 180.265 279.439 179.856 279.704C179.448 279.968 179.332 280.514 179.597 280.922C179.862 281.33 180.407 281.446 180.816 281.182Z" fill="white"/>
<path d="M159.652 266.912C160.06 266.647 160.176 266.101 159.912 265.693C159.647 265.285 159.101 265.169 158.693 265.433C158.285 265.698 158.169 266.244 158.433 266.652C158.698 267.06 159.244 267.176 159.652 266.912Z" fill="white"/>
<path d="M330.003 190.666C330.411 190.401 330.527 189.855 330.262 189.447C329.997 189.039 329.452 188.923 329.044 189.188C328.636 189.453 328.519 189.998 328.784 190.406C329.049 190.815 329.595 190.931 330.003 190.666Z" fill="white"/>
<path opacity="0.3" d="M231.241 240.755C231.785 240.402 231.94 239.674 231.587 239.13C231.234 238.585 230.506 238.43 229.962 238.784C229.417 239.137 229.262 239.865 229.616 240.409C229.969 240.953 230.697 241.108 231.241 240.755Z" fill="white"/>
<path opacity="0.3" d="M173.749 239.558C174.293 239.205 174.448 238.477 174.095 237.933C173.742 237.389 173.014 237.234 172.47 237.587C171.925 237.94 171.77 238.668 172.124 239.212C172.477 239.757 173.204 239.911 173.749 239.558Z" fill="white"/>
<path opacity="0.3" d="M233.327 177.092C233.871 176.739 234.026 176.011 233.673 175.467C233.32 174.922 232.592 174.767 232.048 175.121C231.503 175.474 231.348 176.202 231.702 176.746C232.055 177.29 232.783 177.445 233.327 177.092Z" fill="white"/>
<path opacity="0.11" d="M213.632 175.871C214.176 175.518 214.331 174.79 213.978 174.246C213.625 173.702 212.897 173.547 212.353 173.9C211.808 174.253 211.653 174.981 212.007 175.525C212.36 176.07 213.088 176.224 213.632 175.871Z" fill="white"/>
<path opacity="0.3" d="M230.155 209.956C230.699 209.602 230.854 208.875 230.501 208.33C230.148 207.786 229.42 207.631 228.876 207.984C228.331 208.338 228.176 209.065 228.53 209.61C228.883 210.154 229.61 210.309 230.155 209.956Z" fill="white"/>
<path d="M260.62 189.483C261.028 189.218 261.144 188.672 260.879 188.264C260.614 187.856 260.069 187.74 259.661 188.005C259.253 188.27 259.136 188.815 259.401 189.223C259.666 189.632 260.212 189.748 260.62 189.483Z" fill="white"/>
</g>
<mask id="path-85-inside-1_211_561" fill="white">
<path d="M-9 429.5C-9 388.907 23.9071 356 64.5 356H284.5C325.093 356 358 388.907 358 429.5C358 470.093 325.093 503 284.5 503H64.5C23.9071 503 -9 470.093 -9 429.5Z"/>
</mask>
<path d="M-9 429.5C-9 388.907 23.9071 356 64.5 356H284.5C325.093 356 358 388.907 358 429.5C358 470.093 325.093 503 284.5 503H64.5C23.9071 503 -9 470.093 -9 429.5Z" fill="#0A0C19"/>
<path d="M-9 429.5C-9 388.355 24.3548 355 65.5 355H283.5C324.645 355 358 388.355 358 429.5C358 389.459 325.093 357 284.5 357H64.5C23.9071 357 -9 389.459 -9 429.5ZM358 503H-9H358ZM-9 503V356V503ZM358 356V503V356Z" fill="#233F49" mask="url(#path-85-inside-1_211_561)"/>
</g>
<defs>
<radialGradient id="paint0_radial_211_561" cx="0" cy="0" r="1" gradientUnits="userSpaceOnUse" gradientTransform="translate(174.5 300) rotate(59.8149) scale(347.059 301.677)">
<stop stop-color="#17173F"/>
<stop offset="0.7" stop-opacity="0"/>
</radialGradient>
<radialGradient id="paint1_radial_211_561" cx="0" cy="0" r="1" gradientUnits="userSpaceOnUse" gradientTransform="translate(175 299.97) rotate(39.9732) scale(568.934 560.198)">
<stop/>
<stop offset="1" stop-opacity="0"/>
</radialGradient>
<clipPath id="clip0_211_561">
<rect width="349" height="600" fill="white"/>
</clipPath>
</defs>
</svg>
