<svg width="72" height="72" viewBox="0 0 72 72" fill="none" xmlns="http://www.w3.org/2000/svg">
<rect opacity="0.1" width="72" height="72" rx="10" fill="#A1E6F6"/>
<path fill-rule="evenodd" clip-rule="evenodd" d="M26.6608 50.2559V28.4918H19.4276V50.2558H26.6608V50.2559ZM23.0449 25.5214C25.5665 25.5214 27.1372 23.8488 27.1372 21.7603C27.0895 19.6254 25.5665 18 23.0922 18C20.6176 18.0001 19 19.6255 19 21.7604C19 23.8489 20.5699 25.5215 22.9973 25.5215L23.0449 25.5214ZM30.664 50.2559C30.664 50.2559 30.7589 30.5339 30.664 28.4919H37.8983V31.6482H37.8503C38.8015 30.1629 40.5152 27.9808 44.4172 27.9808C49.1776 27.9808 52.7457 31.0914 52.7457 37.7765V50.256H45.5126V38.6128C45.5126 35.6872 44.466 33.6909 41.8477 33.6909C39.8497 33.6909 38.6591 35.0367 38.1362 36.3377C37.9449 36.8008 37.8983 37.4512 37.8983 38.1017V50.2559H30.664Z" fill="#A1E6F6"/>
</svg>
