<svg width="103" height="38" viewBox="0 0 103 38" fill="none" xmlns="http://www.w3.org/2000/svg">
<path d="M69.8132 28.0331C69.8132 29.399 70.9152 30.5008 72.2809 30.5008C73.6467 30.5008 74.7332 29.3989 74.7332 28.0331C74.7332 24.2306 77.8215 21.1421 81.6241 21.1421C82.9899 21.1421 84.0917 20.0402 84.0917 18.6744C84.0917 17.3086 82.9898 16.2068 81.6241 16.2068C75.1055 16.2224 69.8132 21.5146 69.8132 28.0331ZM62.8757 18.69C62.8757 22.4924 59.7873 25.581 55.9847 25.581C52.1823 25.581 49.0937 22.4924 49.0937 18.69C49.0937 14.8875 52.1822 11.799 55.9847 11.799C59.7873 11.7992 62.8757 14.8875 62.8757 18.69ZM67.7957 18.69C67.7957 12.1716 62.5033 6.87922 55.9847 6.87922C49.4664 6.87922 44.1741 12.1715 44.1741 18.69C44.1741 25.2084 49.4664 30.5008 55.9847 30.5008C62.5032 30.5009 67.7957 25.2085 67.7957 18.69ZM102.079 10.8369C102.856 9.73496 102.669 8.18297 101.598 7.37601C100.481 6.53782 98.8979 6.80168 98.1063 7.93463L94.3817 13.258C93.9935 13.8168 93.1554 13.8168 92.7674 13.258L89.0427 7.93463C88.5926 7.29837 87.8632 6.87943 87.025 6.87943H72.2654C70.8995 6.87943 69.7977 7.98126 69.7977 9.34704V14.1582C69.7977 15.5085 70.8377 16.688 72.1879 16.719C73.5848 16.7656 74.7175 15.6482 74.7175 14.2668V12.7923C74.7175 12.2493 75.1521 11.8146 75.6954 11.8146H85.2247C85.5508 11.8146 85.8456 11.9697 86.0318 12.2336L89.3842 17.0137C90.098 18.0381 90.098 19.3884 89.3842 20.3973L85.0695 26.5586C84.2936 27.6606 84.4799 29.2126 85.5507 30.0196C86.668 30.8576 88.2511 30.5937 89.0426 29.4609L92.7673 24.1374C93.1553 23.5787 93.9934 23.5787 94.3816 24.1374L98.0443 29.3676C98.8202 30.4696 100.341 30.8422 101.474 30.0971C102.638 29.3366 102.933 27.7535 102.141 26.6207L97.7648 20.3816C97.0508 19.3573 97.0508 18.007 97.7648 16.9981L102.079 10.8369ZM9.34696 2.5025C0.407312 7.67067 -2.65004 19.0936 2.50252 28.0331C7.67058 36.9727 19.0936 40.0301 28.033 34.8774C36.9725 29.7092 40.03 18.2865 34.8774 9.34683C29.7248 0.407399 18.2865 -2.65006 9.34696 2.5025ZM30.9354 18.69C30.9354 20.1954 29.7249 21.406 28.2193 21.406H26.1551C22.5079 21.406 19.1401 23.3462 17.3242 26.4967L16.3 28.2815C15.555 29.5852 13.8789 30.0199 12.5907 29.2748C11.2871 28.5299 10.8524 26.8692 11.5975 25.5655L12.6217 23.7806C14.4377 20.63 14.4377 16.7344 12.6217 13.5839L11.644 11.8766C10.8991 10.5729 11.2716 8.88127 12.5442 8.10532C13.8477 7.31377 15.5395 7.76372 16.3001 9.06747L17.3245 10.8523C19.1404 14.0028 22.5081 15.943 26.1554 15.943H28.2195C29.7094 15.9738 30.9354 17.1846 30.9354 18.69Z" fill="white"/>
</svg>
