<svg width="155" height="27" viewBox="0 0 155 27" fill="none" xmlns="http://www.w3.org/2000/svg">
<path d="M14.1072 3.26315C10.384 3.26315 6.67373 3.26315 2.93782 3.26315C3.36003 2.11167 3.43679 2.0477 4.56268 2.0477C11.4204 2.0477 18.2653 2.04771 25.123 2.03491C25.7371 2.03491 26.2489 2.17565 26.6583 2.64903C27.2212 3.28874 27.2212 3.95404 26.6839 4.81125C24.7008 7.93304 22.7177 11.0548 20.7346 14.1638C18.3548 17.9125 15.9623 21.6484 13.5826 25.3971C13.3651 25.7426 13.1476 25.8321 12.7766 25.8321C8.70801 25.8193 4.65224 25.8193 0.583685 25.8193C0.391771 25.8193 0.123093 25.8577 0.0463282 25.7682C-0.107202 25.5635 0.161476 25.3971 0.263829 25.2308C4.72901 18.1812 9.21978 11.1444 13.685 4.09478C13.8513 3.85169 14.0816 3.64698 14.1072 3.26315Z" fill="white"/>
<path d="M21.5669 14.547C22.6544 12.8454 23.6651 11.2333 24.6887 9.62125C25.6226 8.14991 26.531 6.66579 27.5034 5.22004C28.0791 4.36283 28.2454 3.5312 27.7465 2.59723C27.2091 1.62487 26.3647 1.18986 25.29 1.18986C21.1447 1.17707 16.9865 1.18986 12.8412 1.18986C10.1161 1.18986 7.39088 1.18986 4.66572 1.18986C4.52498 1.18986 4.38424 1.17707 4.23071 1.16427C4.52498 0.319856 4.99837 0 5.93234 0C16.6155 0.0383826 27.2987 0.02559 37.9818 0.02559C40.0673 0.02559 41.6282 1.71442 41.5002 3.78709C41.4747 4.24768 41.3083 4.6443 41.0652 5.02813C39.1333 8.07315 37.1886 11.1182 35.2695 14.176C35.1031 14.4447 34.9368 14.5598 34.617 14.5598C30.2925 14.547 25.9937 14.547 21.5669 14.547Z" fill="white"/>
<path d="M38.8993 26.2427L48.1414 8.45483H57.067C59.2193 8.45483 60.6119 8.96125 61.2449 10.0374C61.878 11.1135 61.688 12.6328 60.6752 14.6584C59.5991 16.6841 58.2064 18.2034 56.4973 19.2795C54.7248 20.3556 52.8258 20.862 50.6735 20.862H45.2928L42.5075 26.2427H38.8993ZM55.611 11.1768H50.2304L46.6854 18.0135H52.0661C53.079 18.0135 54.0285 17.7602 54.9147 17.1905C55.801 16.6208 56.4973 15.7346 57.1303 14.5951C57.7 13.4557 57.8899 12.6328 57.6367 12.0631C57.3202 11.4933 56.6872 11.1768 55.611 11.1768Z" fill="white"/>
<path d="M63.5866 20.7965C62.2572 20.7965 61.4343 20.48 61.1178 19.7837C60.738 19.1506 60.9279 18.2011 61.5609 16.9984C62.1939 15.7956 63.0169 14.8461 64.0297 14.2131C65.0425 13.5801 66.2453 13.2002 67.5113 13.2002H76.7534L77.0699 12.6305C77.5763 11.681 77.3231 11.1746 76.3736 11.1746H66.1187L67.5746 8.38928H78.7158C80.1717 8.38928 81.0579 8.70579 81.3112 9.40211C81.5644 10.0351 81.3745 10.9847 80.8047 12.1874L76.3736 20.7965H63.5866ZM65.6122 18.0745H74.2213L75.2975 16.0488H66.6884C66.3719 16.0488 66.1187 16.1754 65.8021 16.3653C65.5489 16.5553 65.359 16.8085 65.1691 17.0617C65.0425 17.3782 64.9792 17.6314 65.0425 17.8213C65.1058 17.9479 65.2957 18.0745 65.6122 18.0745Z" fill="white"/>
<path d="M79.5381 26.2405L80.994 23.4552H88.2738C89.2233 23.4552 89.9829 22.9488 90.4893 21.9992L91.1224 20.7965H83.6527C82.2601 20.7965 81.3738 20.4167 81.1206 19.7204C80.8674 19.024 80.994 18.0745 81.5638 16.9984L85.9949 8.38928H89.4765L85.2353 16.5553C84.7289 17.5048 84.9821 18.0112 85.9316 18.0112H92.3884L97.3893 8.38928H100.997L93.7177 22.4423C93.148 23.5818 92.3251 24.468 91.3123 25.1643C90.2994 25.8607 89.0967 26.2405 87.7041 26.2405H79.5381Z" fill="white"/>
<path d="M103.468 20.9231C101.315 20.9231 99.9226 20.4167 99.2896 19.3405C98.6566 18.2644 98.8465 16.6819 99.9226 14.6562C100.999 12.5672 102.391 10.9847 104.164 9.97183C105.936 8.8957 107.899 8.38928 110.051 8.38928H116.065C117.457 8.38928 118.407 8.70579 118.787 9.40211C119.23 10.0351 119.103 10.9847 118.47 12.2507C117.141 14.7828 115.052 16.0488 112.14 16.0488H103.024C102.581 17.5681 103.214 18.2644 104.924 18.2644H114.672L113.216 21.0497H103.468V20.9231ZM108.595 11.048C106.949 11.048 105.557 11.7443 104.48 13.1369H113.406C113.723 13.1369 114.039 13.0103 114.292 12.8204C114.609 12.6305 114.799 12.3773 114.989 11.9975C115.368 11.3012 115.178 10.9847 114.482 10.9847H108.595V11.048Z" fill="white"/>
<path d="M115.684 20.7965L117.013 18.2644L130.433 11.1746H121.128L122.584 8.38928H137.017L135.687 10.9214L122.267 18.0112H132.016L130.56 20.7965H115.684Z" fill="white"/>
<path d="M132.833 26.2405L134.289 23.4552H141.569C142.519 23.4552 143.278 22.9488 143.785 21.9992L144.418 20.7965H136.948C135.555 20.7965 134.669 20.4167 134.416 19.7204C134.163 19.024 134.289 18.0745 134.859 16.9984L139.29 8.38928H142.772L138.531 16.5553C138.024 17.5048 138.277 18.0112 139.227 18.0112H145.684L150.685 8.38928H154.293L147.013 22.379C146.443 23.5185 145.62 24.4047 144.608 25.101C143.595 25.7974 142.392 26.1772 140.999 26.1772H132.833V26.2405Z" fill="white"/>
</svg>
