<svg width="152" height="24" viewBox="0 0 152 24" fill="none" xmlns="http://www.w3.org/2000/svg">
<path d="M0 23.4075L12.1173 0.0859375H23.8195C26.6414 0.0859375 28.4673 0.749897 29.2972 2.16081C30.1272 3.57172 29.8782 5.5636 28.5503 8.21944C27.1393 10.8753 25.3134 12.8672 23.0726 14.2781C20.7487 15.689 18.2589 16.3529 15.4371 16.3529H8.38249L4.73071 23.4075H0ZM21.9107 3.65472H14.8561L10.2084 12.6182H17.2629C18.5909 12.6182 19.8358 12.2862 20.9977 11.5392C22.1596 10.7923 23.0726 9.63035 23.9025 8.13644C24.6495 6.64254 24.8985 5.5636 24.5665 4.81665C24.1515 4.06969 23.3216 3.65472 21.9107 3.65472Z" fill="white"/>
<path d="M32.3673 16.267C30.6244 16.267 29.5455 15.852 29.1305 14.9391C28.6325 14.1091 28.8815 12.8642 29.7115 11.2873C30.5414 9.7104 31.6203 8.46548 32.9483 7.63553C34.2762 6.80558 35.8531 6.30761 37.513 6.30761H49.6302L50.0452 5.56066C50.7092 4.31573 50.3772 3.65178 49.1323 3.65178H35.6871L37.596 0H52.2031C54.112 0 55.2739 0.414973 55.6059 1.32792C55.9379 2.15787 55.6889 3.40279 54.9419 4.97969L49.1323 16.267H32.3673ZM35.0231 12.6982H46.3105L47.7214 10.0424H36.4341C36.0191 10.0424 35.6871 10.2084 35.2721 10.4574C34.9401 10.7063 34.6912 11.0383 34.4422 11.3703C34.2762 11.7853 34.1932 12.1173 34.2762 12.3662C34.3592 12.5322 34.6082 12.6982 35.0231 12.6982Z" fill="white"/>
<path d="M53.2812 23.4046L55.1901 19.7528H64.7345C65.9795 19.7528 66.9754 19.0888 67.6394 17.8439L68.4693 16.267H58.6759C56.85 16.267 55.6881 15.769 55.3561 14.8561C55.0241 13.9431 55.1901 12.6982 55.9371 11.2873L61.7467 0H66.3114L60.7508 10.7063C60.0868 11.9513 60.4188 12.6152 61.6637 12.6152H70.1292L76.6858 0H81.4165L71.8721 18.4249C71.1252 19.9188 70.0462 21.0807 68.7183 21.9937C67.3904 22.9066 65.8135 23.4046 63.9876 23.4046H53.2812Z" fill="white"/>
<path d="M84.655 16.433C81.8332 16.433 80.0073 15.769 79.1773 14.3581C78.3474 12.9472 78.5964 10.8723 80.0073 8.2165C81.4182 5.47766 83.2441 3.40279 85.5679 2.07487C87.8918 0.663959 90.4646 0 93.2865 0H101.171C102.997 0 104.242 0.414973 104.74 1.32792C105.321 2.15787 105.155 3.40279 104.325 5.06269C102.582 8.38249 99.8431 10.0424 96.0253 10.0424H84.074C83.4931 12.0343 84.323 12.9472 86.5639 12.9472H99.3451L97.4362 16.599H84.655V16.433ZM91.3776 3.48579C89.2197 3.48579 87.3938 4.39873 85.9829 6.22462H97.6852C98.1002 6.22462 98.5151 6.05863 98.8471 5.80964C99.2621 5.56066 99.5111 5.22868 99.7601 4.73071C100.258 3.81777 100.009 3.40279 99.0961 3.40279H91.3776V3.48579Z" fill="white"/>
<path d="M100.672 16.267L102.415 12.9472L120.01 3.65178H107.809L109.718 0H128.641L126.898 3.3198L109.303 12.6152H122.085L120.176 16.267H100.672Z" fill="white"/>
<path d="M123.156 23.4046L125.065 19.7528H134.61C135.854 19.7528 136.85 19.0888 137.514 17.8439L138.344 16.267H128.551C126.725 16.267 125.563 15.769 125.231 14.8561C124.899 13.9431 125.065 12.6982 125.812 11.2873L131.622 0H136.186L130.626 10.7063C129.962 11.9513 130.294 12.6152 131.539 12.6152H140.004L146.561 0H151.292L141.747 18.3419C141 19.8358 139.921 20.9977 138.593 21.9107C137.265 22.8236 135.688 23.3216 133.863 23.3216H123.156V23.4046Z" fill="white"/>
</svg>
