<svg width="1475" height="254" viewBox="0 0 1475 254" fill="none" xmlns="http://www.w3.org/2000/svg">
<path d="M138.336 32.1662C101.827 32.1662 65.4432 32.1662 28.8085 32.1662C32.9487 20.873 33.7015 20.2456 44.7421 20.2456C111.989 20.2456 179.111 20.2456 246.358 20.1201C252.38 20.1201 257.399 21.5004 261.414 26.1432C266.934 32.4172 266.934 38.9422 261.665 47.3493C242.218 77.9666 222.772 108.584 203.325 139.076C179.989 175.841 156.528 212.482 133.192 249.247C131.059 252.635 128.927 253.514 125.288 253.514C85.3915 253.388 45.6203 253.388 5.72367 253.388C3.84175 253.388 1.20707 253.765 0.454298 252.886C-1.05124 250.879 1.58345 249.247 2.58714 247.616C46.3731 178.476 90.41 109.462 134.196 40.3224C135.827 37.9383 138.085 35.9306 138.336 32.1662Z" fill="url(#paint0_linear_419_146)"/>
<path d="M211.776 143.129C222.436 126.387 232.343 110.526 242.375 94.6644C251.53 80.1878 260.434 65.5853 269.965 51.3605C275.608 42.9263 277.238 34.7438 272.347 25.5544C267.08 15.9872 258.803 11.7072 248.269 11.7072C207.638 11.5813 166.88 11.7072 126.249 11.7072C99.5369 11.7072 72.8253 11.7072 46.1137 11.7072C44.7342 11.7072 43.3547 11.5813 41.8499 11.4554C44.7342 3.14709 49.3743 0 58.529 0C163.244 0.37765 267.958 0.251782 372.673 0.251782C393.114 0.251782 408.414 16.8684 407.16 37.2615C406.909 41.7933 405.279 45.6957 402.896 49.4722C383.959 79.4325 364.898 109.393 346.087 139.479C344.456 142.122 342.826 143.255 339.691 143.255C297.303 143.129 255.167 143.129 211.776 143.129Z" fill="url(#paint1_linear_419_146)"/>
<path d="M342.042 253.354L432.783 78.7085H520.417C541.548 78.7085 555.221 83.6806 561.436 94.2463C567.652 104.812 565.787 119.728 555.843 139.617C545.277 159.505 531.604 174.422 514.823 184.987C497.421 195.553 478.775 200.525 457.644 200.525H404.815L377.468 253.354H342.042ZM506.122 105.434H453.293L418.488 172.557H471.317C481.261 172.557 490.584 170.071 499.285 164.477C507.986 158.884 514.823 150.183 521.038 138.995C526.632 127.808 528.496 119.728 526.01 114.135C522.903 108.541 516.687 105.434 506.122 105.434Z" fill="white"/>
<path d="M584.427 199.883C571.375 199.883 563.295 196.775 560.188 189.938C556.458 183.723 558.323 174.4 564.538 162.592C570.753 150.783 578.833 141.46 588.777 135.245C598.721 129.03 610.53 125.301 622.96 125.301H713.701L716.809 119.707C721.781 110.385 719.295 105.413 709.972 105.413H609.287L623.582 78.0659H732.968C747.263 78.0659 755.964 81.1735 758.45 88.0101C760.936 94.2253 759.072 103.548 753.478 115.357L709.972 199.883H584.427ZM604.315 173.157H688.841L699.406 153.269H614.881C611.773 153.269 609.287 154.512 606.179 156.377C603.693 158.241 601.829 160.727 599.964 163.213C598.721 166.321 598.1 168.807 598.721 170.671C599.343 171.914 601.207 173.157 604.315 173.157Z" fill="white"/>
<path d="M741.042 253.333L755.337 225.986H826.811C836.134 225.986 843.592 221.014 848.564 211.691L854.779 199.883H781.441C767.768 199.883 759.066 196.153 756.58 189.317C754.094 182.48 755.337 173.157 760.931 162.592L804.437 78.0659H838.62L796.979 158.241C792.007 167.564 794.493 172.536 803.815 172.536H867.21L916.309 78.0659H951.735L880.261 216.042C874.668 227.229 866.588 235.93 856.644 242.767C846.7 249.604 834.891 253.333 821.218 253.333H741.042Z" fill="white"/>
<path d="M975.988 201.126C954.856 201.126 941.183 196.153 934.968 185.588C928.753 175.022 930.617 159.484 941.183 139.596C951.749 119.086 965.422 103.548 982.824 93.6038C1000.23 83.038 1019.49 78.0659 1040.63 78.0659H1099.67C1113.34 78.0659 1122.66 81.1735 1126.39 88.0101C1130.74 94.2253 1129.5 103.548 1123.29 115.978C1110.23 140.839 1089.72 153.269 1061.14 153.269H971.637C967.287 168.185 973.502 175.022 990.282 175.022H1086L1071.7 202.369H975.988V201.126ZM1026.33 104.169C1010.17 104.169 996.498 111.006 985.932 124.679H1073.57C1076.67 124.679 1079.78 123.436 1082.27 121.572C1085.37 119.707 1087.24 117.221 1089.1 113.492C1092.83 106.656 1090.97 103.548 1084.13 103.548H1026.33V104.169Z" fill="white"/>
<path d="M1095.93 199.883L1108.98 175.022L1240.74 105.413H1149.38L1163.68 78.0659H1305.38L1292.33 102.926L1160.57 172.536H1256.28L1241.99 199.883H1095.93Z" fill="white"/>
<path d="M1264.31 253.333L1278.6 225.986H1350.08C1359.4 225.986 1366.86 221.014 1371.83 211.691L1378.04 199.883H1304.71C1291.03 199.883 1282.33 196.153 1279.84 189.317C1277.36 182.48 1278.6 173.157 1284.2 162.592L1327.7 78.0659H1361.88L1320.24 158.241C1315.27 167.564 1317.76 172.536 1327.08 172.536H1390.47L1439.57 78.0659H1475L1403.53 215.42C1397.93 226.608 1389.85 235.309 1379.91 242.145C1369.96 248.982 1358.16 252.711 1344.48 252.711H1264.31V253.333Z" fill="white"/>
<defs>
<linearGradient id="paint0_linear_419_146" x1="292.825" y1="20.1201" x2="-23.4066" y2="79.8754" gradientUnits="userSpaceOnUse">
<stop stop-color="#62CFF4"/>
<stop offset="1" stop-color="#2C67F2"/>
</linearGradient>
<linearGradient id="paint1_linear_419_146" x1="444.707" y1="-8.26747e-06" x2="62.6486" y2="161.815" gradientUnits="userSpaceOnUse">
<stop stop-color="#62CFF4"/>
<stop offset="1" stop-color="#2C67F2"/>
</linearGradient>
</defs>
</svg>
