<svg width="155" height="27" viewBox="0 0 155 27" fill="none" xmlns="http://www.w3.org/2000/svg">
<path d="M14.1072 3.2634C10.384 3.2634 6.67373 3.2634 2.93782 3.2634C3.36003 2.11192 3.43679 2.04795 4.56268 2.04795C11.4204 2.04795 18.2653 2.04795 25.123 2.03516C25.7371 2.03516 26.2489 2.17589 26.6583 2.64928C27.2212 3.28899 27.2212 3.95429 26.6839 4.8115C24.7008 7.93328 22.7177 11.0551 20.7346 14.1641C18.3548 17.9128 15.9623 21.6487 13.5826 25.3974C13.3651 25.7428 13.1476 25.8324 12.7766 25.8324C8.70801 25.8196 4.65224 25.8196 0.583685 25.8196C0.391771 25.8196 0.123093 25.858 0.0463282 25.7684C-0.107202 25.5637 0.161476 25.3974 0.263829 25.2311C4.72901 18.1814 9.21978 11.1446 13.685 4.09502C13.8513 3.85193 14.0816 3.64722 14.1072 3.2634Z" fill="white"/>
<path d="M21.5705 14.547C22.658 12.8454 23.6688 11.2333 24.6923 9.62125C25.6263 8.14991 26.5347 6.66579 27.507 5.22004C28.0828 4.36283 28.2491 3.5312 27.7501 2.59723C27.2128 1.62487 26.3684 1.18986 25.2936 1.18986C21.1483 1.17707 16.9902 1.18986 12.8449 1.18986C10.1197 1.18986 7.39454 1.18986 4.66938 1.18986C4.52864 1.18986 4.38791 1.17707 4.23438 1.16427C4.52864 0.319856 5.00203 0 5.93601 0C16.6192 0.0383826 27.3023 0.02559 37.9855 0.02559C40.071 0.02559 41.6319 1.71442 41.5039 3.78709C41.4783 4.24768 41.312 4.6443 41.0689 5.02813C39.137 8.07315 37.1923 11.1182 35.2731 14.176C35.1068 14.4447 34.9405 14.5598 34.6206 14.5598C30.2962 14.547 25.9973 14.547 21.5705 14.547Z" fill="white"/>
<path d="M38.8984 26.2449L48.1405 8.45703H57.0661C59.2184 8.45703 60.6111 8.96345 61.2441 10.0396C61.8771 11.1157 61.6872 12.635 60.6744 14.6606C59.5982 16.6863 58.2056 18.2056 56.4964 19.2817C54.724 20.3578 52.8249 20.8642 50.6726 20.8642H45.2919L42.5067 26.2449H38.8984ZM55.6102 11.179H50.2295L46.6846 18.0156H52.0653C53.0781 18.0156 54.0276 17.7624 54.9139 17.1927C55.8001 16.623 56.4964 15.7368 57.1294 14.5973C57.6992 13.4579 57.8891 12.635 57.6359 12.0653C57.3193 11.4955 56.6863 11.179 55.6102 11.179Z" fill="white"/>
<path d="M63.5855 20.7978C62.2562 20.7978 61.4333 20.4813 61.1168 19.785C60.7369 19.152 60.9268 18.2024 61.5599 16.9997C62.1929 15.797 63.0158 14.8474 64.0286 14.2144C65.0415 13.5814 66.2442 13.2016 67.5103 13.2016H76.7524L77.0689 12.6319C77.5753 11.6823 77.3221 11.1759 76.3726 11.1759H66.1176L67.5736 8.39062H78.7147C80.1707 8.39062 81.0569 8.70713 81.3101 9.40346C81.5633 10.0365 81.3734 10.986 80.8037 12.1888L76.3726 20.7978H63.5855ZM65.6112 18.0758H74.2203L75.2964 16.0502H66.6873C66.3708 16.0502 66.1176 16.1768 65.8011 16.3667C65.5479 16.5566 65.358 16.8098 65.1681 17.063C65.0415 17.3795 64.9782 17.6327 65.0415 17.8226C65.1048 17.9492 65.2947 18.0758 65.6112 18.0758Z" fill="white"/>
<path d="M79.5391 26.2418L80.995 23.4565H88.2747C89.2243 23.4565 89.9839 22.9501 90.4903 22.0006L91.1233 20.7978H83.6537C82.2611 20.7978 81.3748 20.418 81.1216 19.7217C80.8684 19.0254 80.995 18.0758 81.5647 16.9997L85.9959 8.39062H89.4775L85.2363 16.5566C84.7298 17.5061 84.983 18.0125 85.9326 18.0125H92.3894L97.3902 8.39062H100.998L93.7187 22.4437C93.149 23.5831 92.3261 24.4694 91.3132 25.1657C90.3004 25.862 89.0977 26.2418 87.705 26.2418H79.5391Z" fill="white"/>
<path d="M103.469 20.9244C101.317 20.9244 99.9244 20.418 99.2914 19.3419C98.6583 18.2658 98.8483 16.6832 99.9244 14.6575C101.001 12.5686 102.393 10.986 104.166 9.97318C105.938 8.89704 107.9 8.39062 110.053 8.39062H116.066C117.459 8.39062 118.409 8.70713 118.788 9.40346C119.232 10.0365 119.105 10.986 118.472 12.2521C117.143 14.7841 115.054 16.0502 112.142 16.0502H103.026C102.583 17.5694 103.216 18.2658 104.925 18.2658H114.674L113.218 21.051H103.469V20.9244ZM108.597 11.0493C106.951 11.0493 105.558 11.7456 104.482 13.1383H113.408C113.724 13.1383 114.041 13.0117 114.294 12.8218C114.61 12.6319 114.8 12.3787 114.99 11.9988C115.37 11.3025 115.18 10.986 114.484 10.986H108.597V11.0493Z" fill="white"/>
<path d="M115.68 20.7978L117.009 18.2657L130.429 11.1759H121.124L122.58 8.39062H137.012L135.683 10.9227L122.263 18.0125H132.012L130.556 20.7978H115.68Z" fill="white"/>
<path d="M132.836 26.2418L134.292 23.4565H141.572C142.521 23.4565 143.281 22.9501 143.787 22.0006L144.42 20.7978H136.951C135.558 20.7978 134.672 20.418 134.418 19.7217C134.165 19.0254 134.292 18.0758 134.862 16.9997L139.293 8.39062H142.774L138.533 16.5566C138.027 17.5061 138.28 18.0125 139.229 18.0125H145.686L150.687 8.39062H154.295L147.016 22.3804C146.446 23.5198 145.623 24.4061 144.61 25.1024C143.597 25.7987 142.395 26.1785 141.002 26.1785H132.836V26.2418Z" fill="white"/>
</svg>
