<svg width="95" height="16" viewBox="0 0 95 16" fill="none" xmlns="http://www.w3.org/2000/svg">
<path d="M8.59849 1.98569C6.32921 1.98569 4.06772 1.98569 1.79064 1.98569C2.04798 1.28385 2.09477 1.24486 2.78101 1.24486C6.96087 1.24486 11.1329 1.24486 15.3128 1.23706C15.6871 1.23706 15.999 1.32284 16.2486 1.61137C16.5917 2.00129 16.5917 2.40679 16.2642 2.92928C15.0554 4.83204 13.8467 6.73481 12.638 8.62978C11.1875 10.9147 9.72924 13.1917 8.27877 15.4766C8.1462 15.6872 8.01363 15.7418 7.78748 15.7418C5.30764 15.734 2.8356 15.734 0.355763 15.734C0.23879 15.734 0.075027 15.7574 0.0282376 15.7028C-0.0653412 15.578 0.0984214 15.4766 0.160807 15.3753C2.88239 11.0784 5.61957 6.7894 8.34115 2.49257C8.44253 2.34441 8.5829 2.21964 8.59849 1.98569Z" fill="url(#paint0_linear_892_779)"/>
<path d="M13.1428 8.86659C13.8056 7.82943 14.4217 6.84685 15.0455 5.86427C15.6148 4.96747 16.1685 4.06288 16.7612 3.18168C17.1121 2.6592 17.2135 2.15231 16.9093 1.58304C16.5818 0.990377 16.0671 0.725237 15.4121 0.725237C12.8854 0.717439 10.351 0.725237 7.82438 0.725237C6.16336 0.725237 4.50233 0.725237 2.84131 0.725237C2.75553 0.725237 2.66975 0.717438 2.57617 0.70964C2.75553 0.194956 3.04407 0 3.61334 0C10.1249 0.0233947 16.6364 0.0155974 23.1479 0.0155974C24.419 0.0155974 25.3704 1.04496 25.2924 2.30828C25.2768 2.58901 25.1754 2.83076 25.0273 3.06471C23.8498 4.92069 22.6644 6.77666 21.4947 8.64044C21.3933 8.8042 21.2919 8.87439 21.097 8.87439C18.4612 8.86659 15.841 8.86659 13.1428 8.86659Z" fill="url(#paint1_linear_892_779)"/>
<path d="M23.7031 16.0019L29.3363 5.15991H34.7766C36.0884 5.15991 36.9372 5.46858 37.3231 6.1245C37.7089 6.78042 37.5932 7.70642 36.9758 8.94109C36.3199 10.1758 35.4711 11.1018 34.4293 11.7577C33.349 12.4136 32.1915 12.7223 30.8796 12.7223H27.6001L25.9024 16.0019H23.7031ZM33.8891 6.819H30.6096L28.4489 10.986H31.7285C32.3458 10.986 32.9246 10.8317 33.4647 10.4844C34.0049 10.1372 34.4293 9.59701 34.8151 8.9025C35.1624 8.208 35.2781 7.70642 35.1238 7.35917C34.9309 7.01192 34.5451 6.819 33.8891 6.819Z" fill="white"/>
<path d="M38.7476 12.6759C37.9373 12.6759 37.4357 12.483 37.2428 12.0585C37.0113 11.6727 37.1271 11.094 37.5129 10.3609C37.8987 9.62778 38.4003 9.04903 39.0176 8.6632C39.635 8.27737 40.3681 8.04586 41.1397 8.04586H46.7729L46.9658 7.69861C47.2745 7.11986 47.1202 6.8112 46.5414 6.8112H40.2909L41.1783 5.11353H47.969C48.8564 5.11353 49.3966 5.30644 49.5509 5.73086C49.7052 6.11669 49.5895 6.69545 49.2422 7.42853L46.5414 12.6759H38.7476ZM39.9822 11.0168H45.2296L45.8855 9.78212H40.6381C40.4452 9.78212 40.2909 9.85929 40.098 9.97504C39.9436 10.0908 39.8279 10.2451 39.7121 10.3995C39.635 10.5924 39.5964 10.7467 39.635 10.8625C39.6736 10.9396 39.7893 11.0168 39.9822 11.0168Z" fill="white"/>
<path d="M48.4707 15.994L49.3581 14.2964H53.7952C54.374 14.2964 54.837 13.9877 55.1456 13.409L55.5315 12.6759H50.9786C50.1298 12.6759 49.5896 12.4444 49.4353 12.02C49.281 11.5955 49.3581 11.0168 49.7054 10.3609L52.4062 5.11353H54.5283L51.9432 10.0908C51.6345 10.6695 51.7889 10.9782 52.3676 10.9782H56.3031L59.3512 5.11353H61.5505L57.1134 13.679C56.7661 14.3735 56.2646 14.9137 55.6472 15.3381C55.0299 15.7625 54.2968 15.994 53.448 15.994H48.4707Z" fill="white"/>
<path d="M63.058 12.753C61.7461 12.753 60.8973 12.4444 60.5115 11.7885C60.1256 11.1325 60.2414 10.168 60.8973 8.93328C61.5532 7.66003 62.4021 6.69545 63.4824 6.07811C64.5627 5.42219 65.7588 5.11353 67.0706 5.11353H70.7361C71.5849 5.11353 72.1637 5.30644 72.3952 5.73086C72.6652 6.11669 72.5881 6.69544 72.2022 7.46711C71.392 9.01045 70.1187 9.78212 68.3439 9.78212H62.7879C62.5178 10.7081 62.9036 11.1325 63.9454 11.1325H69.8872L68.9998 12.8302H63.058V12.753ZM66.1832 6.73403C65.1801 6.73403 64.3312 7.15845 63.6753 8.00728H69.1156C69.3085 8.00728 69.5014 7.93011 69.6557 7.81436C69.8486 7.69861 69.9644 7.54428 70.0802 7.31278C70.3117 6.88836 70.1959 6.69544 69.7715 6.69544H66.1832V6.73403Z" fill="white"/>
<path d="M70.5039 12.6759L71.3142 11.1325L79.4938 6.8112H73.8221L74.7095 5.11353H83.5065L82.6963 6.65686L74.5166 10.9782H80.4584L79.571 12.6759H70.5039Z" fill="white"/>
<path d="M80.957 15.994L81.8445 14.2964H86.2815C86.8603 14.2964 87.3233 13.9877 87.632 13.409L88.0178 12.6759H83.465C82.6161 12.6759 82.076 12.4444 81.9216 12.02C81.7673 11.5955 81.8444 11.0168 82.1917 10.3609L84.8925 5.11353H87.0146L84.4295 10.0908C84.1209 10.6695 84.2752 10.9782 84.854 10.9782H88.7895L91.8376 5.11353H94.0368L89.5997 13.6405C89.2525 14.335 88.7509 14.8751 88.1335 15.2995C87.5162 15.724 86.7831 15.9555 85.9343 15.9555H80.957V15.994Z" fill="white"/>
<defs>
<linearGradient id="paint0_linear_892_779" x1="18.201" y1="1.23706" x2="-1.45467" y2="4.95177" gradientUnits="userSpaceOnUse">
<stop stop-color="#62CFF4"/>
<stop offset="1" stop-color="#2C67F2"/>
</linearGradient>
<linearGradient id="paint1_linear_892_779" x1="27.6272" y1="-5.12154e-07" x2="3.897" y2="10.0888" gradientUnits="userSpaceOnUse">
<stop stop-color="#62CFF4"/>
<stop offset="1" stop-color="#2C67F2"/>
</linearGradient>
</defs>
</svg>
