<svg width="203" height="35" viewBox="0 0 203 35" fill="none" xmlns="http://www.w3.org/2000/svg">
<path d="M18.4958 4.27831C13.6145 4.27831 8.74988 4.27831 3.85175 4.27831C4.40531 2.76861 4.50596 2.68474 5.9821 2.68474C14.9732 2.68474 23.9475 2.68474 32.9386 2.66797C33.7437 2.66797 34.4147 2.85249 34.9515 3.47314C35.6896 4.31186 35.6896 5.18413 34.985 6.30801C32.385 10.401 29.785 14.4939 27.1849 18.5701C24.0649 23.485 20.9281 28.3831 17.8081 33.298C17.5229 33.7509 17.2377 33.8683 16.7513 33.8683C11.417 33.8516 6.09952 33.8516 0.765265 33.8516C0.513649 33.8516 0.161387 33.9019 0.0607405 33.7845C-0.140552 33.5161 0.21171 33.298 0.345905 33.08C6.20017 23.8373 12.088 14.6113 17.9422 5.36864C18.1603 5.04993 18.4623 4.78154 18.4958 4.27831Z" fill="#2E5CFF"/>
<path d="M28.2762 19.0725C29.702 16.8415 31.0272 14.7279 32.3691 12.6143C33.5937 10.6853 34.7847 8.73946 36.0595 6.84396C36.8144 5.72007 37.0324 4.62974 36.3782 3.40521C35.6737 2.13035 34.5666 1.56002 33.1575 1.56002C27.7226 1.54325 22.271 1.56002 16.836 1.56002C13.2631 1.56002 9.69015 1.56002 6.1172 1.56002C5.93269 1.56002 5.74817 1.54325 5.54688 1.52647C5.93269 0.419361 6.55334 0 7.77787 0C21.7845 0.0503232 35.7911 0.0335508 49.7977 0.0335508C52.532 0.0335508 54.5784 2.24777 54.4107 4.96522C54.3772 5.5691 54.1591 6.08911 53.8404 6.59234C51.3074 10.5846 48.7577 14.577 46.2416 18.586C46.0235 18.9383 45.8054 19.0893 45.3861 19.0893C39.7163 19.0725 34.0801 19.0725 28.2762 19.0725Z" fill="url(#paint0_linear_6305_3678)"/>
<path d="M51 34.4075L63.1173 11.0859H74.8195C77.6414 11.0859 79.4673 11.7499 80.2972 13.1608C81.1272 14.5717 80.8782 16.5636 79.5503 19.2194C78.1393 21.8753 76.3134 23.8672 74.0726 25.2781C71.7487 26.689 69.2589 27.3529 66.4371 27.3529H59.3825L55.7307 34.4075H51ZM72.9107 14.6547H65.8561L61.2084 23.6182H68.2629C69.5909 23.6182 70.8358 23.2862 71.9977 22.5392C73.1596 21.7923 74.0726 20.6304 74.9025 19.1364C75.6495 17.6425 75.8985 16.5636 75.5665 15.8166C75.1515 15.0697 74.3216 14.6547 72.9107 14.6547Z" fill="white"/>
<path d="M83.3673 27.267C81.6244 27.267 80.5455 26.852 80.1305 25.9391C79.6325 25.1091 79.8815 23.8642 80.7115 22.2873C81.5414 20.7104 82.6203 19.4655 83.9483 18.6355C85.2762 17.8056 86.8531 17.3076 88.513 17.3076H100.63L101.045 16.5607C101.709 15.3157 101.377 14.6518 100.132 14.6518H86.6871L88.596 11H103.203C105.112 11 106.274 11.415 106.606 12.3279C106.938 13.1579 106.689 14.4028 105.942 15.9797L100.132 27.267H83.3673ZM86.0231 23.6982H97.3104L98.7214 21.0424H87.4341C87.0191 21.0424 86.6871 21.2084 86.2721 21.4574C85.9401 21.7063 85.6912 22.0383 85.4422 22.3703C85.2762 22.7853 85.1932 23.1173 85.2762 23.3662C85.3592 23.5322 85.6082 23.6982 86.0231 23.6982Z" fill="white"/>
<path d="M104.281 34.4046L106.19 30.7528H115.735C116.979 30.7528 117.975 30.0888 118.639 28.8439L119.469 27.267H109.676C107.85 27.267 106.688 26.769 106.356 25.8561C106.024 24.9431 106.19 23.6982 106.937 22.2873L112.747 11H117.311L111.751 21.7063C111.087 22.9513 111.419 23.6152 112.664 23.6152H121.129L127.686 11H132.417L122.872 29.4249C122.125 30.9188 121.046 32.0807 119.718 32.9937C118.39 33.9066 116.813 34.4046 114.988 34.4046H104.281Z" fill="white"/>
<path d="M135.655 27.433C132.833 27.433 131.007 26.769 130.177 25.3581C129.347 23.9472 129.596 21.8723 131.007 19.2165C132.418 16.4777 134.244 14.4028 136.568 13.0749C138.892 11.664 141.465 11 144.286 11H152.171C153.997 11 155.242 11.415 155.74 12.3279C156.321 13.1579 156.155 14.4028 155.325 16.0627C153.582 19.3825 150.843 21.0424 147.025 21.0424H135.074C134.493 23.0343 135.323 23.9472 137.564 23.9472H150.345L148.436 27.599H135.655V27.433ZM142.378 14.4858C140.22 14.4858 138.394 15.3987 136.983 17.2246H148.685C149.1 17.2246 149.515 17.0586 149.847 16.8096C150.262 16.5607 150.511 16.2287 150.76 15.7307C151.258 14.8178 151.009 14.4028 150.096 14.4028H142.378V14.4858Z" fill="white"/>
<path d="M151.672 27.267L153.415 23.9472L171.01 14.6518H158.809L160.718 11H179.641L177.898 14.3198L160.303 23.6152H173.085L171.176 27.267H151.672Z" fill="white"/>
<path d="M174.156 34.4046L176.065 30.7528H185.61C186.854 30.7528 187.85 30.0888 188.514 28.8439L189.344 27.267H179.551C177.725 27.267 176.563 26.769 176.231 25.8561C175.899 24.9431 176.065 23.6982 176.812 22.2873L182.622 11H187.186L181.626 21.7063C180.962 22.9513 181.294 23.6152 182.539 23.6152H191.004L197.561 11H202.292L192.747 29.3419C192 30.8358 190.921 31.9977 189.593 32.9107C188.265 33.8236 186.688 34.3216 184.863 34.3216H174.156V34.4046Z" fill="white"/>
<defs>
<linearGradient id="paint0_linear_6305_3678" x1="5.54688" y1="16.7031" x2="17.0287" y2="-10.2621" gradientUnits="userSpaceOnUse">
<stop stop-color="#02AAB0"/>
<stop offset="1" stop-color="#00CDAC"/>
</linearGradient>
</defs>
</svg>
