<svg width="20" height="20" viewBox="0 0 20 20" fill="none" xmlns="http://www.w3.org/2000/svg">
<path d="M10 0C4.47734 0 0 4.47734 0 10C0 15.5227 4.47734 20 10 20C15.5227 20 20 15.5227 20 10C20 4.47734 15.5227 0 10 0ZM10 19C5.03734 19 1 14.9627 1 10C1 5.03734 5.03734 1 10 1C14.9627 1 19 5.03734 19 10C19 14.9627 14.9627 19 10 19Z" fill="url(#paint0_linear_1781_250)"/>
<path d="M12.4726 4.67109C11.9313 4.20309 11.2337 3.96875 10.3796 3.96875H10.2076C9.32197 3.96875 8.56697 4.24508 7.94197 4.79676C7.25432 5.41211 6.91064 6.23441 6.91064 7.26543C6.91064 7.43242 6.95764 7.56242 7.05131 7.65609C7.14498 7.74008 7.25932 7.77609 7.39498 7.76543C7.51998 7.76543 7.62932 7.71844 7.72299 7.62477C7.82697 7.52109 7.87932 7.39609 7.87932 7.24977C7.87932 6.66676 8.01467 6.16176 8.28564 5.7341C8.68131 5.13043 9.32166 4.82777 10.2076 4.82777C10.9576 4.82777 11.525 5.03078 11.9106 5.43711C12.2333 5.77109 12.4 6.20277 12.4106 6.7341C12.4106 7.20277 12.3117 7.61977 12.1137 7.9841C11.8843 8.40109 11.473 8.8591 10.8793 9.3591C10.3793 9.76543 10.0303 10.2184 9.83232 10.7184C9.634 11.1978 9.53533 11.8074 9.53533 12.5464C9.53533 12.6928 9.58232 12.8121 9.676 12.9058C9.76967 12.9898 9.884 13.0308 10.0197 13.0308C10.1447 13.0308 10.254 12.9898 10.3477 12.9058C10.4517 12.8121 10.504 12.6928 10.504 12.5464C10.504 11.8178 10.5923 11.2554 10.7697 10.8588C10.9463 10.4838 11.2903 10.0881 11.801 9.67113C12.3637 9.19246 12.7697 8.72879 13.0197 8.28047C13.259 7.84281 13.379 7.35379 13.379 6.8118C13.379 5.89574 13.0766 5.18176 12.4726 4.67109Z" fill="url(#paint1_linear_1781_250)"/>
<path d="M10.0005 16C10.5528 16 11.0005 15.5523 11.0005 15C11.0005 14.4477 10.5528 14 10.0005 14C9.4482 14 9.00049 14.4477 9.00049 15C9.00049 15.5523 9.4482 16 10.0005 16Z" fill="url(#paint2_linear_1781_250)"/>
<defs>
<linearGradient id="paint0_linear_1781_250" x1="2.37487e-07" y1="17.5" x2="16.625" y2="2.25" gradientUnits="userSpaceOnUse">
<stop stop-color="#02AAB0"/>
<stop offset="1" stop-color="#00CDAC"/>
</linearGradient>
<linearGradient id="paint1_linear_1781_250" x1="6.91064" y1="11.898" x2="13.8407" y2="7.36054" gradientUnits="userSpaceOnUse">
<stop stop-color="#02AAB0"/>
<stop offset="1" stop-color="#00CDAC"/>
</linearGradient>
<linearGradient id="paint2_linear_1781_250" x1="9.00049" y1="15.75" x2="10.663" y2="14.225" gradientUnits="userSpaceOnUse">
<stop stop-color="#02AAB0"/>
<stop offset="1" stop-color="#00CDAC"/>
</linearGradient>
</defs>
</svg>
