<svg width="35" height="47" viewBox="0 0 35 47" fill="none" xmlns="http://www.w3.org/2000/svg">
<path d="M1.76611 25.2862C1.05942 24.4745 1.13949 23.2439 1.94538 22.531L8.34143 16.8724C9.16908 16.1402 10.4376 16.2387 11.1426 17.0899L32.395 42.7482C33.4553 44.0283 32.5405 45.9656 30.8796 45.9575L20.6019 45.9074C20.0399 45.9046 19.5062 45.66 19.1368 45.2358L1.76611 25.2862Z" fill="#428AEC"/>
<path d="M32.8831 21.0219C33.5991 21.8253 33.5333 23.0567 32.7357 23.779L26.4055 29.5113C25.5864 30.2531 24.3168 30.1693 23.602 29.3264L2.05429 3.91617C0.979258 2.64843 1.86206 0.65446 3.52298 0.6433L13.8101 0.620462C14.3721 0.616687 14.9086 0.855115 15.2828 1.27497L32.8831 21.0219Z" fill="#01C1AE"/>
</svg>
