<svg width="14" height="17" viewBox="0 0 14 17" fill="none" xmlns="http://www.w3.org/2000/svg">
<path d="M0.602821 16.0089H13.3979C13.6989 16.0089 14 15.7831 14 15.4068C14 15.0305 13.7742 14.8047 13.3979 14.8047H0.602821C0.301761 14.8047 0.000700951 15.0305 0.000700951 15.4068C0.000700951 15.7831 0.301761 16.0089 0.602821 16.0089Z" fill="#F9B959"/>
<path d="M1.72974 12.5432C1.88027 12.5432 2.0308 12.468 2.10607 12.3927L12.6432 1.85559C12.8689 1.6298 12.8689 1.32874 12.6432 1.10294C12.4174 0.877145 12.041 0.877145 11.8152 1.10294L1.27815 11.6401C1.05235 11.8659 1.05235 12.2422 1.27815 12.468C1.42868 12.5433 1.57921 12.5432 1.72974 12.5432Z" fill="#F9B959"/>
<path d="M12.2651 9.76019C12.5661 9.76019 12.8672 9.5344 12.8672 9.15807V1.48103C12.8672 1.17997 12.6414 0.878906 12.2651 0.878906H4.51277C4.21171 0.878906 3.91065 1.1047 3.91065 1.48103C3.91065 1.85735 4.13645 2.08315 4.51277 2.08315H11.6629V9.23334C11.6629 9.5344 11.964 9.76019 12.2651 9.76019Z" fill="#F9B959"/>
</svg>
