<svg width="113" height="30" viewBox="0 0 113 30" fill="none" xmlns="http://www.w3.org/2000/svg">
<mask id="mask0_875_500" style="mask-type:luminance" maskUnits="userSpaceOnUse" x="0" y="0" width="113" height="30">
<path d="M112.123 0H0V30H112.123V0Z" fill="white"/>
</mask>
<g mask="url(#mask0_875_500)">
<path d="M82.4359 7.151H78.9316C78.7892 7.151 78.661 7.26496 78.6752 7.40741V18.2479C78.6752 18.3903 78.7892 18.5185 78.9316 18.5043H82.4217C82.5641 18.5043 82.6923 18.3903 82.6781 18.2479V7.40741C82.6781 7.2792 82.5641 7.151 82.4359 7.151ZM98.0342 3.83191H94.5442C94.4017 3.83191 94.2735 3.94587 94.2878 4.08832V18.2479C94.2878 18.3903 94.4017 18.5185 94.5442 18.5043H98.0342C98.1766 18.5043 98.3049 18.3903 98.2906 18.2479V4.08832C98.2906 3.94587 98.1766 3.83191 98.0342 3.83191ZM80.6838 1.62393C79.4445 1.62393 78.4615 2.62108 78.4615 3.83191C78.4615 5.04273 79.4445 6.03989 80.6838 6.03989C81.9088 6.03989 82.906 5.04273 82.906 3.83191C82.8775 2.62108 81.8946 1.62393 80.6838 1.62393ZM111.952 8.58974V7.4359C111.952 7.29345 111.838 7.16524 111.695 7.17949H108.205C108.063 7.17949 107.934 7.29345 107.949 7.4359V13.3476C107.949 14.5869 107.279 15.2279 106.325 15.2279C105.37 15.2279 104.758 14.5726 104.758 13.3476V7.4359C104.758 7.29345 104.644 7.16524 104.501 7.17949H101.011C100.869 7.17949 100.741 7.29345 100.755 7.4359V13.3476C100.755 15.6838 101.097 16.7806 101.481 17.3077C102.165 18.2194 103.205 18.7749 104.544 18.7749C105.755 18.7749 106.595 18.2194 107.35 17.6353C107.593 17.4501 107.949 17.3362 107.949 17.849V18.8604C107.934 19.5299 107.479 20.114 106.923 20.4131C106.909 20.4131 106.909 20.4274 106.88 20.4274C106.624 20.5556 106.296 20.6553 105.983 20.6268C105.983 20.6268 105.199 20.6268 104.786 20.5556C104.644 20.5413 104.487 20.6268 104.487 20.7835L104.231 23.7892C104.217 23.9316 104.316 24.0598 104.459 24.0741C105.769 24.2878 107.151 24.245 108.618 23.7322C110.926 22.9487 111.98 21.2536 111.98 18.7892V8.58974H111.952ZM91.7806 7.151H90.2137C90.0712 7.151 89.943 7.03704 89.9573 6.89459V4.07407C89.9573 3.93162 89.8433 3.80342 89.7009 3.81766H86.2108C86.0684 3.81766 85.9402 3.93162 85.9544 4.07407V6.89459C85.9544 7.03704 85.8405 7.16524 85.698 7.151H84.6154C84.4729 7.151 84.3447 7.26496 84.359 7.40741V10.3846C84.359 10.5271 84.4729 10.6553 84.6154 10.641H85.698C85.8405 10.641 85.9687 10.755 85.9544 10.8974V15.7977C85.9544 17.4217 87.0798 18.7322 88.9031 18.7322C90.2422 18.7322 91.3818 18.5185 91.8661 18.3048C91.9801 18.2479 92.0513 18.1766 92.0513 18.0627V15.6553C92.0513 15.4986 91.9088 15.3846 91.7521 15.3989C91.1681 15.4843 89.9573 15.755 89.9573 14.2165V10.8974C89.9573 10.755 90.0712 10.6268 90.2137 10.641H91.7806C91.9231 10.641 92.0513 10.5271 92.037 10.3846V7.40741C92.037 7.26496 91.9231 7.151 91.7806 7.151ZM37.265 10.8405C38.6467 10.8405 39.4444 10.1709 39.4444 9.10256V9.05983C39.4444 7.90598 38.604 7.32194 37.2365 7.32194H34.8291C34.6866 7.32194 34.5584 7.4359 34.5727 7.57835V10.584C34.5727 10.7265 34.6866 10.8547 34.8291 10.8405H37.2507H37.265ZM30.4843 4.07407C30.4843 3.93162 30.5983 3.80342 30.7407 3.81766H37.4359C39.6866 3.81766 41.2393 4.40171 42.2222 5.39886C43.0769 6.23932 43.5328 7.36467 43.5328 8.81766V8.8604C43.5328 10.9829 42.4501 12.4217 40.7692 13.2336C40.6268 13.3048 40.584 13.4758 40.6553 13.604L43.718 18.0627C43.7892 18.1766 43.7749 18.3476 43.6467 18.4188C43.604 18.4615 43.5613 18.4615 43.49 18.4615H39.4587C39.3447 18.4615 39.245 18.4046 39.1738 18.3048L36.453 14.2165C36.3818 14.0883 36.2251 14.0171 36.0826 14.0313H34.8006C34.6581 14.0313 34.5299 14.1453 34.5442 14.2877V18.2051C34.5442 18.3476 34.4302 18.4758 34.2878 18.4615H30.7265C30.584 18.4615 30.4558 18.3476 30.4701 18.2051L30.4843 4.07407ZM52.5071 11.6097C52.5071 11.7521 52.3932 11.8661 52.265 11.8661H48.7037C48.5755 11.8661 48.4615 11.7521 48.4615 11.6097C48.4615 10.5128 49.3447 9.62963 50.4843 9.62963C51.6809 9.61538 52.5071 10.4843 52.5071 11.6097ZM50.2849 6.92307C46.7379 6.92307 44.5157 9.68661 44.5157 12.963C44.5157 16.2251 46.9373 18.7464 50.2849 18.7464C53.2764 18.7464 55.0427 17.4501 55.869 15.5128C55.9402 15.3419 55.812 15.1567 55.6268 15.1567H52.5641C52.4359 15.1567 52.3219 15.2137 52.2507 15.2991C51.8661 15.7123 51.3533 15.9687 50.6695 15.9687C49.359 15.9687 48.3333 15.2991 48.3333 14.1738C48.3333 14.0313 48.4473 13.9031 48.5897 13.9174H55.8974C56.0399 13.9174 56.1681 13.8034 56.1539 13.661V12.9345C56.1396 9.70085 54.1026 6.92307 50.2849 6.92307ZM72.2792 6.90883C70.7123 6.90883 69.5869 7.54986 68.6467 8.54701C68.5755 8.61823 68.4331 8.63248 68.3618 8.56125L68.3191 8.51852C67.6781 7.49288 66.5812 6.90883 65.1709 6.90883H65.0285C63.8462 6.95157 62.8205 7.50712 62.1368 8.34758C62.0228 8.49003 61.7806 8.40456 61.7806 8.21937V7.42165C61.7806 7.29344 61.6667 7.17949 61.5385 7.17949H58.0342C57.8917 7.17949 57.7635 7.29345 57.7778 7.4359V18.2621C57.7778 18.4046 57.8917 18.5185 58.0342 18.5185H61.5242C61.6667 18.5185 61.7949 18.4046 61.7806 18.2621V12.3504C61.7806 11.1111 62.4501 10.4701 63.4046 10.4701C64.359 10.4701 64.9715 11.1254 64.9715 12.3504V18.2479C64.9715 18.3903 65.0855 18.5185 65.2279 18.5043H68.718C68.8604 18.5043 68.9886 18.3903 68.9744 18.2479V12.3362C68.9744 11.0969 69.6581 10.4416 70.6125 10.4416C71.567 10.4416 72.1795 11.0969 72.1795 12.3362V18.2479C72.1795 18.3903 72.2935 18.5185 72.4359 18.5043H75.9259C76.0684 18.5043 76.1966 18.3903 76.1823 18.2479V11.0684C76.1823 8.4188 74.7151 6.90883 72.2792 6.90883ZM20.8262 14.7436L12.1083 8.40456C11.6667 8.09117 11.0684 8.09117 10.641 8.40456L6.76638 11.2108C6.53846 11.3818 6.26781 11.4387 5.98291 11.396C5.71225 11.3533 5.45584 11.2108 5.29915 10.9829C5.12821 10.755 5.07122 10.4843 5.11396 10.1994C5.15669 9.91453 5.29915 9.67236 5.52707 9.51567L8.2906 7.52137L10.698 5.78347C12.037 4.81481 13.8889 4.92877 15.0855 6.06837C15.3419 6.32478 15.755 6.32479 16.0541 6.12536L20.8547 2.63533V14.7436H20.8262ZM20.7123 17.2222L20.698 17.2934C20.6553 17.4786 20.5413 17.735 20.4131 17.8775C20.0712 18.2051 19.5442 18.2479 19.1595 17.963L14.9145 14.8718L14.8718 14.8575C14.6154 14.6724 14.2023 14.6724 13.9601 14.9003C13.661 15.1567 13.6467 15.6125 13.9031 15.9117C13.9459 15.9544 13.9744 15.9829 14.0171 15.9972L14.0741 16.0399L17.9772 18.8746C18.2051 19.0171 18.3476 19.2593 18.3903 19.5299C18.4473 19.9003 18.3048 20.2422 18.0057 20.4701L17.9202 20.5271C17.5783 20.7692 17.1225 20.7692 16.7806 20.5271L11.9516 17.0228C11.6952 16.8376 11.2821 16.8376 11.0399 17.0655C10.7407 17.3219 10.7265 17.7778 10.9829 18.0769C11.0256 18.1197 11.0541 18.1481 11.0969 18.1766L15.057 21.0541C15.2849 21.2108 15.4274 21.453 15.4701 21.7094C15.5271 22.0798 15.3704 22.4217 15.0855 22.6496L14.9858 22.7066C14.6581 22.9487 14.188 22.9487 13.8462 22.7066L12.963 22.0655L9.00285 19.188C8.74644 19.0028 8.33333 19.0029 8.09117 19.2308C7.79202 19.4872 7.77778 19.943 8.03419 20.2422C8.06268 20.2849 8.10541 20.3134 8.14815 20.3419L12.1083 23.2194C12.3362 23.3618 12.4786 23.604 12.5214 23.8746C12.5783 24.245 12.4359 24.5869 12.1368 24.8006L12.0513 24.8576C11.7521 25.0855 11.3533 25.0997 11.0256 24.9288L1.56695 18.0342V2.64957L5.66952 5.64102L6.95157 6.56695L4.60114 8.2906C4.04558 8.68946 3.66097 9.30199 3.56125 9.98575C3.44729 10.6695 3.61823 11.3675 4.03134 11.9231C4.44445 12.4786 5.04273 12.8632 5.7265 12.963C5.8547 12.9772 6.0114 13.0057 6.1396 13.0057C6.68091 13.0057 7.20798 12.8348 7.66382 12.5071L10.9544 10.114C11.2108 9.92878 11.5527 9.92878 11.8091 10.114L20.4274 16.3818C20.6553 16.5954 20.7692 16.9088 20.7123 17.2222ZM19.7293 1.53846L15.8262 4.37322C15.7123 4.45869 15.5413 4.45869 15.4131 4.38746C13.8034 3.34758 11.7379 3.30484 10.114 4.31624C10.057 4.33048 10.0142 4.37322 9.95726 4.38746L8.27635 5.61254L2.67806 1.53846H19.7293ZM22.151 0.227917C22.0085 0.0854666 21.8091 0 21.6097 0H0.76923C0.341879 0 0 0.356125 0 0.76923V18.3618C0 18.604 0.11396 18.8462 0.31339 19.0028L10.3276 26.2821C10.8262 26.6524 11.5242 26.6524 12.0228 26.2821L22.037 19.0028C22.2365 18.8604 22.3504 18.6325 22.3504 18.3618V0.754984C22.3789 0.555554 22.3077 0.356122 22.151 0.227917ZM33.9316 25.755C33.9316 25.2279 33.5328 24.886 32.9915 24.886H31.6667V26.6097H32.9915C33.5328 26.6097 33.9316 26.2678 33.9316 25.755ZM30.7123 29.5014V24.0313H33.1197C34.2735 24.0313 34.9003 24.8148 34.9003 25.755C34.9003 26.6809 34.2593 27.4501 33.1197 27.4501H31.6667V29.5014H30.7123ZM35.5128 29.5014V25.5413H36.3675V26.1254C36.6667 25.755 37.151 25.4558 37.6496 25.4558V26.3105C37.5499 26.2963 37.4786 26.2963 37.3932 26.2963C37.0228 26.2963 36.5385 26.5385 36.3675 26.8376V29.5442L35.5128 29.5014ZM41.1254 27.5214C41.1254 26.8376 40.7123 26.2108 39.9858 26.2108C39.2593 26.2108 38.8462 26.8234 38.8462 27.5214C38.8462 28.2336 39.2593 28.8462 39.9858 28.8462C40.7265 28.8462 41.1254 28.2336 41.1254 27.5214ZM37.9487 27.5214C37.9487 26.3818 38.718 25.4558 39.9858 25.4558C41.2536 25.4558 42.0228 26.396 42.0228 27.5214C42.0228 28.661 41.2536 29.6154 39.9858 29.6154C38.7322 29.5869 37.9487 28.6467 37.9487 27.5214ZM47.6068 29.5014V26.9231C47.6068 26.4957 47.4217 26.2108 46.9516 26.2108C46.567 26.2108 46.2108 26.4672 46.0399 26.7379V29.5157H45.1852V26.9373C45.1852 26.51 45 26.2251 44.5299 26.2251C44.1453 26.2251 43.7892 26.4815 43.6182 26.7521V29.5299H42.7635V25.5698H43.6182V26.1111C43.7892 25.8689 44.3162 25.4701 44.9003 25.4701C45.4986 25.4701 45.8547 25.7692 45.9829 26.1966C46.2108 25.8405 46.7237 25.4701 47.3219 25.4701C48.0484 25.4701 48.4615 25.8547 48.4615 26.6667V29.5157L47.6068 29.5014ZM49.416 29.5014H50.2707V25.5413H49.416V29.5014ZM49.3162 24.5157C49.3162 24.2165 49.5584 23.9744 49.8433 23.9744C50.1425 23.9744 50.3846 24.2165 50.3846 24.5014C50.3846 24.8006 50.1425 25.0427 49.8576 25.0427C49.5584 25.057 49.3162 24.8148 49.3162 24.5157ZM51.0541 28.9744L51.4387 28.3618C51.7236 28.6467 52.265 28.9031 52.7778 28.9031C53.3048 28.9031 53.5613 28.7037 53.5613 28.3761C53.5613 27.5926 51.1681 28.1481 51.1681 26.6239C51.1681 25.9687 51.7236 25.4274 52.7208 25.4274C53.3903 25.4274 53.9031 25.6695 54.245 25.9687L53.8889 26.5812C53.6467 26.3248 53.2194 26.1111 52.7066 26.1111C52.265 26.1111 51.9801 26.3105 51.9801 26.5954C51.9801 27.2934 54.3732 26.7664 54.3732 28.3476C54.3732 29.0598 53.7892 29.5726 52.735 29.5726C52.0798 29.5869 51.4672 29.3875 51.0541 28.9744ZM56.8519 26.1396C56.1254 26.1396 55.7692 26.6952 55.755 27.1795H57.9915C57.963 26.7236 57.6353 26.1396 56.8519 26.1396ZM54.8576 27.5214C54.8576 26.3818 55.698 25.4558 56.8661 25.4558C58.0627 25.4558 58.8034 26.3533 58.8034 27.6068V27.8063H55.7692C55.8405 28.4046 56.2678 28.8889 57.0228 28.8889C57.4074 28.8889 57.8633 28.7464 58.1624 28.4473L58.547 29.0028C58.1339 29.3732 57.5641 29.5869 56.9373 29.5869C55.7407 29.5869 54.8576 28.7749 54.8576 27.5214ZM59.1738 28.9744L59.5584 28.3618C59.8433 28.6467 60.3846 28.9031 60.8974 28.9031C61.4245 28.9031 61.6809 28.7037 61.6809 28.3761C61.6809 27.5926 59.2878 28.1481 59.2878 26.6239C59.2878 25.9687 59.8433 25.4274 60.8405 25.4274C61.51 25.4274 62.0228 25.6695 62.3789 25.9687L62.0228 26.5812C61.7806 26.3248 61.3533 26.1111 60.8405 26.1111C60.3989 26.1111 60.114 26.3105 60.114 26.5954C60.114 27.2934 62.5071 26.7664 62.5071 28.3476C62.5071 29.0598 61.9231 29.5726 60.8689 29.5726C60.1709 29.5869 59.5727 29.3875 59.1738 28.9744ZM69.416 26.7521C69.416 25.7123 68.7607 24.8718 67.5499 24.8718H66.4672V28.661H67.5499C68.718 28.661 69.416 27.8063 69.416 26.7521ZM65.5128 29.5014V24.0313H67.5499C69.2735 24.0313 70.3989 25.1709 70.3989 26.7521C70.3989 28.3761 69.245 29.4872 67.5499 29.4872H65.5128V29.5014ZM72.906 26.1396C72.1795 26.1396 71.8234 26.6952 71.8091 27.1795H74.0456C74.0029 26.7236 73.6895 26.1396 72.906 26.1396ZM70.8974 27.5214C70.8974 26.3818 71.7379 25.4558 72.906 25.4558C74.1026 25.4558 74.8433 26.3533 74.8433 27.6068V27.8063H71.7949C71.8661 28.4046 72.3077 28.8889 73.0484 28.8889C73.4331 28.8889 73.8889 28.7464 74.188 28.4473L74.5727 29.0028C74.1596 29.3732 73.5755 29.5869 72.963 29.5869C71.7806 29.5869 70.8974 28.7749 70.8974 27.5214ZM75.5556 29.5014H76.4103V24.0313H75.5556V29.5014ZM77.3647 29.5014H78.2194V25.5413H77.3647V29.5014ZM77.2507 24.5157C77.2507 24.2165 77.4929 23.9744 77.7778 23.9744C78.0769 23.9744 78.3191 24.2165 78.3191 24.5014C78.3191 24.8006 78.0769 25.0427 77.792 25.0427C77.4929 25.057 77.2365 24.8148 77.2507 24.5157ZM80.3561 29.5014L78.7322 25.5413H79.6581L80.812 28.5043L81.9658 25.5413H82.8775L81.2536 29.5014H80.3561ZM84.8718 26.1396C84.1453 26.1396 83.7892 26.6952 83.7749 27.1795H86.0114C85.9829 26.7236 85.6553 26.1396 84.8718 26.1396ZM82.8775 27.5214C82.8775 26.3818 83.718 25.4558 84.8861 25.4558C86.0826 25.4558 86.8234 26.3533 86.8234 27.6068V27.8063H83.7749C83.8462 28.4046 84.2735 28.8889 85.0285 28.8889C85.4131 28.8889 85.869 28.7464 86.1681 28.4473L86.5527 29.0028C86.1396 29.3732 85.5698 29.5869 84.943 29.5869C83.7607 29.5869 82.8775 28.7749 82.8775 27.5214ZM87.5356 29.5014V25.5413H88.3903V26.1254C88.6895 25.755 89.1738 25.4558 89.6724 25.4558V26.3105C89.5869 26.2963 89.5014 26.2963 89.416 26.2963C89.0456 26.2963 88.5613 26.5385 88.3903 26.8376V29.5442L87.5356 29.5014ZM91.7949 26.1396C91.0684 26.1396 90.7123 26.6952 90.698 27.1795H92.9345C92.906 26.7236 92.5784 26.1396 91.7949 26.1396ZM89.8006 27.5214C89.8006 26.3818 90.641 25.4558 91.8091 25.4558C93.0057 25.4558 93.7464 26.3533 93.7464 27.6068V27.8063H90.7123C90.7835 28.4046 91.2108 28.8889 91.9658 28.8889C92.3647 28.8889 92.8063 28.7464 93.1054 28.4473L93.49 29.0028C93.0769 29.3732 92.5071 29.5869 91.8803 29.5869C90.6838 29.5869 89.8006 28.7749 89.8006 27.5214ZM97.2222 28.3048V26.7379C97.037 26.4387 96.6097 26.1966 96.2108 26.1966C95.5128 26.1966 95.0855 26.7379 95.0855 27.5071C95.0855 28.2764 95.5128 28.8319 96.2108 28.8319C96.6097 28.8462 97.037 28.604 97.2222 28.3048ZM97.2222 29.5014V28.9601C96.9231 29.359 96.453 29.6011 95.9544 29.6011C94.943 29.6011 94.2023 28.8319 94.2023 27.5071C94.2023 26.2251 94.943 25.4416 95.9544 25.4416C96.453 25.4416 96.9088 25.6695 97.2222 26.0969V24.0456H98.0769V29.5157H97.2222V29.5014Z" fill="white"/>
</g>
</svg>
