<svg width="37" height="37" viewBox="0 0 37 37" fill="none" xmlns="http://www.w3.org/2000/svg">
<circle cx="18.2369" cy="18.2369" r="17.7369" stroke="#A1E6F6"/>
<path d="M21.4922 18.5664C21.7109 18.5664 21.9023 18.5482 22.0664 18.5117C22.2305 18.4753 22.3649 18.4046 22.4697 18.2998C22.5791 18.1904 22.6611 18.0355 22.7158 17.835C22.7705 17.6344 22.7979 17.3701 22.7979 17.042C22.7979 16.6774 22.7705 16.3698 22.7158 16.1191C22.6611 15.8685 22.57 15.6611 22.4424 15.4971C22.3148 15.333 22.1416 15.2077 21.9229 15.1211C21.7087 15.0345 21.4398 14.9707 21.1162 14.9297C20.7926 14.8887 20.4098 14.8659 19.9678 14.8613C19.5257 14.8522 19.013 14.8477 18.4297 14.8477C17.6276 14.8477 16.9508 14.859 16.3994 14.8818C15.8525 14.9001 15.3991 14.9388 15.0391 14.998C14.6836 15.0527 14.4102 15.1302 14.2188 15.2305C14.0273 15.3307 13.8861 15.4629 13.7949 15.627C13.7083 15.7865 13.6559 15.9824 13.6377 16.2148C13.624 16.4473 13.6172 16.7207 13.6172 17.0352H12.3047C12.3047 16.4837 12.3639 16.0189 12.4824 15.6406C12.6055 15.2624 12.7832 14.9525 13.0156 14.7109C13.2526 14.4648 13.5443 14.278 13.8906 14.1504C14.237 14.0182 14.6357 13.9248 15.0869 13.8701C15.5426 13.8109 16.0485 13.7767 16.6045 13.7676C17.165 13.7585 17.7734 13.7539 18.4297 13.7539C19.0859 13.7539 19.6807 13.7653 20.2139 13.7881C20.7516 13.8063 21.2301 13.8519 21.6494 13.9248C22.0732 13.9977 22.4401 14.1048 22.75 14.2461C23.0599 14.3874 23.3151 14.5811 23.5156 14.8271C23.7207 15.0687 23.8711 15.3695 23.9668 15.7295C24.0671 16.0895 24.1172 16.5247 24.1172 17.0352C24.1172 17.3633 24.0944 17.6413 24.0488 17.8691C24.0078 18.097 23.9417 18.2907 23.8506 18.4502C23.764 18.6051 23.6523 18.735 23.5156 18.8398C23.3789 18.9401 23.2148 19.0312 23.0234 19.1133C23.2148 19.1953 23.3789 19.3001 23.5156 19.4277C23.6523 19.5553 23.764 19.7126 23.8506 19.8994C23.9417 20.0817 24.0078 20.2982 24.0488 20.5488C24.0944 20.7949 24.1172 21.082 24.1172 21.4102C24.1172 21.9206 24.0671 22.3558 23.9668 22.7158C23.8711 23.0758 23.7207 23.3789 23.5156 23.625C23.3151 23.8665 23.0599 24.0579 22.75 24.1992C22.4401 24.3405 22.0732 24.4476 21.6494 24.5205C21.2301 24.5934 20.7516 24.639 20.2139 24.6572C19.6807 24.68 19.0859 24.6914 18.4297 24.6914C17.7734 24.6914 17.165 24.6868 16.6045 24.6777C16.0485 24.6686 15.5426 24.6322 15.0869 24.5684C14.6357 24.5046 14.237 24.4043 13.8906 24.2676C13.5443 24.1263 13.2526 23.9258 13.0156 23.666C12.7832 23.4062 12.6055 23.0758 12.4824 22.6748C12.3639 22.2738 12.3047 21.7793 12.3047 21.1914H13.6172C13.6172 21.5378 13.6263 21.8385 13.6445 22.0938C13.6628 22.3444 13.7152 22.5586 13.8018 22.7363C13.8883 22.9141 14.0273 23.0599 14.2188 23.1738C14.4102 23.2832 14.6836 23.3698 15.0391 23.4336C15.3991 23.4974 15.8525 23.5407 16.3994 23.5635C16.9508 23.5863 17.6276 23.5977 18.4297 23.5977C19.013 23.5977 19.5257 23.5954 19.9678 23.5908C20.4098 23.5817 20.7926 23.5566 21.1162 23.5156C21.4398 23.4746 21.7087 23.4108 21.9229 23.3242C22.1416 23.2376 22.3148 23.1123 22.4424 22.9482C22.57 22.7842 22.6611 22.5768 22.7158 22.3262C22.7705 22.0755 22.7979 21.7679 22.7979 21.4033C22.7979 21.0205 22.7705 20.7152 22.7158 20.4873C22.6611 20.2549 22.5791 20.0771 22.4697 19.9541C22.3649 19.8311 22.2305 19.7513 22.0664 19.7148C21.9023 19.6784 21.7109 19.6602 21.4922 19.6602H16.6797V18.5664H21.4922Z" fill="#A1E6F6"/>
</svg>
