<svg width="12" height="12" viewBox="0 0 12 12" fill="none" xmlns="http://www.w3.org/2000/svg">
<path d="M6 0C2.68641 0 0 2.68641 0 6C0 9.31359 2.68641 12 6 12C9.31359 12 12 9.31359 12 6C12 2.68641 9.31359 0 6 0ZM6 11.4C3.02241 11.4 0.6 8.97759 0.6 6C0.6 3.02241 3.02241 0.6 6 0.6C8.97759 0.6 11.4 3.02241 11.4 6C11.4 8.97759 8.97759 11.4 6 11.4Z" fill="url(#paint0_linear_2284_444)"/>
<path d="M7.49345 2.80227C7.16865 2.52146 6.75005 2.38086 6.23764 2.38086H6.13444C5.60305 2.38086 5.15005 2.54666 4.77505 2.87766C4.36245 3.24688 4.15625 3.74026 4.15625 4.35887C4.15625 4.45906 4.18445 4.53706 4.24065 4.59327C4.29685 4.64366 4.36545 4.66527 4.44685 4.65887C4.52185 4.65887 4.58745 4.63067 4.64366 4.57447C4.70605 4.51227 4.73745 4.43727 4.73745 4.34947C4.73745 3.99966 4.81866 3.69666 4.98125 3.44007C5.21865 3.07787 5.60286 2.89627 6.13444 2.89627C6.58444 2.89627 6.92485 3.01808 7.15625 3.26188C7.34984 3.46227 7.44985 3.72127 7.45625 4.04007C7.45625 4.32127 7.39686 4.57147 7.27805 4.79007C7.14045 5.04027 6.89366 5.31507 6.53745 5.61507C6.23745 5.85887 6.02806 6.13067 5.90926 6.43067C5.79027 6.71827 5.73106 7.08406 5.73106 7.52748C5.73106 7.61527 5.75926 7.68688 5.81546 7.74308C5.87166 7.79347 5.94027 7.81808 6.02166 7.81808C6.09666 7.81808 6.16227 7.79347 6.21847 7.74308C6.28086 7.68688 6.31227 7.61527 6.31227 7.52748C6.31227 7.09027 6.36526 6.75287 6.47166 6.51488C6.57767 6.28988 6.78406 6.05248 7.09046 5.80229C7.42805 5.51509 7.67166 5.23688 7.82166 4.96789C7.96527 4.7053 8.03727 4.41188 8.03727 4.08669C8.03724 3.53705 7.85584 3.10866 7.49345 2.80227Z" fill="url(#paint1_linear_2284_444)"/>
<path d="M6.00625 9.60039C6.33762 9.60039 6.60625 9.33176 6.60625 9.00039C6.60625 8.66902 6.33762 8.40039 6.00625 8.40039C5.67488 8.40039 5.40625 8.66902 5.40625 9.00039C5.40625 9.33176 5.67488 9.60039 6.00625 9.60039Z" fill="url(#paint2_linear_2284_444)"/>
<defs>
<linearGradient id="paint0_linear_2284_444" x1="1.42492e-07" y1="10.5" x2="9.975" y2="1.35" gradientUnits="userSpaceOnUse">
<stop stop-color="#02AAB0"/>
<stop offset="1" stop-color="#00CDAC"/>
</linearGradient>
<linearGradient id="paint1_linear_2284_444" x1="4.15625" y1="7.13843" x2="8.31431" y2="4.41593" gradientUnits="userSpaceOnUse">
<stop stop-color="#02AAB0"/>
<stop offset="1" stop-color="#00CDAC"/>
</linearGradient>
<linearGradient id="paint2_linear_2284_444" x1="5.40625" y1="9.45039" x2="6.40375" y2="8.53539" gradientUnits="userSpaceOnUse">
<stop stop-color="#02AAB0"/>
<stop offset="1" stop-color="#00CDAC"/>
</linearGradient>
</defs>
</svg>
