<svg width="15" height="15" viewBox="0 0 15 15" fill="none" xmlns="http://www.w3.org/2000/svg">
<path d="M7.5 0C3.35801 0 0 3.35801 0 7.5C0 11.642 3.35801 15 7.5 15C11.642 15 15 11.642 15 7.5C15 3.35801 11.642 0 7.5 0ZM7.5 14.25C3.77801 14.25 0.75 11.222 0.75 7.5C0.75 3.77801 3.77801 0.75 7.5 0.75C11.222 0.75 14.25 3.77801 14.25 7.5C14.25 11.222 11.222 14.25 7.5 14.25Z" fill="#A1E6F6"/>
<path d="M9.35313 3.50332C8.94714 3.15231 8.4239 2.97656 7.78338 2.97656H7.65438C6.99014 2.97656 6.42389 3.18381 5.95514 3.59757C5.43939 4.05908 5.18164 4.67581 5.18164 5.44907C5.18164 5.57432 5.21688 5.67182 5.28714 5.74207C5.35739 5.80506 5.44314 5.83207 5.54489 5.82407C5.63864 5.82407 5.72064 5.78883 5.7909 5.71857C5.86889 5.64082 5.90814 5.54707 5.90814 5.43732C5.90814 5.00007 6.00966 4.62132 6.21289 4.30058C6.50964 3.84782 6.9899 3.62083 7.65438 3.62083C8.21688 3.62083 8.64239 3.77309 8.93164 4.07783C9.17363 4.32832 9.29864 4.65208 9.30664 5.05058C9.30664 5.40208 9.2324 5.71482 9.0839 5.98808C8.91189 6.30082 8.6034 6.64433 8.15814 7.01933C7.78314 7.32407 7.52141 7.66383 7.3729 8.03883C7.22416 8.39833 7.15016 8.85557 7.15016 9.40983C7.15016 9.51958 7.1854 9.60908 7.25565 9.67934C7.32591 9.74232 7.41166 9.77309 7.51341 9.77309C7.60716 9.77309 7.68916 9.74232 7.75941 9.67934C7.8374 9.60908 7.87666 9.51958 7.87666 9.40983C7.87666 8.86333 7.9429 8.44157 8.07591 8.14409C8.20842 7.86284 8.46641 7.56609 8.8494 7.25335C9.2714 6.89435 9.57591 6.54659 9.76341 6.21035C9.94291 5.88211 10.0329 5.51534 10.0329 5.10885C10.0329 4.42181 9.80612 3.88632 9.35313 3.50332Z" fill="#A1E6F6"/>
<path d="M7.5 12C7.91421 12 8.25 11.6642 8.25 11.25C8.25 10.8358 7.91421 10.5 7.5 10.5C7.08579 10.5 6.75 10.8358 6.75 11.25C6.75 11.6642 7.08579 12 7.5 12Z" fill="#A1E6F6"/>
</svg>
