<svg width="92" height="92" viewBox="0 0 92 92" fill="none" xmlns="http://www.w3.org/2000/svg">
<path d="M92 46C92 71.4051 71.4051 92 46 92C20.5949 92 0 71.4051 0 46C0 20.5949 20.5949 0 46 0C71.4051 0 92 20.5949 92 46ZM4.18398 46C4.18398 69.0944 22.9056 87.816 46 87.816C69.0944 87.816 87.816 69.0944 87.816 46C87.816 22.9056 69.0944 4.18398 46 4.18398C22.9056 4.18398 4.18398 22.9056 4.18398 46Z" fill="#FD5252"/>
<path fill-rule="evenodd" clip-rule="evenodd" d="M30.5729 30.6408C30.9401 30.2638 31.438 30.052 31.9571 30.052C32.4762 30.052 32.974 30.2638 33.3413 30.6408L46.9747 44.6543L60.6081 30.6408C60.7874 30.443 61.0037 30.2843 61.2439 30.1743C61.4842 30.0643 61.7436 30.0051 62.0066 30.0003C62.2696 29.9955 62.5309 30.0453 62.7748 30.1465C63.0187 30.2478 63.2403 30.3985 63.4263 30.5897C63.6123 30.7809 63.7589 31.0087 63.8574 31.2594C63.956 31.5101 64.0043 31.7786 63.9997 32.049C63.9951 32.3193 63.9375 32.5859 63.8304 32.8329C63.7234 33.0799 63.569 33.3022 63.3766 33.4865L49.7432 47.5L63.3766 61.5135C63.569 61.6978 63.7234 61.9201 63.8304 62.1671C63.9375 62.4141 63.9951 62.6807 63.9997 62.951C64.0043 63.2214 63.956 63.4899 63.8574 63.7406C63.7589 63.9913 63.6123 64.2191 63.4263 64.4103C63.2403 64.6015 63.0187 64.7522 62.7748 64.8535C62.5309 64.9547 62.2696 65.0045 62.0066 64.9997C61.7436 64.9949 61.4842 64.9357 61.2439 64.8257C61.0037 64.7157 60.7874 64.557 60.6081 64.3592L46.9747 50.3457L33.3413 64.3592C32.97 64.7148 32.4789 64.9084 31.9714 64.8992C31.4639 64.89 30.9798 64.6787 30.6209 64.3098C30.262 63.9409 30.0564 63.4433 30.0474 62.9216C30.0385 62.4 30.2269 61.8952 30.5729 61.5135L44.2062 47.5L30.5729 33.4865C30.206 33.109 30 32.5972 30 32.0637C30 31.5301 30.206 31.0184 30.5729 30.6408Z" fill="#FD5252"/>
</svg>
