<svg width="37" height="37" viewBox="0 0 37 37" fill="none" xmlns="http://www.w3.org/2000/svg">
<circle cx="18.2369" cy="18.2369" r="17.7369" stroke="#A1E6F6"/>
<path d="M12.3047 22.4258C12.3047 22.1523 12.3115 21.8812 12.3252 21.6123C12.3389 21.3389 12.3685 21.0791 12.4141 20.833C12.4642 20.5824 12.5348 20.3477 12.626 20.1289C12.7217 19.9102 12.8493 19.7188 13.0088 19.5547C13.1729 19.3861 13.3757 19.2471 13.6172 19.1377C13.8587 19.0283 14.1504 18.9577 14.4922 18.9258L21.4922 18.2695C21.7109 18.2513 21.9023 18.2194 22.0664 18.1738C22.2305 18.1283 22.3649 18.0417 22.4697 17.9141C22.5791 17.7819 22.6611 17.5905 22.7158 17.3398C22.7705 17.0892 22.7979 16.7451 22.7979 16.3076C22.7979 15.943 22.7705 15.6354 22.7158 15.3848C22.6611 15.1341 22.57 14.9268 22.4424 14.7627C22.3148 14.5986 22.1416 14.4733 21.9229 14.3867C21.7087 14.3001 21.4398 14.2363 21.1162 14.1953C20.7926 14.1543 20.4098 14.1315 19.9678 14.127C19.5257 14.1178 19.013 14.1133 18.4297 14.1133C17.6276 14.1133 16.9508 14.1292 16.3994 14.1611C15.8525 14.1885 15.3991 14.2409 15.0391 14.3184C14.6836 14.3958 14.4102 14.5007 14.2188 14.6328C14.0273 14.765 13.8861 14.9382 13.7949 15.1523C13.7083 15.362 13.6559 15.6149 13.6377 15.9111C13.624 16.2074 13.6172 16.556 13.6172 16.957H12.3047C12.3047 16.3008 12.3639 15.7493 12.4824 15.3027C12.6055 14.8516 12.7832 14.4801 13.0156 14.1885C13.2526 13.8968 13.5443 13.6712 13.8906 13.5117C14.237 13.3522 14.6357 13.236 15.0869 13.1631C15.5426 13.0902 16.0485 13.0492 16.6045 13.04C17.165 13.0264 17.7734 13.0195 18.4297 13.0195C19.0859 13.0195 19.6807 13.0309 20.2139 13.0537C20.7516 13.0719 21.2301 13.1175 21.6494 13.1904C22.0732 13.2633 22.4401 13.3704 22.75 13.5117C23.0599 13.653 23.3151 13.8467 23.5156 14.0928C23.7207 14.3343 23.8711 14.6351 23.9668 14.9951C24.0671 15.3551 24.1172 15.7904 24.1172 16.3008C24.1172 16.7383 24.0853 17.137 24.0215 17.4971C23.9577 17.8525 23.8438 18.1624 23.6797 18.4268C23.5156 18.6911 23.2923 18.903 23.0098 19.0625C22.7272 19.222 22.3672 19.3223 21.9297 19.3633L14.9297 20.0195C14.597 20.0514 14.3418 20.113 14.1641 20.2041C13.9863 20.2952 13.8564 20.4411 13.7744 20.6416C13.6924 20.8376 13.6445 21.0973 13.6309 21.4209C13.6217 21.7445 13.6172 22.1523 13.6172 22.6445H23.8984V23.7383H12.3047V22.4258Z" fill="#A1E6F6"/>
</svg>
