<svg width="15" height="10" viewBox="0 0 15 10" fill="none" xmlns="http://www.w3.org/2000/svg">
<mask id="mask0_6652_5313" style="mask-type:luminance" maskUnits="userSpaceOnUse" x="0" y="0" width="15" height="10">
<path d="M13.1021 9.82031H1.00786C0.451233 9.82031 0 9.38066 0 8.83831V0.982312C0 0.439969 0.451233 0.000312805 1.00786 0.000312805H13.1021C13.6588 0.000312805 14.11 0.439969 14.11 0.982312V8.83831C14.11 9.38066 13.6588 9.82031 13.1021 9.82031Z" fill="white"/>
</mask>
<g mask="url(#mask0_6652_5313)">
<path d="M13.1021 9.82031H1.00786C0.451233 9.82031 0 9.38066 0 8.83831V0.982312C0 0.439969 0.451233 0.000312805 1.00786 0.000312805H13.1021C13.6588 0.000312805 14.11 0.439969 14.11 0.982312V8.83831C14.11 9.38066 13.6588 9.82031 13.1021 9.82031Z" fill="white"/>
<mask id="mask1_6652_5313" style="mask-type:alpha" maskUnits="userSpaceOnUse" x="0" y="0" width="15" height="10">
<path d="M13.1021 9.82031H1.00786C0.451233 9.82031 0 9.38066 0 8.83831V0.982312C0 0.439969 0.451233 0.000312805 1.00786 0.000312805H13.1021C13.6588 0.000312805 14.11 0.439969 14.11 0.982312V8.83831C14.11 9.38066 13.6588 9.82031 13.1021 9.82031Z" fill="white"/>
</mask>
<g mask="url(#mask1_6652_5313)">
<path fill-rule="evenodd" clip-rule="evenodd" d="M14.11 9.82031H0V9.16565H14.11V9.82031ZM14.11 8.51098H0V7.85631H14.11V8.51098ZM0 7.20165H14.11V6.54698H0V7.20165ZM14.11 5.89231H0V5.23765H14.11V5.89231ZM0 4.58296H14.11V3.92831H0V4.58296ZM14.11 3.27366H0V2.61896H14.11V3.27366ZM0 1.96431H14.11V1.30966H0V1.96431ZM14.11 0.654963H0V0.000312805H14.11V0.654963Z" fill="#D02F44"/>
<path d="M6.04714 9.82031H0V5.23765H6.04714V9.82031Z" fill="#46467F"/>
<g filter="url(#filter0_d_6652_5313)">
<path fill-rule="evenodd" clip-rule="evenodd" d="M1.33597 8.83673C1.33597 8.65595 1.18556 8.5094 1.00002 8.5094C0.814475 8.5094 0.664062 8.65595 0.664062 8.83673C0.664062 9.01751 0.814475 9.16406 1.00002 9.16406C1.18556 9.16406 1.33597 9.01751 1.33597 8.83673ZM2.67978 8.83673C2.67978 8.65595 2.52937 8.5094 2.34383 8.5094C2.15829 8.5094 2.00787 8.65595 2.00787 8.83673C2.00787 9.01751 2.15829 9.16406 2.34383 9.16406C2.52937 9.16406 2.67978 9.01751 2.67978 8.83673ZM3.68763 8.5094C3.87318 8.5094 4.02359 8.65595 4.02359 8.83673C4.02359 9.01751 3.87318 9.16406 3.68763 9.16406C3.50209 9.16406 3.35168 9.01751 3.35168 8.83673C3.35168 8.65595 3.50209 8.5094 3.68763 8.5094ZM5.36737 8.83673C5.36737 8.65595 5.217 8.5094 5.03145 8.5094C4.8459 8.5094 4.69549 8.65595 4.69549 8.83673C4.69549 9.01751 4.8459 9.16406 5.03145 9.16406C5.217 9.16406 5.36737 9.01751 5.36737 8.83673ZM1.67192 7.85473C1.85746 7.85473 2.00787 8.00128 2.00787 8.18206C2.00787 8.36284 1.85746 8.5094 1.67192 8.5094C1.48638 8.5094 1.33597 8.36284 1.33597 8.18206C1.33597 8.00128 1.48638 7.85473 1.67192 7.85473ZM3.35168 8.18206C3.35168 8.00128 3.20127 7.85473 3.01573 7.85473C2.83019 7.85473 2.67978 8.00128 2.67978 8.18206C2.67978 8.36284 2.83019 8.5094 3.01573 8.5094C3.20127 8.5094 3.35168 8.36284 3.35168 8.18206ZM4.35954 7.85473C4.54508 7.85473 4.69549 8.00128 4.69549 8.18206C4.69549 8.36284 4.54508 8.5094 4.35954 8.5094C4.174 8.5094 4.02359 8.36284 4.02359 8.18206C4.02359 8.00128 4.174 7.85473 4.35954 7.85473ZM5.36737 7.5274C5.36737 7.34662 5.217 7.20006 5.03145 7.20006C4.8459 7.20006 4.69549 7.34662 4.69549 7.5274C4.69549 7.70818 4.8459 7.85473 5.03145 7.85473C5.217 7.85473 5.36737 7.70818 5.36737 7.5274ZM3.68763 7.20006C3.87318 7.20006 4.02359 7.34662 4.02359 7.5274C4.02359 7.70818 3.87318 7.85473 3.68763 7.85473C3.50209 7.85473 3.35168 7.70818 3.35168 7.5274C3.35168 7.34662 3.50209 7.20006 3.68763 7.20006ZM2.67978 7.5274C2.67978 7.34662 2.52937 7.20006 2.34383 7.20006C2.15829 7.20006 2.00787 7.34662 2.00787 7.5274C2.00787 7.70818 2.15829 7.85473 2.34383 7.85473C2.52937 7.85473 2.67978 7.70818 2.67978 7.5274ZM1.00002 7.20006C1.18556 7.20006 1.33597 7.34662 1.33597 7.5274C1.33597 7.70818 1.18556 7.85473 1.00002 7.85473C0.814475 7.85473 0.664062 7.70818 0.664062 7.5274C0.664062 7.34662 0.814475 7.20006 1.00002 7.20006ZM2.00787 6.87273C2.00787 6.69195 1.85746 6.5454 1.67192 6.5454C1.48638 6.5454 1.33597 6.69195 1.33597 6.87273C1.33597 7.05351 1.48638 7.20006 1.67192 7.20006C1.85746 7.20006 2.00787 7.05351 2.00787 6.87273ZM3.01573 6.5454C3.20127 6.5454 3.35168 6.69195 3.35168 6.87273C3.35168 7.05351 3.20127 7.20006 3.01573 7.20006C2.83019 7.20006 2.67978 7.05351 2.67978 6.87273C2.67978 6.69195 2.83019 6.5454 3.01573 6.5454ZM4.69549 6.87273C4.69549 6.69195 4.54508 6.5454 4.35954 6.5454C4.174 6.5454 4.02359 6.69195 4.02359 6.87273C4.02359 7.05351 4.174 7.20006 4.35954 7.20006C4.54508 7.20006 4.69549 7.05351 4.69549 6.87273ZM5.03145 5.89073C5.217 5.89073 5.36737 6.03728 5.36737 6.21806C5.36737 6.39884 5.217 6.5454 5.03145 6.5454C4.8459 6.5454 4.69549 6.39884 4.69549 6.21806C4.69549 6.03728 4.8459 5.89073 5.03145 5.89073ZM4.02359 6.21806C4.02359 6.03728 3.87318 5.89073 3.68763 5.89073C3.50209 5.89073 3.35168 6.03728 3.35168 6.21806C3.35168 6.39884 3.50209 6.5454 3.68763 6.5454C3.87318 6.5454 4.02359 6.39884 4.02359 6.21806ZM2.34383 5.89073C2.52937 5.89073 2.67978 6.03728 2.67978 6.21806C2.67978 6.39884 2.52937 6.5454 2.34383 6.5454C2.15829 6.5454 2.00787 6.39884 2.00787 6.21806C2.00787 6.03728 2.15829 5.89073 2.34383 5.89073ZM1.33597 6.21806C1.33597 6.03728 1.18556 5.89073 1.00002 5.89073C0.814475 5.89073 0.664062 6.03728 0.664062 6.21806C0.664062 6.39884 0.814475 6.5454 1.00002 6.5454C1.18556 6.5454 1.33597 6.39884 1.33597 6.21806Z" fill="url(#paint0_linear_6652_5313)"/>
</g>
</g>
</g>
<defs>
<filter id="filter0_d_6652_5313" x="0.664062" y="5.89062" width="4.70312" height="31.8449" filterUnits="userSpaceOnUse" color-interpolation-filters="sRGB">
<feFlood flood-opacity="0" result="BackgroundImageFix"/>
<feColorMatrix in="SourceAlpha" type="matrix" values="0 0 0 0 0 0 0 0 0 0 0 0 0 0 0 0 0 0 127 0" result="hardAlpha"/>
<feOffset dy="28.5714"/>
<feColorMatrix type="matrix" values="0 0 0 0 0 0 0 0 0 0 0 0 0 0 0 0 0 0 0.06 0"/>
<feBlend mode="normal" in2="BackgroundImageFix" result="effect1_dropShadow_6652_5313"/>
<feBlend mode="normal" in="SourceGraphic" in2="effect1_dropShadow_6652_5313" result="shape"/>
</filter>
<linearGradient id="paint0_linear_6652_5313" x1="0.664062" y1="9.16406" x2="0.664062" y2="5.89073" gradientUnits="userSpaceOnUse">
<stop stop-color="white"/>
<stop offset="1" stop-color="#F0F0F0"/>
</linearGradient>
</defs>
</svg>
