<svg width="95" height="22" viewBox="0 0 95 22" fill="none" xmlns="http://www.w3.org/2000/svg">
<g clip-path="url(#clip0_875_480)">
<mask id="mask0_875_480" style="mask-type:luminance" maskUnits="userSpaceOnUse" x="0" y="0" width="40" height="22">
<path d="M0.00585938 0.0507812H39.0398V21.7332H0.00585938V0.0507812Z" fill="white"/>
</mask>
<g mask="url(#mask0_875_480)">
<path fill-rule="evenodd" clip-rule="evenodd" d="M11.274 19.1607C13.3006 22.5875 16.6168 22.5875 18.6437 19.1607L19.7774 17.2439L9.63142 0.0507812H0L11.2733 19.1607M32.6407 11.8161C31.9004 13.0652 30.1571 13.0639 29.4183 11.8137L22.4678 0.0507812H12.8405L24.1249 19.1669C26.1516 22.594 29.4608 22.594 31.4874 19.1669L39.0402 6.36416L35.3232 0.0507812H25.6997L32.6407 11.8161Z" fill="white"/>
</g>
<path fill-rule="evenodd" clip-rule="evenodd" d="M45.5645 10.159H47.5389L47.5557 10.0986C48.7736 5.67689 49.2733 3.78861 49.4762 2.61858C49.6738 3.7852 50.1482 5.70044 51.3129 10.0977L51.3291 10.159H53.3462L56.1547 0.0507812H54.3174L54.3013 0.111824C53.0805 4.70084 52.615 6.55968 52.4045 7.74304C52.1594 6.47075 51.6302 4.37177 50.4877 0.111514L50.4712 0.0507812H48.5519L48.5361 0.112133C47.3476 4.65622 46.8498 6.60182 46.637 7.86543C46.4043 6.63436 45.8808 4.59332 44.6943 0.111824L44.6778 0.0507812H42.7705L45.5477 10.0986L45.5645 10.159ZM59.1621 4.03805C60.2492 4.03805 61.0751 4.71819 61.1593 5.6676H57.126C57.2495 4.71788 58.0908 4.03805 59.1621 4.03805ZM59.2749 10.2991C60.767 10.2991 62.1796 9.50273 62.7443 8.31751L61.382 7.63954L61.3528 7.63644L61.3275 7.68881C61.1622 8.02439 60.5574 8.80492 59.2888 8.80492C58.1368 8.80492 57.2602 8.0876 57.126 7.04957H62.9932L62.9951 6.96994C63.0312 5.55326 62.6379 4.39098 61.8582 3.60858C61.1818 2.9303 60.2496 2.5718 59.1621 2.5718C58.0886 2.5718 57.1101 2.96749 56.4074 3.68605C55.712 4.39749 55.3289 5.37881 55.3289 6.44937C55.3289 8.71599 56.9518 10.2991 59.2749 10.2991ZM66.7042 10.2991C68.6251 10.2991 69.8186 9.42526 69.8186 8.0185C69.8186 6.35053 68.2688 5.9567 67.0237 5.64064C66.1633 5.42219 65.4204 5.23318 65.4204 4.69867C65.4204 4.26827 65.8846 3.96771 66.5493 3.96771C67.2761 3.96771 67.7793 4.34326 67.8619 4.94749L67.9132 5.25332L67.9474 5.24774L69.4747 4.97196C69.4747 3.57047 68.2074 2.58605 66.5633 2.58605C64.871 2.58605 63.6889 3.50075 63.6889 4.81084C63.6889 6.39329 65.1924 6.78712 66.4008 7.1038C67.2751 7.33309 68.0304 7.53078 68.0304 8.08822C68.0304 8.57377 67.544 8.87526 66.7605 8.87526C65.8194 8.87526 65.1867 8.44673 65.1098 7.75729L65.0958 7.64419L63.4777 7.94475C63.4777 9.47887 65.2336 10.2991 66.7045 10.2991M71.1853 8.78323C71.1853 9.61985 71.7268 10.2988 72.623 10.2988C73.7345 10.2988 74.0613 10.159 74.0613 10.159V8.74977C74.0613 8.74977 73.7278 8.80337 73.3222 8.80337C73.06 8.80337 72.8757 8.64875 72.8757 8.4145V4.14991H74.0493L74.0328 2.72611H72.8757V0.611007L71.1853 1.02529V2.72611H70.3031L70.2983 4.14991H71.1853V8.78323ZM84.435 3.66622V2.72611H82.947V10.159H84.7355L84.7209 5.61337C84.744 5.15602 84.9008 4.80557 85.1871 4.57225C85.5626 4.26549 86.1475 4.16075 86.9243 4.26146L87.0177 4.27354L87.0335 2.72239L86.9607 2.71278C85.8891 2.56963 84.9195 2.89002 84.435 3.66622Z" fill="white"/>
<mask id="mask1_875_480" style="mask-type:luminance" maskUnits="userSpaceOnUse" x="43" y="2" width="52" height="20">
<path d="M43.5859 2.57227H94.9132V21.7336H43.5859V2.57227Z" fill="white"/>
</mask>
<g mask="url(#mask1_875_480)">
<path fill-rule="evenodd" clip-rule="evenodd" d="M91.8839 2.57227C90.8089 2.57227 89.8015 2.99151 89.3028 3.78815V2.72658H87.7549V10.1595H89.5568V6.16973C89.5568 4.88784 90.2423 4.12249 91.3903 4.12249C92.1756 4.12249 93.1117 4.45807 93.1117 6.05787V10.1595H94.9135V5.81959C94.9135 3.42531 93.3488 2.57227 91.8839 2.57227ZM50.0703 17.4133C50.0703 19.1311 49.2388 20.0768 47.7292 20.0768C46.2285 20.0768 45.4023 19.1311 45.4023 17.4133V11.4906H43.5859V17.3711C43.5859 20.1063 45.1348 21.7389 47.7292 21.7389C50.3237 21.7389 51.8725 20.106 51.8725 17.3711V11.4906H50.0703V17.4133Z" fill="white"/>
</g>
<path fill-rule="evenodd" clip-rule="evenodd" d="M57.0756 14.0117C56.0005 14.0117 54.9932 14.431 54.4945 15.2273V14.1657H52.9463V21.5989H54.7488V17.6092C54.7488 16.3273 55.434 15.5619 56.5823 15.5619C57.3673 15.5619 58.303 15.8975 58.303 17.497V21.5989H60.1049V17.259C60.1049 14.8648 58.5402 14.0117 57.0756 14.0117ZM61.2217 21.5989H63.01V14.1657H61.2217V21.5989Z" fill="white"/>
<mask id="mask2_875_480" style="mask-type:luminance" maskUnits="userSpaceOnUse" x="61" y="11" width="11" height="11">
<path d="M61.0811 11.4258H71.8626V21.7329H61.0811V11.4258Z" fill="white"/>
</mask>
<g mask="url(#mask2_875_480)">
<path fill-rule="evenodd" clip-rule="evenodd" d="M62.1229 11.4258C61.539 11.4258 61.0811 11.8664 61.0811 12.4288C61.0811 12.9741 61.5485 13.4182 62.1229 13.4182C62.6897 13.4182 63.1511 12.9745 63.1511 12.4288C63.1504 12.1624 63.0418 11.9072 62.849 11.7192C62.6562 11.5311 62.3951 11.4256 62.1229 11.4258ZM67.8463 20.1322C66.56 20.1322 65.5898 19.1617 65.5898 17.8749C65.5898 16.5877 66.56 15.6172 67.8463 15.6172C69.1488 15.6172 70.1311 16.5877 70.1311 17.8749C70.1311 19.1617 69.1488 20.1322 67.8463 20.1322ZM67.8463 14.0112C66.7339 14.0112 65.7171 14.402 64.9827 15.1112C64.248 15.8208 63.844 16.8021 63.844 17.8749C63.844 20.1136 65.5274 21.7385 67.8463 21.7385C70.1738 21.7385 71.8626 20.1136 71.8626 17.8746C71.8626 16.8015 71.4579 15.8202 70.7226 15.1116C69.986 14.402 68.9648 14.0112 67.8463 14.0112Z" fill="white"/>
</g>
<path fill-rule="evenodd" clip-rule="evenodd" d="M76.8263 14.012C75.7512 14.012 74.7439 14.4312 74.2454 15.2275V14.166H72.6973V21.5992H74.4991V17.6094C74.4991 16.3275 75.1847 15.5622 76.3329 15.5622C77.1183 15.5622 78.054 15.8978 78.054 17.4973V21.5992H79.8558V17.2593C79.8558 14.865 78.2909 14.012 76.8263 14.012ZM76.3069 5.66776C76.4304 4.71835 77.2718 4.03852 78.3431 4.03852C79.4302 4.03852 80.2558 4.71866 80.34 5.66807L76.3069 5.66776ZM78.3431 2.57227C77.2693 2.57227 76.2911 2.96796 75.5881 3.68652C74.8927 4.39796 74.5096 5.37928 74.5096 6.44984C74.5096 8.71646 76.1325 10.2995 78.4555 10.2995C79.948 10.2995 81.3603 9.5032 81.9252 8.31798L80.5626 7.64001L80.5338 7.63691L80.5082 7.68928C80.3429 8.02486 79.7384 8.80539 78.4698 8.80539C77.3174 8.80539 76.4409 8.08807 76.3069 7.05004H82.1738L82.1761 6.97041C82.2118 5.55373 81.8185 4.39145 81.0389 3.60905C80.3628 2.93077 79.4305 2.57227 78.3431 2.57227Z" fill="white"/>
</g>
<defs>
<clipPath id="clip0_875_480">
<rect width="95" height="22" fill="white"/>
</clipPath>
</defs>
</svg>
