<svg width="103" height="24" viewBox="0 0 103 24" fill="none" xmlns="http://www.w3.org/2000/svg">
<path d="M102.866 10.1802C102.866 4.20359 98.7019 0 92.8647 0C85.4337 0 80.4531 5.39892 80.4531 13.1088C80.4531 19.1253 84.6567 23.2891 90.5935 23.2891C95.9924 23.2891 100.017 20.6793 101.67 16.5155H95.6737C94.8768 17.8105 93.1834 18.6273 91.1115 18.6273C87.924 18.6273 85.9317 16.5155 85.7524 13.5272H102.527C102.746 12.3916 102.866 11.4154 102.866 10.1802ZM86.2106 9.48297C86.7485 6.73371 89.4181 4.54226 92.6455 4.54226C95.4346 4.54226 97.5464 6.57433 97.5464 9.48297H86.2106Z" fill="white"/>
<path d="M64.3418 22.7487L65.4176 17.0111C68.7048 17.6686 69.2028 15.8158 70.0595 11.3532L70.4778 9.14187C71.6732 2.90622 74.0838 -0.201649 80.9768 0.635084L79.901 6.37268C76.6139 5.71525 76.0361 8.20552 75.299 12.0704L74.8806 14.2818C73.6853 20.5971 71.195 23.5855 64.3418 22.7487Z" fill="white"/>
<path d="M56.2871 22.7752L60.3512 0.541992H65.7103L61.6661 22.7752H56.2871Z" fill="white"/>
<path d="M25.5918 0.541992H30.7915L32.4849 16.6192L39.2983 0.541992H44.4581L46.271 16.7786L52.8454 0.541992H58.0252L48.6019 22.7752H42.705L40.7924 7.47492L34.2779 22.7752H28.5801L25.5918 0.541992Z" fill="white"/>
<path d="M6.17588 6.43018L0 12.3272H10.499L11.5947 9.75719H6.2755L9.6025 6.43018L7.67005 3.10317H16.6948L8.36733 22.7664H11.4951L20.9183 0.533203H2.70942L6.17588 6.43018Z" fill="white"/>
</svg>
