<svg width="92" height="31" viewBox="0 0 92 31" fill="none" xmlns="http://www.w3.org/2000/svg">
<path d="M33.6688 27.5221L33.1403 28.5409H32.4893L34.8624 24.0912H35.4492L36.4101 28.5414H35.7909L35.5782 27.5226H33.6693L33.6688 27.5221ZM35.0362 24.8975L33.9403 27.0001H35.4684L35.0362 24.8975ZM74.4006 28.1532C74.633 28.1532 74.8264 28.1092 74.9809 28.0209C75.1355 27.9328 75.2495 27.8198 75.3227 27.6821C75.3956 27.5444 75.4325 27.4027 75.4325 27.2568C75.4325 27.1275 75.3968 27.0169 75.3256 26.9245C75.2549 26.832 75.1328 26.7425 74.9614 26.6567L74.4006 26.418C74.0823 26.2761 73.8534 26.1213 73.7136 25.9537C73.5742 25.7862 73.5042 25.5817 73.5042 25.3411C73.5042 25.079 73.571 24.8478 73.704 24.6478C73.837 24.448 74.0235 24.2942 74.2621 24.1869C74.5007 24.079 74.775 24.0254 75.0843 24.0254C75.3422 24.0296 75.568 24.065 75.7613 24.1317C75.9547 24.1985 76.1248 24.2984 76.2707 24.4314L76.1743 25.0311C75.8429 24.7301 75.4582 24.5773 75.0195 24.5731C74.7532 24.5731 74.5348 24.6399 74.3655 24.7729C74.1948 24.9064 74.1108 25.0763 74.1108 25.2828C74.1108 25.399 74.1523 25.4979 74.2361 25.5795C74.3202 25.6611 74.4735 25.7536 74.6971 25.8565L75.246 26.102C75.5422 26.2479 75.7519 26.4062 75.8746 26.5758C75.9972 26.7454 76.0581 26.9492 76.0581 27.1853C76.0581 27.4561 76.0002 27.7058 75.8842 27.9336C75.768 28.1616 75.5813 28.3475 75.3234 28.4914C75.0653 28.6356 74.7344 28.7076 74.3303 28.7076C73.7752 28.7076 73.3388 28.5676 73.0208 28.2884L73.1241 27.65C73.5067 27.9853 73.9322 28.1532 74.4011 28.1532M79.2027 25.6671C79.4153 25.9015 79.5217 26.2056 79.5217 26.5795C79.5217 26.7041 79.5155 26.8075 79.5019 26.8891C79.4895 26.9707 79.4678 27.0676 79.4381 27.1789H77.013C77.0002 27.5016 77.0838 27.7501 77.2643 27.9242C77.4448 28.0983 77.6901 28.1853 77.9999 28.1853C78.2151 28.1853 78.4104 28.1586 78.587 28.1047C78.7625 28.051 78.9369 27.9702 79.1087 27.8624L79.0316 28.3465C78.7007 28.5701 78.3095 28.6818 77.858 28.6818C77.5613 28.6818 77.3041 28.6183 77.0872 28.4914C76.8704 28.3653 76.7045 28.1898 76.5907 27.966C76.4765 27.7427 76.4196 27.4912 76.4196 27.2118C76.4196 26.9363 76.4881 26.6517 76.6258 26.3572C76.7633 26.0629 76.972 25.8157 77.2514 25.6154C77.5308 25.4158 77.8746 25.3157 78.2831 25.3157C78.6836 25.3157 78.9895 25.4329 79.2024 25.6673M77.5061 26.0671C77.3021 26.2457 77.1631 26.4618 77.0902 26.7155H78.9606C78.9648 26.6809 78.9668 26.6339 78.9668 26.5736C78.9668 26.3327 78.9025 26.1433 78.7732 26.0058C78.6441 25.8686 78.4616 25.7998 78.2249 25.7998C77.95 25.7998 77.7101 25.8891 77.5061 26.0671ZM81.5105 25.9025C81.2568 25.9025 81.0417 25.994 80.8659 26.1764C80.6896 26.3594 80.5731 26.6248 80.5172 26.9727L80.266 28.5659H79.6918L80.1883 25.4185H80.7432L80.6591 25.9537C80.9173 25.584 81.2269 25.399 81.5879 25.399C81.6782 25.399 81.7622 25.4059 81.8396 25.4188L81.7622 25.9218C81.6848 25.9089 81.601 25.9025 81.5105 25.9025ZM83.2353 28.5659H82.7004L81.9524 25.4188H82.5261L83.0614 27.8755L84.3705 25.4188H84.9704M85.3205 28.5659H84.7464L85.2303 25.4188H85.8109L85.3208 28.5659H85.3205ZM85.3883 24.8122C85.3302 24.7529 85.3012 24.6772 85.3012 24.5867C85.3012 24.4749 85.3438 24.3783 85.4298 24.2967C85.5159 24.2151 85.6148 24.174 85.7266 24.174C85.8171 24.174 85.8912 24.2042 85.9491 24.2643C86.0075 24.3246 86.0364 24.4003 86.0364 24.4903C86.0364 24.5978 85.9931 24.693 85.9073 24.7771C85.8215 24.8612 85.7224 24.9027 85.6106 24.9027C85.5206 24.9027 85.4462 24.8731 85.388 24.8127M86.6642 28.4885C86.4536 28.3599 86.2884 28.1843 86.1677 27.9628C86.0465 27.7412 85.9872 27.4974 85.9872 27.2308C85.9872 26.8955 86.0638 26.5815 86.2159 26.2892C86.3687 25.9969 86.5898 25.7618 86.8804 25.5832C87.1702 25.4052 87.5114 25.3154 87.9023 25.3154C88.2807 25.3154 88.588 25.4101 88.8247 25.5993L88.7282 26.1861C88.5087 25.9537 88.2226 25.8379 87.8702 25.8379C87.6205 25.8379 87.3979 25.9015 87.2026 26.0283C87.0072 26.1549 86.8556 26.3218 86.7481 26.5278C86.6405 26.7343 86.5868 26.9556 86.5868 27.1923C86.5868 27.4803 86.6684 27.7135 86.8316 27.892C86.9948 28.0701 87.2189 28.1591 87.5025 28.1591C87.6788 28.1591 87.8551 28.127 88.0317 28.0627C88.2077 27.9984 88.3645 27.9037 88.502 27.7788L88.412 28.3723C88.2438 28.484 88.0764 28.5634 87.9088 28.6109C87.7414 28.6579 87.5631 28.6816 87.3739 28.6816C87.1113 28.6816 86.8749 28.6176 86.6642 28.4885ZM91.6805 25.6671C91.8931 25.9015 92 26.2056 92 26.5795C92 26.7041 91.9933 26.8075 91.9802 26.8891C91.9673 26.9707 91.9456 27.0676 91.9159 27.1789H89.4911C89.478 27.5016 89.5616 27.7501 89.7421 27.9242C89.9226 28.0983 90.1679 28.1853 90.4775 28.1853C90.6926 28.1853 90.888 28.1586 91.0643 28.1047C91.2403 28.051 91.4144 27.9702 91.5865 27.8624L91.5091 28.3465C91.1778 28.5701 90.7871 28.6818 90.3355 28.6818C90.0388 28.6818 89.7816 28.6183 89.5648 28.4914C89.3477 28.3653 89.1815 28.1898 89.0678 27.966C88.954 27.7427 88.8971 27.4912 88.8971 27.2118C88.8971 26.9363 88.9654 26.6517 89.1031 26.3572C89.2408 26.0629 89.4493 25.8157 89.7287 25.6154C90.0081 25.4158 90.3519 25.3157 90.7606 25.3157C91.1607 25.3157 91.4671 25.4329 91.6797 25.6673M89.9834 26.0671C89.7794 26.2457 89.6407 26.4618 89.5675 26.7155H91.4384C91.4426 26.6809 91.4446 26.6339 91.4446 26.5736C91.4446 26.3327 91.3803 26.1433 91.2517 26.0058C91.1224 25.8686 90.9396 25.7998 90.7027 25.7998C90.4283 25.7998 90.1884 25.8889 89.9842 26.0669" fill="white"/>
<path d="M60.5149 21.7883H58.0743C57.9074 21.7883 57.7652 21.9095 57.7392 22.0752L56.7526 28.333C56.7328 28.4566 56.828 28.5679 56.9534 28.5679H58.2054C58.3221 28.5679 58.4215 28.4831 58.4395 28.3676L58.7197 26.5936C58.7454 26.4285 58.8873 26.3068 59.0545 26.3068H59.8267C61.434 26.3068 62.3623 25.5291 62.6049 23.9869C62.7137 23.3125 62.6091 22.7826 62.2933 22.4117C61.9462 22.0037 61.3309 21.7881 60.5147 21.7881M60.7966 24.0739C60.663 24.9503 59.9939 24.9503 59.3465 24.9503H58.9781L59.2367 23.3145C59.2521 23.2151 59.3376 23.1424 59.4378 23.1424H59.6064C60.0466 23.1424 60.4625 23.1424 60.6771 23.3934C60.8057 23.5433 60.8443 23.766 60.7958 24.0734" fill="white"/>
<path d="M43.1034 21.7883H40.6623C40.4959 21.7883 40.3532 21.9095 40.3275 22.0752L39.3404 28.333C39.3211 28.4566 39.4163 28.5679 39.5414 28.5679H40.7068C40.874 28.5679 41.0159 28.4467 41.0419 28.2818L41.3082 26.5936C41.3342 26.4285 41.4764 26.3068 41.643 26.3068H42.415C44.0223 26.3068 44.9508 25.5291 45.1932 23.9869C45.302 23.3125 45.1974 22.7826 44.8816 22.4117C44.5347 22.0037 43.9197 21.7881 43.1032 21.7881M43.3846 24.0739C43.2511 24.9503 42.5822 24.9503 41.9348 24.9503H41.5664L41.825 23.3145C41.8406 23.2151 41.9259 23.1424 42.026 23.1424H42.1942C42.6348 23.1424 43.051 23.1424 43.2656 23.3934C43.3942 23.5433 43.4328 23.766 43.3843 24.0734M50.3981 24.0462H49.2294C49.1291 24.0462 49.044 24.1189 49.0282 24.2181L48.9767 24.5445L48.8951 24.4265C48.6419 24.0591 48.0781 23.9362 47.5146 23.9362C46.2233 23.9362 45.1205 24.9144 44.9058 26.2868C44.7941 26.9717 44.9528 27.6255 45.341 28.082C45.6976 28.5019 46.2065 28.6767 46.8128 28.6767C47.8538 28.6767 48.4307 28.0081 48.4307 28.0081L48.3788 28.3327C48.359 28.4564 48.4547 28.5677 48.5796 28.5677H49.6323C49.7987 28.5677 49.9406 28.4465 49.9668 28.2816L50.5986 24.2811C50.6184 24.1575 50.5225 24.0462 50.3976 24.0462M48.7688 26.3207C48.656 26.9883 48.1259 27.4366 47.4498 27.4366C47.1105 27.4366 46.8395 27.3273 46.6647 27.1208C46.4916 26.9163 46.4268 26.6248 46.4817 26.2999C46.5868 25.6382 47.1254 25.1753 47.7913 25.1753C48.1231 25.1753 48.3927 25.2856 48.5707 25.4943C48.7497 25.7037 48.82 25.9975 48.7685 26.3202" fill="white"/>
<path d="M67.8073 24.0397H66.6387C66.5385 24.0397 66.4532 24.1124 66.4374 24.2116L66.3859 24.538L66.3043 24.42C66.0511 24.0526 65.4873 23.9297 64.924 23.9297C63.6328 23.9297 62.5299 24.9079 62.3153 26.2803C62.2035 26.9652 62.3623 27.619 62.7505 28.0755C63.1066 28.4954 63.616 28.6702 64.2218 28.6702C65.2628 28.6702 65.8399 28.0016 65.8399 28.0016L65.788 28.3263C65.7682 28.4499 65.8639 28.5612 65.9888 28.5612H67.0412C67.2079 28.5612 67.3498 28.44 67.376 28.2751L68.0076 24.2746C68.0274 24.151 67.9319 24.0397 67.8073 24.0397ZM66.1782 26.3142C66.0652 26.9818 65.5353 27.4301 64.859 27.4301C64.5202 27.4301 64.2492 27.3208 64.0744 27.1144C63.9013 26.9099 63.8365 26.6183 63.8914 26.2934C63.9965 25.6317 64.5353 25.1688 65.2012 25.1688C65.5331 25.1688 65.8021 25.2791 65.9802 25.4878C66.1594 25.6972 66.2299 25.991 66.1785 26.3137" fill="white"/>
<path d="M56.6206 24.0386H55.446C55.3337 24.0386 55.2284 24.0942 55.1653 24.1874L53.5452 26.5737L52.8583 24.2804C52.8155 24.1365 52.6832 24.0381 52.5336 24.0381H51.3788C51.2391 24.0381 51.1407 24.1756 51.1859 24.3076L52.4792 28.104L51.2626 29.8201C51.1671 29.9549 51.2638 30.1416 51.4288 30.1416H52.6021C52.7134 30.1416 52.8172 30.0867 52.881 29.9957L56.7875 24.3573C56.8809 24.2226 56.7843 24.0383 56.6203 24.0383" fill="white"/>
<path d="M69.1847 21.9597L68.1833 28.3325C68.1635 28.4561 68.2589 28.5674 68.3836 28.5674H69.3917C69.5584 28.5674 69.7003 28.4462 69.7265 28.2811L70.7141 22.023C70.7334 21.8994 70.638 21.7881 70.5131 21.7881H69.3855C69.2856 21.7881 69.2001 21.8605 69.1847 21.9597Z" fill="white"/>
<path d="M31.0694 0C25.4736 0 21.0911 4.24326 21.0911 9.66033V9.71424C21.0911 15.1924 25.3586 19.3217 31.0168 19.3217C36.6126 19.3217 40.9954 15.0784 40.9954 9.66058V9.60766C40.9954 4.12951 36.7289 0 31.0697 0M25.4882 9.60766C25.4882 6.34362 27.8652 3.88125 31.0173 3.88125C34.199 3.88125 36.5993 6.36637 36.5993 9.66009V9.71449C36.5993 12.9773 34.2205 15.4389 31.0694 15.4389C27.887 15.4389 25.4884 12.9553 25.4884 9.66009L25.4882 9.60766ZM52.5283 0C46.932 0 42.549 4.24326 42.549 9.66033V9.71424C42.549 15.1924 46.816 19.3217 52.4742 19.3217C58.0732 19.3217 62.455 15.0784 62.455 9.66058V9.60766C62.455 4.12951 58.187 0 52.5286 0M46.9475 9.60766C46.9475 6.34362 49.3214 3.88125 52.4746 3.88125C55.6571 3.88125 58.0557 6.36637 58.0557 9.66009V9.71449C58.0557 12.9773 55.6793 15.4389 52.5286 15.4389C49.3466 15.4389 46.9475 12.9553 46.9475 9.66009V9.60766ZM85.5691 0.206723C83.2291 0.206723 81.3122 1.12041 79.7205 2.99847C78.6318 1.19533 76.7952 0.20697 74.4948 0.20697C72.0794 0.20697 70.574 1.34691 69.5253 2.56203V0.902558C69.5253 0.717842 69.378 0.569477 69.192 0.569477H65.2071C65.0187 0.569477 64.8716 0.717842 64.8716 0.90231V18.3021C64.8716 18.4866 65.0185 18.6347 65.2069 18.6347H69.1917C69.3777 18.6347 69.5251 18.4869 69.5251 18.3024V8.49492C69.5251 6.06247 70.8594 4.49276 72.9152 4.49276C74.9726 4.49276 76.1063 5.86662 76.1063 8.36263V18.3021C76.1063 18.4866 76.2572 18.6347 76.4402 18.6347H80.428C80.6124 18.6347 80.7638 18.4869 80.7638 18.3024V8.46228C80.7638 5.97716 82.0298 4.49276 84.1515 4.49276C86.7884 4.49276 87.3413 6.61686 87.3413 8.39478V18.3021C87.3413 18.4866 87.4907 18.6347 87.6751 18.6347H91.663C91.8484 18.6347 92 18.4869 92 18.3024V7.17991C92 2.81351 89.596 0.206723 85.5688 0.206723M14.7198 7.97861C14.7569 8.02312 14.815 8.04884 14.8748 8.04884C14.9347 8.04884 14.9906 8.02337 15.0296 7.97861L21.2019 0.909976C21.2533 0.847415 21.2637 0.76161 21.2335 0.691137C21.2009 0.616954 21.1285 0.571208 21.0466 0.571208H15.7104C15.6528 0.571208 15.5974 0.597666 15.5566 0.641681L12.0527 4.65794C11.9864 4.7341 11.9864 4.84587 12.0527 4.92401L14.7193 7.97861H14.7198ZM13.9567 8.81935L6.82328 0.646874C6.78174 0.603106 6.72882 0.572691 6.66997 0.572691H1.402C1.32535 0.572691 1.24869 0.618932 1.21655 0.690889C1.1844 0.764083 1.19528 0.849146 1.24869 0.910965L8.22361 8.90045L0.0486613 18.2994C-0.00277209 18.3598 -0.0138995 18.4453 0.0175046 18.5183C0.0521232 18.5892 0.124328 18.6365 0.204693 18.6365H5.52508C5.58295 18.6365 5.64056 18.6063 5.67938 18.5623L11.2992 12.1257C11.3121 12.1163 11.3183 12.1096 11.3244 12.1034L13.9567 9.08789C14.021 9.01198 14.021 8.8965 13.9567 8.81935ZM22.2276 18.296L15.0039 10.0196C14.9653 9.97512 14.909 9.94866 14.8501 9.94866C14.7932 9.94866 14.7349 9.97512 14.6968 10.0199L12.0586 13.0413C11.9909 13.118 11.9909 13.2322 12.0544 13.3084L16.6463 18.568C16.6851 18.6135 16.7423 18.6367 16.7996 18.6367H22.0723C22.1534 18.6367 22.2261 18.5865 22.2578 18.5138C22.2924 18.4426 22.2813 18.3546 22.2276 18.296Z" fill="white"/>
</svg>
